<svg width="71" height="30" viewBox="0 0 71 30" fill="none" xmlns="http://www.w3.org/2000/svg">
<mask id="path-1-outside-1_734_1599" maskUnits="userSpaceOnUse" x="8" y="4.5" width="55" height="21" fill="black">
<rect fill="white" x="8" y="4.5" width="55" height="21"/>
<path d="M10 10.4705V6.84228H16.3559V23.5H12.2716V10.4705H10ZM19.04 14.943C19.04 12.3264 19.5448 10.2651 20.5544 8.75906C21.5793 7.25302 23.2237 6.5 25.4876 6.5C27.7516 6.5 29.3884 7.25302 30.398 8.75906C31.4229 10.2651 31.9353 12.3264 31.9353 14.943C31.9353 17.5899 31.4229 19.6664 30.398 21.1725C29.3884 22.6785 27.7516 23.4315 25.4876 23.4315C23.2237 23.4315 21.5793 22.6785 20.5544 21.1725C19.5448 19.6664 19.04 17.5899 19.04 14.943ZM28.0805 14.943C28.0805 13.4065 27.9122 12.2275 27.5757 11.406C27.2391 10.5694 26.5431 10.151 25.4876 10.151C24.4321 10.151 23.7361 10.5694 23.3996 11.406C23.0631 12.2275 22.8948 13.4065 22.8948 14.943C22.8948 15.9774 22.956 16.8369 23.0784 17.5215C23.2007 18.1908 23.4455 18.7385 23.8126 19.1644C24.195 19.5752 24.7534 19.7805 25.4876 19.7805C26.2219 19.7805 26.7726 19.5752 27.1397 19.1644C27.5221 18.7385 27.7745 18.1908 27.8969 17.5215C28.0193 16.8369 28.0805 15.9774 28.0805 14.943ZM34.0083 14.943C34.0083 12.3264 34.5131 10.2651 35.5227 8.75906C36.5476 7.25302 38.192 6.5 40.4559 6.5C42.7199 6.5 44.3567 7.25302 45.3663 8.75906C46.3912 10.2651 46.9036 12.3264 46.9036 14.943C46.9036 17.5899 46.3912 19.6664 45.3663 21.1725C44.3567 22.6785 42.7199 23.4315 40.4559 23.4315C38.192 23.4315 36.5476 22.6785 35.5227 21.1725C34.5131 19.6664 34.0083 17.5899 34.0083 14.943ZM43.0488 14.943C43.0488 13.4065 42.8805 12.2275 42.544 11.406C42.2075 10.5694 41.5114 10.151 40.4559 10.151C39.4005 10.151 38.7044 10.5694 38.3679 11.406C38.0314 12.2275 37.8631 13.4065 37.8631 14.943C37.8631 15.9774 37.9243 16.8369 38.0467 17.5215C38.1691 18.1908 38.4138 18.7385 38.7809 19.1644C39.1634 19.5752 39.7217 19.7805 40.4559 19.7805C41.1902 19.7805 41.7409 19.5752 42.108 19.1644C42.4904 18.7385 42.7428 18.1908 42.8652 17.5215C42.9876 16.8369 43.0488 15.9774 43.0488 14.943ZM61 17.2705H57.0075V21.3322H53.2903V17.2705H49.2978V13.7792H53.2903V9.69463H57.0075V13.7792H61V17.2705Z"/>
</mask>
<path d="M10 10.4705H8V12.4705H10V10.4705ZM10 6.84228V4.84228H8V6.84228H10ZM16.3559 6.84228H18.3559V4.84228H16.3559V6.84228ZM16.3559 23.5V25.5H18.3559V23.5H16.3559ZM12.2716 23.5H10.2716V25.5H12.2716V23.5ZM12.2716 10.4705H14.2716V8.47047H12.2716V10.4705ZM20.5544 8.75906L18.9009 7.63382L18.8931 7.64541L20.5544 8.75906ZM30.398 8.75906L28.7367 9.87274L28.7445 9.88427L30.398 8.75906ZM30.398 21.1725L28.7445 20.0472L28.7367 20.0588L30.398 21.1725ZM20.5544 21.1725L18.8931 22.2862L18.9009 22.2977L20.5544 21.1725ZM27.5757 11.406L25.7201 12.1524L25.7249 12.1642L27.5757 11.406ZM23.3996 11.406L25.2504 12.1642L25.2551 12.1524L23.3996 11.406ZM23.0784 17.5215L21.1096 17.8734L21.111 17.8812L23.0784 17.5215ZM23.8126 19.1644L22.2977 20.4702L22.3227 20.4992L22.3489 20.5273L23.8126 19.1644ZM27.1397 19.1644L25.6515 17.8283L25.6485 17.8316L27.1397 19.1644ZM27.8969 17.5215L29.8643 17.8812L29.8657 17.8734L27.8969 17.5215ZM35.5227 8.75906L33.8692 7.63382L33.8614 7.64541L35.5227 8.75906ZM45.3663 8.75906L43.705 9.87274L43.7128 9.88427L45.3663 8.75906ZM45.3663 21.1725L43.7128 20.0472L43.705 20.0588L45.3663 21.1725ZM35.5227 21.1725L33.8614 22.2862L33.8692 22.2977L35.5227 21.1725ZM42.544 11.406L40.6884 12.1524L40.6933 12.1642L42.544 11.406ZM38.3679 11.406L40.2187 12.1642L40.2234 12.1524L38.3679 11.406ZM38.0467 17.5215L36.0779 17.8734L36.0793 17.8812L38.0467 17.5215ZM38.7809 19.1644L37.266 20.4702L37.291 20.4992L37.3172 20.5273L38.7809 19.1644ZM42.108 19.1644L40.6198 17.8283L40.6169 17.8316L42.108 19.1644ZM42.8652 17.5215L44.8326 17.8812L44.834 17.8734L42.8652 17.5215ZM61 17.2705V19.2705H63V17.2705H61ZM57.0075 17.2705V15.2705H55.0075V17.2705H57.0075ZM57.0075 21.3322V23.3322H59.0075V21.3322H57.0075ZM53.2903 21.3322H51.2903V23.3322H53.2903V21.3322ZM53.2903 17.2705H55.2903V15.2705H53.2903V17.2705ZM49.2978 17.2705H47.2978V19.2705H49.2978V17.2705ZM49.2978 13.7792V11.7792H47.2978V13.7792H49.2978ZM53.2903 13.7792V15.7792H55.2903V13.7792H53.2903ZM53.2903 9.69463V7.69463H51.2903V9.69463H53.2903ZM57.0075 9.69463H59.0075V7.69463H57.0075V9.69463ZM57.0075 13.7792H55.0075V15.7792H57.0075V13.7792ZM61 13.7792H63V11.7792H61V13.7792ZM12 10.4705V6.84228H8V10.4705H12ZM10 8.84228H16.3559V4.84228H10V8.84228ZM14.3559 6.84228V23.5H18.3559V6.84228H14.3559ZM16.3559 21.5H12.2716V25.5H16.3559V21.5ZM14.2716 23.5V10.4705H10.2716V23.5H14.2716ZM12.2716 8.47047H10V12.4705H12.2716V8.47047ZM21.04 14.943C21.04 12.5555 21.5046 10.9334 22.2156 9.87271L18.8931 7.64541C17.5849 9.59685 17.04 12.0973 17.04 14.943H21.04ZM22.2078 9.88427C22.7685 9.06038 23.7038 8.5 25.4876 8.5V4.5C22.7435 4.5 20.39 5.44566 18.9009 7.63385L22.2078 9.88427ZM25.4876 8.5C27.2725 8.5 28.1921 9.0603 28.7367 9.87271L32.0592 7.64541C30.5846 5.44574 28.2306 4.5 25.4876 4.5V8.5ZM28.7445 9.88427C29.4649 10.9428 29.9353 12.5603 29.9353 14.943H33.9353C33.9353 12.0925 33.3808 9.58737 32.0514 7.63385L28.7445 9.88427ZM29.9353 14.943C29.9353 17.3617 29.4627 18.9919 28.7445 20.0473L32.0514 22.2977C33.383 20.3409 33.9353 17.8182 33.9353 14.943H29.9353ZM28.7367 20.0588C28.1921 20.8712 27.2725 21.4315 25.4876 21.4315V25.4315C28.2306 25.4315 30.5846 24.4858 32.0592 22.2861L28.7367 20.0588ZM25.4876 21.4315C23.7038 21.4315 22.7685 20.8712 22.2078 20.0473L18.9009 22.2977C20.39 24.4859 22.7435 25.4315 25.4876 25.4315V21.4315ZM22.2156 20.0588C21.5067 19.0014 21.04 17.3664 21.04 14.943H17.04C17.04 17.8135 17.5828 20.3315 18.8931 22.2861L22.2156 20.0588ZM30.0805 14.943C30.0805 13.3086 29.9085 11.8246 29.4264 10.6479L25.7249 12.1642C25.9159 12.6304 26.0805 13.5044 26.0805 14.943H30.0805ZM29.4312 10.6597C29.1194 9.88458 28.5939 9.20877 27.8316 8.75058C27.0923 8.30624 26.2719 8.15101 25.4876 8.15101V12.151C25.7589 12.151 25.8142 12.2049 25.7709 12.1789C25.7494 12.166 25.7271 12.1467 25.7114 12.1276C25.6972 12.1104 25.704 12.1122 25.7201 12.1524L29.4312 10.6597ZM25.4876 8.15101C24.7034 8.15101 23.8829 8.30624 23.1437 8.75058C22.3814 9.20877 21.8558 9.88458 21.5441 10.6597L25.2551 12.1524C25.2713 12.1122 25.2781 12.1104 25.2639 12.1276C25.2482 12.1467 25.2259 12.166 25.2043 12.1789C25.1611 12.2049 25.2164 12.151 25.4876 12.151V8.15101ZM21.5489 10.6479C21.0668 11.8246 20.8948 13.3086 20.8948 14.943H24.8948C24.8948 13.5044 25.0593 12.6304 25.2503 12.1642L21.5489 10.6479ZM20.8948 14.943C20.8948 16.0443 20.959 17.0314 21.1096 17.8734L25.0472 17.1695C24.9529 16.6424 24.8948 15.9105 24.8948 14.943H20.8948ZM21.111 17.8812C21.2839 18.827 21.6539 19.7233 22.2977 20.4702L25.3276 17.8587C25.2371 17.7537 25.1176 17.5547 25.0458 17.1618L21.111 17.8812ZM22.3489 20.5273C23.217 21.4597 24.3783 21.7805 25.4876 21.7805V17.7805C25.3029 17.7805 25.2217 17.7543 25.2086 17.7495C25.2032 17.7475 25.2117 17.7501 25.2282 17.7608C25.245 17.7719 25.262 17.7862 25.2764 17.8016L22.3489 20.5273ZM25.4876 21.7805C26.5919 21.7805 27.7691 21.4614 28.6309 20.4973L25.6485 17.8316C25.6684 17.8093 25.6918 17.7892 25.7153 17.7734C25.7383 17.758 25.7529 17.7524 25.7525 17.7526C25.7487 17.754 25.6733 17.7805 25.4876 17.7805V21.7805ZM28.6279 20.5006C29.3003 19.7516 29.6881 18.8448 29.8643 17.8812L25.9295 17.1618C25.8609 17.5369 25.7439 17.7254 25.6515 17.8283L28.6279 20.5006ZM29.8657 17.8734C30.0162 17.0314 30.0805 16.0443 30.0805 14.943H26.0805C26.0805 15.9105 26.0223 16.6424 25.9281 17.1695L29.8657 17.8734ZM36.0083 14.943C36.0083 12.5555 36.4729 10.9334 37.1839 9.87271L33.8614 7.64541C32.5532 9.59685 32.0083 12.0973 32.0083 14.943H36.0083ZM37.1761 9.88427C37.7368 9.06038 38.6721 8.5 40.4559 8.5V4.5C37.7119 4.5 35.3583 5.44566 33.8692 7.63385L37.1761 9.88427ZM40.4559 8.5C42.2408 8.5 43.1604 9.0603 43.705 9.87271L47.0275 7.64541C45.5529 5.44574 43.199 4.5 40.4559 4.5V8.5ZM43.7128 9.88427C44.4332 10.9428 44.9036 12.5603 44.9036 14.943H48.9036C48.9036 12.0925 48.3491 9.58737 47.0197 7.63385L43.7128 9.88427ZM44.9036 14.943C44.9036 17.3617 44.431 18.9919 43.7128 20.0473L47.0197 22.2977C48.3513 20.3409 48.9036 17.8182 48.9036 14.943H44.9036ZM43.705 20.0588C43.1604 20.8712 42.2408 21.4315 40.4559 21.4315V25.4315C43.199 25.4315 45.5529 24.4858 47.0275 22.2861L43.705 20.0588ZM40.4559 21.4315C38.6721 21.4315 37.7368 20.8712 37.1761 20.0473L33.8692 22.2977C35.3583 24.4859 37.7119 25.4315 40.4559 25.4315V21.4315ZM37.1839 20.0588C36.4751 19.0014 36.0083 17.3664 36.0083 14.943H32.0083C32.0083 17.8135 32.5511 20.3315 33.8614 22.2861L37.1839 20.0588ZM45.0488 14.943C45.0488 13.3086 44.8768 11.8246 44.3947 10.6479L40.6933 12.1642C40.8843 12.6304 41.0488 13.5044 41.0488 14.943H45.0488ZM44.3995 10.6597C44.0877 9.88458 43.5622 9.20877 42.7999 8.75058C42.0606 8.30624 41.2402 8.15101 40.4559 8.15101V12.151C40.7272 12.151 40.7825 12.2049 40.7392 12.1789C40.7177 12.166 40.6954 12.1467 40.6797 12.1276C40.6655 12.1104 40.6723 12.1122 40.6885 12.1524L44.3995 10.6597ZM40.4559 8.15101C39.6717 8.15101 38.8513 8.30624 38.112 8.75058C37.3497 9.20877 36.8242 9.88458 36.5124 10.6597L40.2234 12.1524C40.2396 12.1122 40.2464 12.1104 40.2322 12.1276C40.2165 12.1467 40.1942 12.166 40.1726 12.1789C40.1294 12.2049 40.1847 12.151 40.4559 12.151V8.15101ZM36.5172 10.6479C36.0351 11.8246 35.8631 13.3086 35.8631 14.943H39.8631C39.8631 13.5044 40.0276 12.6304 40.2186 12.1642L36.5172 10.6479ZM35.8631 14.943C35.8631 16.0443 35.9274 17.0314 36.0779 17.8734L40.0155 17.1695C39.9212 16.6424 39.8631 15.9105 39.8631 14.943H35.8631ZM36.0793 17.8812C36.2522 18.827 36.6222 19.7233 37.266 20.4702L40.2959 17.8587C40.2054 17.7537 40.0859 17.5547 40.0141 17.1618L36.0793 17.8812ZM37.3172 20.5273C38.1853 21.4597 39.3466 21.7805 40.4559 21.7805V17.7805C40.2712 17.7805 40.19 17.7543 40.1769 17.7495C40.1715 17.7475 40.18 17.7501 40.1965 17.7608C40.2133 17.7719 40.2304 17.7862 40.2447 17.8016L37.3172 20.5273ZM40.4559 21.7805C41.5602 21.7805 42.7374 21.4614 43.5992 20.4973L40.6169 17.8316C40.6368 17.8093 40.6601 17.7892 40.6836 17.7734C40.7066 17.758 40.7212 17.7524 40.7208 17.7526C40.717 17.754 40.6416 17.7805 40.4559 17.7805V21.7805ZM43.5962 20.5006C44.2687 19.7516 44.6564 18.8448 44.8326 17.8812L40.8978 17.1618C40.8292 17.5369 40.7122 17.7254 40.6198 17.8283L43.5962 20.5006ZM44.834 17.8734C44.9845 17.0314 45.0488 16.0443 45.0488 14.943H41.0488C41.0488 15.9105 40.9907 16.6424 40.8964 17.1695L44.834 17.8734ZM61 15.2705H57.0075V19.2705H61V15.2705ZM55.0075 17.2705V21.3322H59.0075V17.2705H55.0075ZM57.0075 19.3322H53.2903V23.3322H57.0075V19.3322ZM55.2903 21.3322V17.2705H51.2903V21.3322H55.2903ZM53.2903 15.2705H49.2978V19.2705H53.2903V15.2705ZM51.2978 17.2705V13.7792H47.2978V17.2705H51.2978ZM49.2978 15.7792H53.2903V11.7792H49.2978V15.7792ZM55.2903 13.7792V9.69463H51.2903V13.7792H55.2903ZM53.2903 11.6946H57.0075V7.69463H53.2903V11.6946ZM55.0075 9.69463V13.7792H59.0075V9.69463H55.0075ZM57.0075 15.7792H61V11.7792H57.0075V15.7792ZM59 13.7792V17.2705H63V13.7792H59Z" fill="white" mask="url(#path-1-outside-1_734_1599)"/>
</svg>
