<svg width="57" height="30" viewBox="0 0 57 30" fill="none" xmlns="http://www.w3.org/2000/svg">
<mask id="path-1-outside-1_634_7635" maskUnits="userSpaceOnUse" x="0" y="4" width="57" height="22" fill="black">
<rect fill="white" y="4" width="57" height="22"/>
<path d="M2 10.0668V6.24064H8.42917V23.8075H4.29779V10.0668H2ZM23.0741 9.8262H15.8326V13.1471C16.1421 12.7941 16.5753 12.5053 17.1324 12.2807C17.6894 12.0561 18.2929 11.9439 18.9427 11.9439C20.1032 11.9439 21.0626 12.2166 21.8208 12.762C22.5944 13.3075 23.1592 14.0134 23.5151 14.8797C23.871 15.746 24.0489 16.6845 24.0489 17.6952C24.0489 19.5722 23.5383 21.0642 22.5171 22.1711C21.4958 23.262 20.0568 23.8075 18.2 23.8075C16.9622 23.8075 15.8868 23.5909 14.9738 23.1578C14.0609 22.7086 13.3569 22.0909 12.8617 21.3048C12.3666 20.5187 12.0958 19.6123 12.0494 18.5856H15.9254C16.0183 19.0829 16.2426 19.5 16.5985 19.8369C16.9544 20.1578 17.4418 20.3182 18.0608 20.3182C18.788 20.3182 19.3296 20.0775 19.6855 19.5963C20.0414 19.115 20.2193 18.4733 20.2193 17.6711C20.2193 16.885 20.0336 16.2834 19.6623 15.8663C19.2909 15.4492 18.7493 15.2406 18.0376 15.2406C17.5115 15.2406 17.0782 15.377 16.7378 15.6497C16.3974 15.9064 16.173 16.2513 16.0647 16.6845H12.2351V6.21658H23.0741V9.8262ZM30.6032 6V23.8075H26.6343V6H30.6032ZM45.6879 16.877C45.6879 17.262 45.6647 17.6631 45.6183 18.0802H36.636C36.6979 18.9144 36.9532 19.5562 37.4019 20.0053C37.8661 20.4385 38.4309 20.6551 39.0963 20.6551C40.0866 20.6551 40.7751 20.2219 41.162 19.3556H45.3862C45.1695 20.238 44.775 21.0321 44.2025 21.738C43.6454 22.4439 42.9414 22.9973 42.0904 23.3984C41.2393 23.7995 40.2877 24 39.2355 24C37.9667 24 36.8372 23.7193 35.8469 23.1578C34.8566 22.5963 34.0829 21.7941 33.5259 20.7513C32.9688 19.7086 32.6903 18.4893 32.6903 17.0936C32.6903 15.6979 32.9611 14.4786 33.5027 13.4358C34.0597 12.393 34.8334 11.5909 35.8237 11.0294C36.8139 10.4679 37.9512 10.1872 39.2355 10.1872C40.4889 10.1872 41.6029 10.4599 42.5778 11.0053C43.5526 11.5508 44.3108 12.3289 44.8523 13.3396C45.4094 14.3503 45.6879 15.5294 45.6879 16.877ZM41.6262 15.7941C41.6262 15.0882 41.3941 14.5267 40.9299 14.1096C40.4657 13.6925 39.8854 13.484 39.1891 13.484C38.5238 13.484 37.959 13.6845 37.4948 14.0856C37.046 14.4866 36.7675 15.0561 36.6592 15.7941H41.6262ZM55 20.3182V23.8075H52.9807C51.5417 23.8075 50.4199 23.4465 49.6153 22.7246C48.8107 21.9866 48.4084 20.7914 48.4084 19.139V13.7968H46.8301V10.3797H48.4084V7.10695H52.3773V10.3797H54.9768V13.7968H52.3773V19.1872C52.3773 19.5882 52.4701 19.877 52.6558 20.0535C52.8415 20.2299 53.1509 20.3182 53.5842 20.3182H55Z"/>
</mask>
<path d="M2 10.0668H0V12.0668H2V10.0668ZM2 6.24064V4.24064H0V6.24064H2ZM8.42917 6.24064H10.4292V4.24064H8.42917V6.24064ZM8.42917 23.8075V25.8075H10.4292V23.8075H8.42917ZM4.29779 23.8075H2.29779V25.8075H4.29779V23.8075ZM4.29779 10.0668H6.29779V8.06684H4.29779V10.0668ZM23.0741 9.8262V11.8262H25.0741V9.8262H23.0741ZM15.8326 9.8262V7.8262H13.8326V9.8262H15.8326ZM15.8326 13.1471H13.8326V18.4616L17.3364 14.4656L15.8326 13.1471ZM17.1324 12.2807L16.3845 10.4258L17.1324 12.2807ZM21.8208 12.762L20.6528 14.3856L20.6605 14.3911L20.6684 14.3966L21.8208 12.762ZM23.5151 14.8797L25.3651 14.1197L23.5151 14.8797ZM22.5171 22.1711L23.9772 23.5379L23.9821 23.5326L23.9871 23.5273L22.5171 22.1711ZM14.9738 23.1578L14.0909 24.9523L14.1036 24.9586L14.1165 24.9647L14.9738 23.1578ZM12.8617 21.3048L11.1695 22.3707H11.1695L12.8617 21.3048ZM12.0494 18.5856V16.5856H9.95691L10.0514 18.6759L12.0494 18.5856ZM15.9254 18.5856L17.8915 18.2185L17.5866 16.5856H15.9254V18.5856ZM16.5985 19.8369L15.2236 21.2893L15.2413 21.306L15.2593 21.3223L16.5985 19.8369ZM19.6623 15.8663L21.156 14.5364V14.5364L19.6623 15.8663ZM16.7378 15.6497L17.9419 17.2466L17.9654 17.2289L17.9883 17.2106L16.7378 15.6497ZM16.0647 16.6845V18.6845H17.6262L18.005 17.1697L16.0647 16.6845ZM12.2351 16.6845H10.2351V18.6845H12.2351V16.6845ZM12.2351 6.21658V4.21658H10.2351V6.21658H12.2351ZM23.0741 6.21658H25.0741V4.21658H23.0741V6.21658ZM30.6032 6H32.6032V4H30.6032V6ZM30.6032 23.8075V25.8075H32.6032V23.8075H30.6032ZM26.6343 23.8075H24.6343V25.8075H26.6343V23.8075ZM26.6343 6V4H24.6343V6H26.6343ZM45.6183 18.0802V20.0802H47.408L47.606 18.3014L45.6183 18.0802ZM36.636 18.0802V16.0802H34.4821L34.6415 18.2282L36.636 18.0802ZM37.4019 20.0053L35.987 21.4188L36.0118 21.4437L36.0375 21.4676L37.4019 20.0053ZM41.162 19.3556V17.3556H39.8647L39.3357 18.5402L41.162 19.3556ZM45.3862 19.3556L47.3285 19.8325L47.9366 17.3556H45.3862V19.3556ZM44.2025 21.738L42.6491 20.4781L42.6407 20.4885L42.6324 20.499L44.2025 21.738ZM35.8469 23.1578L34.8604 24.8975L35.8469 23.1578ZM33.5259 20.7513L35.2899 19.809L33.5259 20.7513ZM33.5027 13.4358L31.7386 12.4935L31.7331 12.5037L31.7278 12.514L33.5027 13.4358ZM35.8237 11.0294L36.8101 12.7692L35.8237 11.0294ZM42.5778 11.0053L41.6012 12.7507V12.7507L42.5778 11.0053ZM44.8523 13.3396L43.0895 14.2842L43.0951 14.2946L43.1008 14.3049L44.8523 13.3396ZM41.6262 15.7941V17.7941H43.6262V15.7941H41.6262ZM40.9299 14.1096L42.2666 12.622V12.622L40.9299 14.1096ZM37.4948 14.0856L36.1872 12.5722L36.1745 12.5832L36.162 12.5944L37.4948 14.0856ZM36.6592 15.7941L34.6804 15.5037L34.3442 17.7941H36.6592V15.7941ZM55 20.3182H57V18.3182H55V20.3182ZM55 23.8075V25.8075H57V23.8075H55ZM49.6153 22.7246L48.2634 24.1985L48.2715 24.2059L48.2796 24.2132L49.6153 22.7246ZM48.4084 13.7968H50.4084V11.7968H48.4084V13.7968ZM46.8301 13.7968H44.8301V15.7968H46.8301V13.7968ZM46.8301 10.3797V8.37968H44.8301V10.3797H46.8301ZM48.4084 10.3797V12.3797H50.4084V10.3797H48.4084ZM48.4084 7.10695V5.10695H46.4084V7.10695H48.4084ZM52.3773 7.10695H54.3773V5.10695H52.3773V7.10695ZM52.3773 10.3797H50.3773V12.3797H52.3773V10.3797ZM54.9768 10.3797H56.9768V8.37968H54.9768V10.3797ZM54.9768 13.7968V15.7968H56.9768V13.7968H54.9768ZM52.3773 13.7968V11.7968H50.3773V13.7968H52.3773ZM52.6558 20.0535L51.278 21.5032L51.278 21.5032L52.6558 20.0535ZM4 10.0668V6.24064H0V10.0668H4ZM2 8.24064H8.42917V4.24064H2V8.24064ZM6.42917 6.24064V23.8075H10.4292V6.24064H6.42917ZM8.42917 21.8075H4.29779V25.8075H8.42917V21.8075ZM6.29779 23.8075V10.0668H2.29779V23.8075H6.29779ZM4.29779 8.06684H2V12.0668H4.29779V8.06684ZM23.0741 7.8262H15.8326V11.8262H23.0741V7.8262ZM13.8326 9.8262V13.1471H17.8326V9.8262H13.8326ZM17.3364 14.4656C17.3898 14.4047 17.5349 14.2749 17.8803 14.1356L16.3845 10.4258C15.6157 10.7358 14.8943 11.1836 14.3288 11.8285L17.3364 14.4656ZM17.8803 14.1356C18.1807 14.0145 18.528 13.9439 18.9427 13.9439V9.94385C18.0577 9.94385 17.1981 10.0978 16.3845 10.4258L17.8803 14.1356ZM18.9427 13.9439C19.787 13.9439 20.3098 14.1388 20.6528 14.3856L22.9888 11.1385C21.8154 10.2944 20.4195 9.94385 18.9427 9.94385V13.9439ZM20.6684 14.3966C21.1346 14.7253 21.4555 15.1293 21.6651 15.6397L25.3651 14.1197C24.863 12.8974 24.0543 11.8896 22.9732 11.1274L20.6684 14.3966ZM21.6651 15.6397C21.9143 16.2463 22.0489 16.9244 22.0489 17.6952H26.0489C26.0489 16.4446 25.8277 15.2457 25.3651 14.1197L21.6651 15.6397ZM22.0489 17.6952C22.0489 19.1989 21.649 20.1626 21.0471 20.815L23.9871 23.5273C25.4277 21.9658 26.0489 19.9455 26.0489 17.6952H22.0489ZM21.057 20.8043C20.502 21.3972 19.6471 21.8075 18.2 21.8075V25.8075C20.4666 25.8075 22.4897 25.1269 23.9772 23.5379L21.057 20.8043ZM18.2 21.8075C17.1933 21.8075 16.4228 21.6315 15.8312 21.3508L14.1165 24.9647C15.3508 25.5503 16.731 25.8075 18.2 25.8075V21.8075ZM15.8568 21.3632C15.2432 21.0613 14.8334 20.6825 14.554 20.2389L11.1695 22.3707C11.8803 23.4993 12.8786 24.3558 14.0909 24.9523L15.8568 21.3632ZM14.554 20.2389C14.2627 19.7764 14.0798 19.2135 14.0473 18.4952L10.0514 18.6759C10.1118 20.0111 10.4705 21.2611 11.1695 22.3707L14.554 20.2389ZM12.0494 20.5856H15.9254V16.5856H12.0494V20.5856ZM13.9594 18.9526C14.1271 19.8507 14.5506 20.6522 15.2236 21.2893L17.9735 18.3845C17.9347 18.3478 17.9095 18.3151 17.8915 18.2185L13.9594 18.9526ZM15.2593 21.3223C16.0797 22.0619 17.0956 22.3182 18.0608 22.3182V18.3182C17.9214 18.3182 17.8616 18.2999 17.8563 18.2981C17.8544 18.2975 17.8642 18.3006 17.8815 18.3104C17.899 18.3205 17.9187 18.3343 17.9378 18.3515L15.2593 21.3223ZM18.0608 22.3182C19.2692 22.3182 20.478 21.8883 21.2936 20.7854L18.0774 18.4071C18.0862 18.3951 18.1037 18.375 18.1302 18.3537C18.1567 18.3323 18.1821 18.3181 18.2003 18.31C18.2363 18.294 18.2066 18.3182 18.0608 18.3182V22.3182ZM21.2936 20.7854C21.9781 19.8597 22.2193 18.7573 22.2193 17.6711H18.2193C18.2193 18.1892 18.1047 18.3702 18.0774 18.4071L21.2936 20.7854ZM22.2193 17.6711C22.2193 16.5937 21.9652 15.4452 21.156 14.5364L18.1685 17.1962C18.1021 17.1216 18.2193 17.1764 18.2193 17.6711H22.2193ZM21.156 14.5364C20.3064 13.5821 19.1525 13.2406 18.0376 13.2406V17.2406C18.2016 17.2406 18.2628 17.265 18.2588 17.2634C18.256 17.2624 18.2416 17.2563 18.2212 17.2423C18.2005 17.2282 18.1823 17.2117 18.1685 17.1962L21.156 14.5364ZM18.0376 13.2406C17.1538 13.2406 16.2515 13.4767 15.4873 14.0889L17.9883 17.2106C17.9746 17.2215 17.9598 17.2312 17.9454 17.2388C17.9311 17.2464 17.9213 17.2498 17.9185 17.2507C17.9129 17.2524 17.9467 17.2406 18.0376 17.2406V13.2406ZM15.5337 14.0528C14.8097 14.5987 14.3381 15.3449 14.1244 16.1993L18.005 17.1697C18.0099 17.1498 18.0093 17.163 17.9907 17.1915C17.9822 17.2046 17.9724 17.217 17.9624 17.2277C17.9524 17.2383 17.9448 17.2445 17.9419 17.2466L15.5337 14.0528ZM16.0647 14.6845H12.2351V18.6845H16.0647V14.6845ZM14.2351 16.6845V6.21658H10.2351V16.6845H14.2351ZM12.2351 8.21658H23.0741V4.21658H12.2351V8.21658ZM21.0741 6.21658V9.8262H25.0741V6.21658H21.0741ZM28.6032 6V23.8075H32.6032V6H28.6032ZM30.6032 21.8075H26.6343V25.8075H30.6032V21.8075ZM28.6343 23.8075V6H24.6343V23.8075H28.6343ZM26.6343 8H30.6032V4H26.6343V8ZM43.6879 16.877C43.6879 17.1819 43.6695 17.5089 43.6305 17.859L47.606 18.3014C47.6599 17.8173 47.6879 17.3422 47.6879 16.877H43.6879ZM45.6183 16.0802H36.636V20.0802H45.6183V16.0802ZM34.6415 18.2282C34.7274 19.3861 35.1047 20.5356 35.987 21.4188L38.8169 18.5919C38.8017 18.5767 38.6684 18.4428 38.6305 17.9322L34.6415 18.2282ZM36.0375 21.4676C36.8911 22.2642 37.9512 22.6551 39.0963 22.6551V18.6551C38.9107 18.6551 38.8412 18.6128 38.7664 18.5431L36.0375 21.4676ZM39.0963 22.6551C39.886 22.6551 40.694 22.48 41.4204 22.0231C42.1524 21.5626 42.6609 20.904 42.9882 20.1711L39.3357 18.5402C39.3038 18.6116 39.28 18.6423 39.2745 18.649C39.2704 18.6539 39.2762 18.6463 39.2905 18.6373C39.3042 18.6287 39.3059 18.6313 39.2828 18.6373C39.2573 18.6438 39.1987 18.6551 39.0963 18.6551V22.6551ZM41.162 21.3556H45.3862V17.3556H41.162V21.3556ZM43.4439 18.8788C43.2976 19.4745 43.0359 20.0013 42.6491 20.4781L45.7558 22.9978C46.5141 22.0629 47.0415 21.0014 47.3285 19.8325L43.4439 18.8788ZM42.6324 20.499C42.2761 20.9505 41.8221 21.3139 41.2377 21.5892L42.943 25.2076C44.0607 24.6808 45.0147 23.9372 45.7725 22.9769L42.6324 20.499ZM41.2377 21.5892C40.6834 21.8505 40.028 22 39.2355 22V26C40.5474 26 41.7952 25.7485 42.943 25.2076L41.2377 21.5892ZM39.2355 22C38.272 22 37.4895 21.79 36.8333 21.418L34.8604 24.8975C36.1848 25.6485 37.6614 26 39.2355 26V22ZM36.8333 21.418C36.1856 21.0507 35.6758 20.5312 35.2899 19.809L31.7618 21.6937C32.4901 23.057 33.5275 24.1418 34.8604 24.8975L36.8333 21.418ZM35.2899 19.809C34.9135 19.1043 34.6903 18.2199 34.6903 17.0936H30.6903C30.6903 18.7587 31.0241 20.3128 31.7618 21.6937L35.2899 19.809ZM34.6903 17.0936C34.6903 15.9587 34.9093 15.0668 35.2776 14.3576L31.7278 12.514C31.0129 13.8904 30.6903 15.437 30.6903 17.0936H34.6903ZM35.2667 14.3782C35.6525 13.6559 36.1624 13.1365 36.8101 12.7692L34.8372 9.28962C33.5043 10.0454 32.4669 11.1301 31.7386 12.4935L35.2667 14.3782ZM36.8101 12.7692C37.4627 12.3992 38.2519 12.1872 39.2355 12.1872V8.18717C37.6506 8.18717 36.1652 8.53661 34.8372 9.28962L36.8101 12.7692ZM39.2355 12.1872C40.1894 12.1872 40.9598 12.3918 41.6012 12.7507L43.5544 9.26C42.2461 8.52797 40.7883 8.18717 39.2355 8.18717V12.1872ZM41.6012 12.7507C42.2336 13.1046 42.7232 13.6005 43.0895 14.2842L46.6152 12.395C45.8984 11.0572 44.8715 9.99701 43.5544 9.26L41.6012 12.7507ZM43.1008 14.3049C43.4694 14.9738 43.6879 15.8101 43.6879 16.877H47.6879C47.6879 15.2487 47.3494 13.7267 46.6039 12.3742L43.1008 14.3049ZM43.6262 15.7941C43.6262 14.6032 43.2106 13.4703 42.2666 12.622L39.5931 15.5973C39.6041 15.6071 39.6064 15.6111 39.6049 15.609C39.6033 15.6068 39.6028 15.6052 39.6038 15.6076C39.6048 15.6101 39.6262 15.6614 39.6262 15.7941H43.6262ZM42.2666 12.622C41.392 11.8361 40.3174 11.484 39.1891 11.484V15.484C39.4534 15.484 39.5393 15.5489 39.5931 15.5973L42.2666 12.622ZM39.1891 11.484C38.0874 11.484 37.0466 11.8297 36.1872 12.5722L38.8023 15.5989C38.8714 15.5393 38.96 15.484 39.1891 15.484V11.484ZM36.162 12.5944C35.2864 13.377 34.84 14.4166 34.6804 15.5037L38.638 16.0846C38.6951 15.6957 38.8057 15.5963 38.8276 15.5767L36.162 12.5944ZM36.6592 17.7941H41.6262V13.7941H36.6592V17.7941ZM53 20.3182V23.8075H57V20.3182H53ZM55 21.8075H52.9807V25.8075H55V21.8075ZM52.9807 21.8075C51.8687 21.8075 51.2813 21.5324 50.9509 21.236L48.2796 24.2132C49.5584 25.3606 51.2148 25.8075 52.9807 25.8075V21.8075ZM50.9671 21.2507C50.748 21.0497 50.4084 20.5182 50.4084 19.139H46.4084C46.4084 21.0646 46.8733 22.9235 48.2634 24.1985L50.9671 21.2507ZM50.4084 19.139V13.7968H46.4084V19.139H50.4084ZM48.4084 11.7968H46.8301V15.7968H48.4084V11.7968ZM48.8301 13.7968V10.3797H44.8301V13.7968H48.8301ZM46.8301 12.3797H48.4084V8.37968H46.8301V12.3797ZM50.4084 10.3797V7.10695H46.4084V10.3797H50.4084ZM48.4084 9.10695H52.3773V5.10695H48.4084V9.10695ZM50.3773 7.10695V10.3797H54.3773V7.10695H50.3773ZM52.3773 12.3797H54.9768V8.37968H52.3773V12.3797ZM52.9768 10.3797V13.7968H56.9768V10.3797H52.9768ZM54.9768 11.7968H52.3773V15.7968H54.9768V11.7968ZM50.3773 13.7968V19.1872H54.3773V13.7968H50.3773ZM50.3773 19.1872C50.3773 19.8329 50.5187 20.7815 51.278 21.5032L54.0336 18.6038C54.2246 18.7853 54.3137 18.9767 54.3509 19.0924C54.3848 19.1979 54.3773 19.2427 54.3773 19.1872H50.3773ZM51.278 21.5032C52.0206 22.209 52.9687 22.3182 53.5842 22.3182V18.3182C53.4934 18.3182 53.5024 18.3078 53.5755 18.3287C53.6536 18.3509 53.8399 18.4196 54.0336 18.6038L51.278 21.5032ZM53.5842 22.3182H55V18.3182H53.5842V22.3182Z" fill="white" mask="url(#path-1-outside-1_634_7635)"/>
</svg>
