<svg width="30" height="30" viewBox="0 0 30 30" fill="none" xmlns="http://www.w3.org/2000/svg">
<path d="M10.625 6.875C10.2935 6.875 9.97554 7.0067 9.74112 7.24112C9.5067 7.47554 9.375 7.79348 9.375 8.125C9.375 8.45652 9.5067 8.77446 9.74112 9.00888C9.97554 9.2433 10.2935 9.375 10.625 9.375C10.9565 9.375 11.2745 9.2433 11.5089 9.00888C11.7433 8.77446 11.875 8.45652 11.875 8.125C11.875 7.79348 11.7433 7.47554 11.5089 7.24112C11.2745 7.0067 10.9565 6.875 10.625 6.875ZM9.375 16.875C9.375 16.5435 9.5067 16.2255 9.74112 15.9911C9.97554 15.7567 10.2935 15.625 10.625 15.625C10.9565 15.625 11.2745 15.7567 11.5089 15.9911C11.7433 16.2255 11.875 16.5435 11.875 16.875C11.875 17.2065 11.7433 17.5245 11.5089 17.7589C11.2745 17.9933 10.9565 18.125 10.625 18.125C10.2935 18.125 9.97554 17.9933 9.74112 17.7589C9.5067 17.5245 9.375 17.2065 9.375 16.875ZM10.625 11.25C10.2935 11.25 9.97554 11.3817 9.74112 11.6161C9.5067 11.8505 9.375 12.1685 9.375 12.5C9.375 12.8315 9.5067 13.1495 9.74112 13.3839C9.97554 13.6183 10.2935 13.75 10.625 13.75C10.9565 13.75 11.2745 13.6183 11.5089 13.3839C11.7433 13.1495 11.875 12.8315 11.875 12.5C11.875 12.1685 11.7433 11.8505 11.5089 11.6161C11.2745 11.3817 10.9565 11.25 10.625 11.25ZM13.75 8.125C13.75 7.79348 13.8817 7.47554 14.1161 7.24112C14.3505 7.0067 14.6685 6.875 15 6.875C15.3315 6.875 15.6495 7.0067 15.8839 7.24112C16.1183 7.47554 16.25 7.79348 16.25 8.125C16.25 8.45652 16.1183 8.77446 15.8839 9.00888C15.6495 9.2433 15.3315 9.375 15 9.375C14.6685 9.375 14.3505 9.2433 14.1161 9.00888C13.8817 8.77446 13.75 8.45652 13.75 8.125ZM15 15.625C14.6685 15.625 14.3505 15.7567 14.1161 15.9911C13.8817 16.2255 13.75 16.5435 13.75 16.875C13.75 17.2065 13.8817 17.5245 14.1161 17.7589C14.3505 17.9933 14.6685 18.125 15 18.125C15.3315 18.125 15.6495 17.9933 15.8839 17.7589C16.1183 17.5245 16.25 17.2065 16.25 16.875C16.25 16.5435 16.1183 16.2255 15.8839 15.9911C15.6495 15.7567 15.3315 15.625 15 15.625ZM18.125 16.875C18.125 16.5435 18.2567 16.2255 18.4911 15.9911C18.7255 15.7567 19.0435 15.625 19.375 15.625C19.7065 15.625 20.0245 15.7567 20.2589 15.9911C20.4933 16.2255 20.625 16.5435 20.625 16.875C20.625 17.2065 20.4933 17.5245 20.2589 17.7589C20.0245 17.9933 19.7065 18.125 19.375 18.125C19.0435 18.125 18.7255 17.9933 18.4911 17.7589C18.2567 17.5245 18.125 17.2065 18.125 16.875ZM15 11.25C14.6685 11.25 14.3505 11.3817 14.1161 11.6161C13.8817 11.8505 13.75 12.1685 13.75 12.5C13.75 12.8315 13.8817 13.1495 14.1161 13.3839C14.3505 13.6183 14.6685 13.75 15 13.75C15.3315 13.75 15.6495 13.6183 15.8839 13.3839C16.1183 13.1495 16.25 12.8315 16.25 12.5C16.25 12.1685 16.1183 11.8505 15.8839 11.6161C15.6495 11.3817 15.3315 11.25 15 11.25ZM7.8125 2.5C7.06658 2.5 6.35121 2.79632 5.82376 3.32376C5.29632 3.85121 5 4.56658 5 5.3125V25.9375C5 26.455 5.42 26.875 5.9375 26.875H24.0663C24.3149 26.875 24.5534 26.7762 24.7292 26.6004C24.905 26.4246 25.0038 26.1861 25.0038 25.9375V14.6875C25.0038 14.3182 24.931 13.9524 24.7897 13.6112C24.6483 13.27 24.4412 12.9599 24.18 12.6988C23.9188 12.4376 23.6088 12.2304 23.2675 12.0891C22.9263 11.9477 22.5606 11.875 22.1913 11.875H20.625V5.3125C20.625 4.56658 20.3287 3.85121 19.8012 3.32376C19.2738 2.79632 18.5584 2.5 17.8125 2.5H7.8125ZM6.875 5.3125C6.875 5.06386 6.97377 4.8254 7.14959 4.64959C7.3254 4.47377 7.56386 4.375 7.8125 4.375H17.8125C18.0611 4.375 18.2996 4.47377 18.4754 4.64959C18.6512 4.8254 18.75 5.06386 18.75 5.3125V12.8125C18.75 13.33 19.17 13.75 19.6875 13.75H22.1913C22.4399 13.75 22.6784 13.8488 22.8542 14.0246C23.03 14.2004 23.1288 14.4389 23.1288 14.6875V25H20.625V21.5625C20.625 21.3139 20.5262 21.0754 20.3504 20.8996C20.1746 20.7238 19.9361 20.625 19.6875 20.625H10.3125C10.0639 20.625 9.8254 20.7238 9.64959 20.8996C9.47377 21.0754 9.375 21.3139 9.375 21.5625V25H6.875V5.3125ZM18.75 22.5V25H15.9375V22.5H18.75ZM14.0625 22.5V25H11.25V22.5H14.0625Z" fill="white"/>
</svg>
