<svg width="30" height="30" viewBox="0 0 30 30" fill="none" xmlns="http://www.w3.org/2000/svg">
<path d="M8.4375 10.7812H5.65676C5.93004 14.8355 7.98879 17.791 11.25 19.0353V16.875H18.75V19.0353C22.0111 17.791 24.07 14.8355 24.3432 10.7812H21.5625V3.28125H29.0625V10.7812H26.2224C26.047 13.7329 25.0363 16.2816 23.2727 18.1955C22.4115 19.1313 21.3796 19.8943 20.2324 20.4434L23.0977 21.3984C23.2458 21.2031 23.4149 21.0246 23.602 20.8662C23.9348 20.5849 24.3198 20.3719 24.7349 20.2394C25.15 20.1069 25.5871 20.0574 26.0213 20.0938C26.4556 20.1303 26.8784 20.2518 27.2656 20.4517C27.6528 20.6515 27.9969 20.9256 28.2782 21.2584C28.6862 21.7412 28.9478 22.3305 29.0323 22.957C29.1167 23.5835 29.0205 24.221 28.7549 24.7946C28.4893 25.3683 28.0654 25.8541 27.533 26.195C27.0007 26.5358 26.382 26.7175 25.7499 26.7188C25.6562 26.7188 25.5619 26.7148 25.4671 26.707C24.5955 26.6341 23.788 26.2199 23.2203 25.5545C22.6526 24.8891 22.3707 24.0265 22.436 23.1543L18.75 21.9258V24.375H11.25V21.9258L7.56446 23.1541C7.57723 23.3285 7.57639 23.5036 7.56194 23.6779C7.49237 24.5059 7.11469 25.2777 6.50354 25.8408C5.8924 26.4038 5.09227 26.7171 4.26129 26.7188C4.16754 26.7188 4.07324 26.7148 3.9784 26.707C3.43463 26.6614 2.91049 26.4824 2.45242 26.1859C1.99434 25.8894 1.61648 25.4844 1.35229 25.007C1.08809 24.5295 0.945734 23.9942 0.937815 23.4486C0.929895 22.903 1.05666 22.3638 1.30689 21.8789C1.55711 21.394 1.92307 20.9782 2.37234 20.6685C2.82162 20.3588 3.34034 20.1647 3.88256 20.1033C4.42478 20.042 4.97377 20.1153 5.48088 20.3168C5.988 20.5183 6.4376 20.8418 6.78984 21.2585C6.82863 21.3043 6.86602 21.3512 6.90176 21.3987L9.76758 20.4434C8.62035 19.8943 7.5884 19.1314 6.72709 18.1955C4.96342 16.2816 3.95279 13.7329 3.77742 10.7812H0.937502V3.28125H8.4375V10.7812ZM27.1875 8.90625V5.15625H23.4375V8.90625H27.1875ZM24.6422 24.3322C24.8893 24.6245 25.2424 24.8067 25.6238 24.8387C26.0052 24.8707 26.3837 24.7498 26.676 24.5027C26.9683 24.2556 27.1505 23.9026 27.1824 23.5212C27.2144 23.1397 27.0936 22.7613 26.8465 22.4689C26.7245 22.3238 26.5749 22.2043 26.4064 22.1174C26.2379 22.0304 26.0539 21.9778 25.8649 21.9625C25.8238 21.9591 25.7828 21.9573 25.7419 21.9573C25.4669 21.9578 25.1978 22.0368 24.9662 22.185C24.7347 22.3333 24.5503 22.5446 24.4347 22.7941C24.3192 23.0436 24.2774 23.3209 24.3141 23.5934C24.3509 23.8659 24.4647 24.1222 24.6422 24.3322ZM13.125 22.5H16.875V18.75H13.125V22.5ZM5.35781 22.469C5.23582 22.3239 5.08626 22.2044 4.91777 22.1174C4.74928 22.0305 4.56522 21.9778 4.37625 21.9625C4.33512 21.9591 4.2941 21.9574 4.25321 21.9574C3.92453 21.9578 3.60586 22.0705 3.34988 22.2766C3.0939 22.4828 2.91595 22.7702 2.84545 23.0912C2.77494 23.4122 2.81611 23.7477 2.96214 24.0421C3.10817 24.3366 3.35032 24.5724 3.64855 24.7106C3.94678 24.8487 4.28323 24.881 4.60227 24.802C4.92131 24.723 5.20383 24.5374 5.40313 24.2761C5.60242 24.0147 5.70656 23.6932 5.69831 23.3646C5.69006 23.036 5.56992 22.7201 5.35776 22.4691L5.35781 22.469ZM6.5625 5.15625H2.8125V8.90625H6.5625V5.15625Z" fill="white"/>
</svg>
