<svg width="381" height="51" viewBox="0 0 381 51" fill="none" xmlns="http://www.w3.org/2000/svg">
<rect x="380.004" y="0.0371094" width="50" height="380" transform="rotate(90.0056 380.004 0.0371094)" fill="#59DC8E"/>
<path d="M103.794 25.5623C103.794 23.8983 104.154 22.4184 104.874 21.1224C105.594 19.8105 106.595 18.7946 107.875 18.0747C109.171 17.3389 110.635 16.971 112.267 16.9712C114.267 16.9713 115.979 17.4995 117.403 18.5557C118.826 19.6118 119.778 21.0519 120.258 22.8759L115.746 22.8755C115.41 22.1715 114.93 21.6354 114.306 21.2674C113.698 20.8993 113.002 20.7152 112.218 20.7151C110.954 20.715 109.93 21.1549 109.146 22.0349C108.362 22.9148 107.97 24.0907 107.97 25.5627C107.97 27.0347 108.362 28.2108 109.146 29.0909C109.929 29.9709 110.953 30.411 112.217 30.4111C113.001 30.4112 113.697 30.2273 114.305 29.8594C114.93 29.4914 115.41 28.9555 115.746 28.2515L120.258 28.2519C119.777 30.0759 118.825 31.5158 117.401 32.5717C115.977 33.6115 114.265 34.1313 112.265 34.1312C110.633 34.131 109.169 33.7709 107.873 33.0507C106.593 32.3146 105.593 31.2985 104.873 30.0024C104.154 28.7064 103.794 27.2263 103.794 25.5623ZM130.738 34.181C129.154 34.1808 127.698 33.8127 126.37 33.0765C125.058 32.3404 124.011 31.3163 123.227 30.0042C122.459 28.6761 122.075 27.1881 122.075 25.5401C122.075 23.8921 122.459 22.4121 123.228 21.1002C124.012 19.7883 125.06 18.7644 126.372 18.0285C127.7 17.2927 129.156 16.9248 130.74 16.925C132.324 16.9251 133.772 17.2932 135.084 18.0294C136.412 18.7655 137.452 19.7896 138.204 21.1017C138.971 22.4138 139.355 23.8938 139.355 25.5418C139.355 27.1898 138.971 28.6778 138.203 30.0057C137.435 31.3176 136.394 32.3415 135.082 33.0774C133.77 33.8132 132.322 34.1811 130.738 34.181ZM130.739 30.437C132.083 30.4371 133.155 29.9892 133.955 29.0933C134.771 28.1973 135.179 27.0134 135.179 25.5414C135.179 24.0534 134.771 22.8693 133.956 21.9893C133.156 21.0932 132.084 20.6451 130.74 20.6449C129.38 20.6448 128.292 21.0847 127.476 21.9646C126.675 22.8446 126.275 24.0365 126.275 25.5405C126.275 27.0285 126.675 28.2206 127.475 29.1166C128.291 29.9967 129.379 30.4368 130.739 30.437ZM154.691 34.1833C153.107 34.1831 151.651 33.815 150.324 33.0789C149.012 32.3427 147.964 31.3186 147.18 30.0065C146.412 28.6785 146.028 27.1904 146.028 25.5424C146.028 23.8944 146.413 22.4145 147.181 21.1025C147.965 19.7906 149.013 18.7667 150.325 18.0309C151.653 17.295 153.109 16.9271 154.693 16.9273C156.277 16.9274 157.725 17.2956 159.037 18.0317C160.365 18.7678 161.405 19.7919 162.157 21.104C162.925 22.4161 163.308 23.8961 163.308 25.5441C163.308 27.1921 162.924 28.6801 162.156 30.008C161.388 31.3199 160.348 32.3438 159.036 33.0797C157.723 33.8156 156.275 34.1834 154.691 34.1833ZM154.692 30.4393C156.036 30.4394 157.108 29.9915 157.908 29.0956C158.724 28.1997 159.132 27.0157 159.132 25.5437C159.132 24.0557 158.725 22.8717 157.909 21.9916C157.109 21.0955 156.037 20.6474 154.693 20.6473C153.333 20.6471 152.245 21.087 151.429 21.967C150.629 22.8469 150.228 24.0388 150.228 25.5428C150.228 27.0308 150.628 28.2229 151.428 29.119C152.244 29.999 153.332 30.4391 154.692 30.4393ZM183.518 22.5941C183.518 23.5701 183.294 24.4661 182.845 25.282C182.397 26.082 181.709 26.7299 180.781 27.2258C179.853 27.7217 178.701 27.9696 177.325 27.9695L174.781 27.9692L174.781 34.0172L170.677 34.0168L170.678 17.1688L177.326 17.1695C178.67 17.1696 179.806 17.4017 180.734 17.8658C181.662 18.3299 182.358 18.97 182.822 19.786C183.286 20.6021 183.518 21.5381 183.518 22.5941ZM177.013 24.7055C177.797 24.7055 178.382 24.5216 178.766 24.1536C179.15 23.7857 179.342 23.2657 179.342 22.5937C179.342 21.9217 179.15 21.4017 178.766 21.0336C178.382 20.6656 177.798 20.4815 177.014 20.4815L174.782 20.4812L174.781 24.7052L177.013 24.7055ZM194.245 34.0191L190.742 27.6588L189.758 27.6587L189.757 34.0187L185.653 34.0183L185.655 17.1703L192.543 17.171C193.871 17.1711 194.999 17.4032 195.927 17.8673C196.871 18.3314 197.575 18.9714 198.039 19.7875C198.502 20.5875 198.734 21.4836 198.734 22.4756C198.734 23.5956 198.414 24.5955 197.774 25.4755C197.15 26.3554 196.222 26.9793 194.99 27.3472L198.877 34.0196L194.245 34.0191ZM189.758 24.7547L192.302 24.7549C193.054 24.755 193.614 24.5711 193.982 24.2031C194.366 23.8351 194.558 23.3152 194.558 22.6432C194.558 22.0032 194.366 21.4991 193.982 21.1311C193.614 20.7631 193.054 20.579 192.302 20.5789L189.758 20.5787L189.758 24.7547ZM209.277 34.1886C207.693 34.1884 206.237 33.8203 204.909 33.0842C203.598 32.348 202.55 31.3239 201.766 30.0119C200.998 28.6838 200.614 27.1957 200.614 25.5477C200.614 23.8997 200.999 22.4198 201.767 21.1079C202.551 19.7959 203.599 18.772 204.911 18.0362C206.239 17.3003 207.695 16.9324 209.279 16.9326C210.863 16.9327 212.311 17.3009 213.623 18.037C214.951 18.7731 215.991 19.7972 216.743 21.1093C217.511 22.4214 217.894 23.9014 217.894 25.5494C217.894 27.1974 217.51 28.6854 216.742 30.0133C215.974 31.3252 214.934 32.3491 213.621 33.085C212.309 33.8209 210.861 34.1887 209.277 34.1886ZM209.278 30.4446C210.622 30.4447 211.694 29.9968 212.494 29.1009C213.31 28.205 213.718 27.021 213.718 25.549C213.718 24.061 213.31 22.877 212.495 21.9969C211.695 21.1008 210.623 20.6527 209.279 20.6526C207.919 20.6525 206.831 21.0923 206.015 21.9723C205.214 22.8522 204.814 24.0442 204.814 25.5482C204.814 27.0362 205.214 28.2282 206.014 29.1243C206.83 30.0043 207.918 30.4445 209.278 30.4446ZM230.738 17.1747L230.737 28.6467C230.737 30.4227 230.233 31.7906 229.225 32.7505C228.233 33.7104 226.889 34.1903 225.193 34.1901C223.417 34.19 221.993 33.6858 220.921 32.6777C219.849 31.6696 219.313 30.2376 219.313 28.3816L223.393 28.382C223.393 29.086 223.537 29.622 223.825 29.99C224.113 30.342 224.529 30.5181 225.073 30.5181C225.569 30.5182 225.953 30.3582 226.225 30.0382C226.497 29.7183 226.633 29.2543 226.633 28.6463L226.634 17.1743L230.738 17.1747ZM238.157 20.4634L238.157 23.8714L243.653 23.8719L243.652 27.0399L238.156 27.0394L238.156 30.7354L244.372 30.736L244.372 34.024L234.052 34.023L234.053 17.175L244.373 17.176L244.373 20.464L238.157 20.4634ZM256.804 34.0252L251.141 26.5847L251.14 34.0247L247.036 34.0243L247.038 17.1763L251.142 17.1767L251.141 24.5687L256.758 17.1772L261.582 17.1777L255.053 25.433L261.82 34.0257L256.804 34.0252ZM275.892 17.1791L275.892 20.4671L271.428 20.4666L271.426 34.0266L267.322 34.0262L267.324 20.4662L262.86 20.4658L262.86 17.1778L275.892 17.1791ZM281.984 17.1797L281.983 27.2597C281.983 28.2677 282.231 29.0437 282.726 29.5877C283.222 30.1318 283.95 30.4038 284.91 30.4039C285.87 30.404 286.606 30.1321 287.118 29.5882C287.631 29.0442 287.887 28.2682 287.887 27.2602L287.888 17.1802L291.992 17.1806L291.991 27.2366C291.991 28.7406 291.67 30.0126 291.03 31.0525C290.39 32.0925 289.526 32.8764 288.438 33.4043C287.366 33.9322 286.166 34.1961 284.838 34.1959C283.51 34.1958 282.318 33.9397 281.262 33.4276C280.222 32.8995 279.398 32.1154 278.79 31.0753C278.182 30.0193 277.879 28.7393 277.879 27.2353L277.88 17.1793L281.984 17.1797ZM308.55 34.0302L305.046 27.6699L304.062 27.6698L304.062 34.0298L299.958 34.0294L299.959 17.1814L306.847 17.1821C308.175 17.1822 309.303 17.4143 310.231 17.8784C311.175 18.3425 311.879 18.9826 312.343 19.7986C312.807 20.5987 313.039 21.4947 313.039 22.4867C313.039 23.6067 312.719 24.6066 312.079 25.4866C311.455 26.3665 310.527 26.9904 309.294 27.3583L313.182 34.0307L308.55 34.0302ZM304.063 24.7658L306.607 24.7661C307.359 24.7661 307.919 24.5822 308.287 24.2142C308.671 23.8463 308.863 23.3263 308.863 22.6543C308.863 22.0143 308.671 21.5103 308.287 21.1422C307.919 20.7742 307.359 20.5901 306.607 20.5901L304.063 20.5898L304.063 24.7658ZM309.896 14.3264L306.176 16.222L302.456 14.3256L302.456 11.4936L306.176 13.582L309.896 11.4944L309.896 14.3264ZM319.72 17.1833L319.718 34.0313L315.614 34.0309L315.616 17.1829L319.72 17.1833ZM320.464 13.7994L314.68 16.2228L314.68 13.3908L320.464 10.6074L320.464 13.7994ZM332.46 34.0326L326.797 26.592L326.796 34.032L322.692 34.0316L322.694 17.1836L326.798 17.184L326.797 24.576L332.414 17.1846L337.238 17.185L330.709 25.4404L337.476 34.0331L332.46 34.0326ZM349.915 31.0583L343.627 31.0577L342.619 34.0336L338.323 34.0331L344.42 17.1857L349.172 17.1862L355.267 34.0348L350.923 34.0344L349.915 31.0583ZM348.859 27.8902L346.772 21.722L344.707 27.8898L348.859 27.8902ZM349.581 13.8022L343.796 16.2257L343.797 13.3937L349.581 10.6102L349.581 13.8022Z" fill="#222E27"/>
</svg>
