<svg width="50" height="380" viewBox="0 0 50 380" fill="none" xmlns="http://www.w3.org/2000/svg">
<rect width="50" height="380" fill="#59DC8E"/>
<path d="M25.552 276.208C23.888 276.208 22.408 275.848 21.112 275.128C19.8 274.408 18.784 273.408 18.064 272.128C17.328 270.832 16.96 269.368 16.96 267.736C16.96 265.736 17.488 264.024 18.544 262.6C19.6 261.176 21.04 260.224 22.864 259.744L22.864 264.256C22.16 264.592 21.624 265.072 21.256 265.696C20.888 266.304 20.704 267 20.704 267.784C20.704 269.048 21.144 270.072 22.024 270.856C22.904 271.64 24.08 272.032 25.552 272.032C27.024 272.032 28.2 271.64 29.08 270.856C29.96 270.072 30.4 269.048 30.4 267.784C30.4 267 30.216 266.304 29.848 265.696C29.48 265.072 28.944 264.592 28.24 264.256L28.24 259.744C30.064 260.224 31.504 261.176 32.56 262.6C33.6 264.024 34.12 265.736 34.12 267.736C34.12 269.368 33.76 270.832 33.04 272.128C32.304 273.408 31.288 274.408 29.992 275.128C28.696 275.848 27.216 276.208 25.552 276.208ZM34.168 249.263C34.168 250.847 33.8 252.303 33.064 253.631C32.328 254.943 31.304 255.991 29.992 256.775C28.664 257.543 27.176 257.927 25.528 257.927C23.88 257.927 22.4 257.543 21.088 256.775C19.776 255.991 18.752 254.943 18.016 253.631C17.28 252.303 16.912 250.847 16.912 249.263C16.912 247.679 17.28 246.231 18.016 244.919C18.752 243.591 19.776 242.551 21.088 241.799C22.4 241.031 23.88 240.647 25.528 240.647C27.176 240.647 28.664 241.031 29.992 241.799C31.304 242.567 32.328 243.607 33.064 244.919C33.8 246.231 34.168 247.679 34.168 249.263ZM30.424 249.263C30.424 247.919 29.976 246.847 29.08 246.047C28.184 245.231 27 244.823 25.528 244.823C24.04 244.823 22.856 245.231 21.976 246.047C21.08 246.847 20.632 247.919 20.632 249.263C20.632 250.623 21.072 251.711 21.952 252.527C22.832 253.327 24.024 253.727 25.528 253.727C27.016 253.727 28.208 253.327 29.104 252.527C29.984 251.711 30.424 250.623 30.424 249.263ZM34.168 225.31C34.168 226.894 33.8 228.35 33.064 229.678C32.328 230.99 31.304 232.038 29.992 232.822C28.664 233.59 27.176 233.974 25.528 233.974C23.88 233.974 22.4 233.59 21.088 232.822C19.776 232.038 18.752 230.99 18.016 229.678C17.28 228.35 16.912 226.894 16.912 225.31C16.912 223.726 17.28 222.278 18.016 220.966C18.752 219.638 19.776 218.598 21.088 217.846C22.4 217.078 23.88 216.694 25.528 216.694C27.176 216.694 28.664 217.078 29.992 217.846C31.304 218.614 32.328 219.654 33.064 220.966C33.8 222.278 34.168 223.726 34.168 225.31ZM30.424 225.31C30.424 223.966 29.976 222.894 29.08 222.094C28.184 221.278 27 220.87 25.528 220.87C24.04 220.87 22.856 221.278 21.976 222.094C21.08 222.894 20.632 223.966 20.632 225.31C20.632 226.67 21.072 227.758 21.952 228.574C22.832 229.374 24.024 229.774 25.528 229.774C27.016 229.774 28.208 229.374 29.104 228.574C29.984 227.758 30.424 226.67 30.424 225.31ZM22.576 196.485C23.552 196.485 24.448 196.709 25.264 197.157C26.064 197.605 26.712 198.293 27.208 199.221C27.704 200.148 27.952 201.3 27.952 202.676L27.952 205.221L34 205.221L34 209.325L17.152 209.325L17.152 202.676C17.152 201.332 17.384 200.196 17.848 199.268C18.312 198.34 18.952 197.644 19.768 197.18C20.584 196.716 21.52 196.485 22.576 196.485ZM24.688 202.989C24.688 202.204 24.504 201.62 24.136 201.236C23.768 200.852 23.248 200.661 22.576 200.661C21.904 200.661 21.384 200.852 21.016 201.236C20.648 201.62 20.464 202.204 20.464 202.989L20.464 205.22L24.688 205.22L24.688 202.989ZM34 185.756L27.64 189.26L27.64 190.244L34 190.244L34 194.348L17.152 194.348L17.152 187.46C17.152 186.132 17.384 185.004 17.848 184.076C18.312 183.132 18.952 182.428 19.768 181.964C20.568 181.5 21.464 181.268 22.456 181.268C23.576 181.268 24.576 181.588 25.456 182.228C26.336 182.852 26.96 183.78 27.328 185.012L34 181.124L34 185.756ZM24.736 190.244L24.736 187.7C24.736 186.948 24.552 186.388 24.184 186.02C23.816 185.636 23.296 185.444 22.624 185.444C21.984 185.444 21.48 185.636 21.112 186.02C20.744 186.388 20.56 186.948 20.56 187.7L20.56 190.244L24.736 190.244ZM34.168 170.724C34.168 172.308 33.8 173.764 33.064 175.092C32.328 176.404 31.304 177.452 29.992 178.236C28.664 179.004 27.176 179.388 25.528 179.388C23.88 179.388 22.4 179.004 21.088 178.236C19.776 177.452 18.752 176.404 18.016 175.092C17.28 173.764 16.912 172.308 16.912 170.724C16.912 169.14 17.28 167.692 18.016 166.38C18.752 165.052 19.776 164.012 21.088 163.26C22.4 162.492 23.88 162.108 25.528 162.108C27.176 162.108 28.664 162.492 29.992 163.26C31.304 164.028 32.328 165.068 33.064 166.38C33.8 167.692 34.168 169.14 34.168 170.724ZM30.424 170.724C30.424 169.38 29.976 168.308 29.08 167.508C28.184 166.692 27 166.284 25.528 166.284C24.04 166.284 22.856 166.692 21.976 167.508C21.08 168.308 20.632 169.38 20.632 170.724C20.632 172.084 21.072 173.172 21.952 173.988C22.832 174.788 24.024 175.188 25.528 175.188C27.016 175.188 28.208 174.788 29.104 173.988C29.984 173.172 30.424 172.084 30.424 170.724ZM17.152 149.264L28.624 149.264C30.4 149.264 31.768 149.768 32.728 150.777C33.688 151.769 34.168 153.113 34.168 154.808C34.168 156.584 33.664 158.009 32.656 159.081C31.648 160.153 30.216 160.689 28.36 160.689L28.36 156.609C29.064 156.609 29.6 156.465 29.968 156.176C30.32 155.889 30.496 155.473 30.496 154.929C30.496 154.432 30.336 154.048 30.016 153.777C29.696 153.504 29.232 153.368 28.624 153.368L17.152 153.368L17.152 149.264ZM20.44 141.845L23.848 141.845L23.848 136.349L27.016 136.349L27.016 141.846L30.712 141.846L30.712 135.629L34 135.63L34 145.95L17.152 145.95L17.152 135.629L20.44 135.629L20.44 141.845ZM34 123.197L26.56 128.861L34 128.861L34 132.965L17.152 132.965L17.152 128.861L24.544 128.861L17.152 123.245L17.152 118.421L25.408 124.949L34 118.181L34 123.197ZM17.152 104.111L20.44 104.111L20.44 108.575L34 108.575L34 112.679L20.44 112.679L20.44 117.143L17.152 117.143L17.152 104.111ZM17.152 98.0191L27.232 98.0191C28.24 98.0191 29.016 97.7711 29.56 97.2751C30.104 96.7791 30.376 96.0511 30.376 95.0911C30.376 94.1311 30.104 93.3951 29.56 92.8831C29.016 92.3711 28.24 92.1151 27.232 92.1151L17.152 92.1151L17.152 88.0111L27.208 88.0111C28.712 88.0111 29.984 88.3311 31.024 88.9711C32.064 89.6111 32.848 90.4751 33.376 91.5631C33.904 92.6351 34.168 93.8351 34.168 95.1631C34.168 96.4911 33.912 97.6831 33.4 98.7391C32.872 99.7791 32.088 100.603 31.048 101.211C29.992 101.819 28.712 102.123 27.208 102.123L17.152 102.123L17.152 98.0191ZM34 71.4512L27.64 74.9552L27.64 75.9393L34 75.9393L34 80.0433L17.152 80.0433L17.152 73.1552C17.152 71.8272 17.384 70.6992 17.848 69.7712C18.312 68.8272 18.952 68.1232 19.768 67.6592C20.568 67.1952 21.464 66.9632 22.456 66.9632C23.576 66.9632 24.576 67.2832 25.456 67.9232C26.336 68.5473 26.96 69.4753 27.328 70.7072L34 66.8192L34 71.4512ZM24.736 75.9392L24.736 73.3952C24.736 72.6432 24.552 72.0833 24.184 71.7153C23.816 71.3312 23.296 71.1392 22.624 71.1392C21.984 71.1392 21.48 71.3312 21.112 71.7152C20.744 72.0832 20.56 72.6432 20.56 73.3952L20.56 75.9392L24.736 75.9392ZM14.296 70.1072L16.192 73.8272L14.296 77.5472L11.464 77.5472L13.552 73.8272L11.464 70.1072L14.296 70.1072ZM17.152 60.283L34 60.283L34 64.387L17.152 64.387L17.152 60.283ZM13.768 59.539L16.192 65.323L13.36 65.323L10.576 59.539L13.768 59.539ZM34 47.5409L26.56 53.2049L34 53.2049L34 57.3089L17.152 57.3089L17.152 53.2049L24.544 53.2049L17.152 47.5889L17.152 42.7649L25.408 49.2929L34 42.5249L34 47.5409ZM31.024 30.0865L31.024 36.3745L34 37.3825L34 41.6785L17.152 35.5825L17.152 30.8305L34 24.7345L34 29.0785L31.024 30.0865ZM27.856 31.1425L21.688 33.2305L27.856 35.2945L27.856 31.1425ZM13.768 30.4225L16.192 36.2065L13.36 36.2065L10.576 30.4225L13.768 30.4225Z" fill="#222E27"/>
</svg>
