<svg width="146" height="149" viewBox="0 0 146 149" fill="none" xmlns="http://www.w3.org/2000/svg">
<path d="M14 9L5 0L0 9H14Z" fill="black"/>
<path d="M62.2174 0H29.0109H5L146 142V82.2898L62.2174 0Z" fill="#222E27"/>
<path d="M51.3154 25.1283L49.8827 23.6592L51.2062 17.5744L47.4864 21.2023L46.0537 19.7333L52.0844 13.8516L53.5171 15.3206L52.1764 21.4222L55.9134 17.7775L57.3461 19.2465L51.3154 25.1283Z" fill="white"/>
<path d="M58.6405 22.9282L57.4206 24.118L59.3393 26.0852L58.2053 27.1912L56.2866 25.2239L54.9636 26.5142L57.1337 28.7392L55.9568 29.8871L52.354 26.1931L58.3847 20.3114L61.9874 24.0054L60.8105 25.1532L58.6405 22.9282Z" fill="white"/>
<path d="M66.6041 28.739L62.4978 32.7439C61.8621 33.3639 61.1965 33.6611 60.5009 33.6354C59.811 33.6155 59.17 33.302 58.5779 32.6949C57.9579 32.0592 57.6412 31.3735 57.6277 30.6379C57.6143 29.9023 57.9398 29.2105 58.6041 28.5626L60.0285 30.023C59.7765 30.2688 59.6349 30.5074 59.6037 30.739C59.5782 30.965 59.6605 31.1753 59.8504 31.37C60.0235 31.5476 60.2149 31.6292 60.4244 31.6148C60.6339 31.6005 60.8474 31.4872 61.0651 31.2749L65.1714 27.2699L66.6041 28.739Z" fill="white"/>
<path d="M70.3025 36.4151C69.9531 36.7558 69.5542 36.9885 69.1057 37.113C68.6629 37.2319 68.1908 37.2119 67.6893 37.0528C67.1878 36.8938 66.6968 36.568 66.2165 36.0755L65.3283 35.1649L63.1635 37.2763L61.7308 35.8073L67.7614 29.9255L70.0823 32.3052C70.5515 32.7862 70.865 33.2739 71.0229 33.768C71.1808 34.2622 71.1947 34.7347 71.0646 35.1857C70.9345 35.6366 70.6804 36.0465 70.3025 36.4151ZM67.2759 34.8243C67.5496 35.105 67.8193 35.2498 68.0851 35.2588C68.3509 35.2677 68.604 35.1549 68.8446 34.9203C69.0851 34.6857 69.2042 34.4355 69.2019 34.1696C69.1996 33.9036 69.0615 33.6304 68.7878 33.3497L68.0086 32.5508L66.4967 34.0254L67.2759 34.8243Z" fill="white"/>
<path d="M69.6807 44.0788C69.1277 43.5118 68.7512 42.8622 68.551 42.1299C68.3564 41.4033 68.3571 40.6707 68.553 39.9321C68.7602 39.1936 69.1588 38.5366 69.7487 37.9613C70.3386 37.386 71.0024 37.0068 71.7402 36.8236C72.4835 36.6462 73.2159 36.6639 73.9374 36.8766C74.6644 37.095 75.3044 37.4877 75.8574 38.0547C76.4104 38.6216 76.7842 39.2684 76.9788 39.995C77.1789 40.7273 77.1755 41.457 76.9684 42.1842C76.7669 42.9172 76.3712 43.5713 75.7813 44.1466C75.1914 44.7219 74.5247 45.104 73.7812 45.2927C73.0435 45.4758 72.3139 45.461 71.5924 45.2483C70.8709 45.0357 70.2337 44.6458 69.6807 44.0788ZM71.0209 42.7718C71.4901 43.2529 72.0247 43.4802 72.6247 43.4537C73.2303 43.433 73.7965 43.1657 74.3234 42.6518C74.856 42.1324 75.1374 41.573 75.1675 40.9737C75.2089 40.3745 74.9951 39.8344 74.5259 39.3533C74.0511 38.8665 73.5138 38.6307 72.9139 38.6458C72.3196 38.6667 71.7533 38.9396 71.215 39.4647C70.6823 39.9842 70.3953 40.5435 70.3539 41.1426C70.3237 41.7419 70.5461 42.285 71.0209 42.7718Z" fill="white"/>
<path d="M82.1175 48.5293C81.7682 48.8701 81.3692 49.1027 80.9208 49.2272C80.478 49.3461 80.0059 49.3261 79.5044 49.167C79.0028 49.008 78.5119 48.6823 78.0315 48.1897L77.1434 47.2791L74.9786 49.3905L73.5458 47.9215L79.5765 42.0398L81.8973 44.4194C82.3665 44.9005 82.6801 45.3881 82.838 45.8822C82.9959 46.3764 83.0097 46.8489 82.8797 47.2999C82.7496 47.7509 82.4955 48.1607 82.1175 48.5293ZM79.091 46.9386C79.3647 47.2192 79.6344 47.364 79.9002 47.373C80.166 47.382 80.4191 47.2691 80.6596 47.0345C80.9002 46.7999 81.0193 46.5497 81.017 46.2838C81.0146 46.0178 80.8766 45.7446 80.6029 45.4639L79.8237 44.665L78.3117 46.1396L79.091 46.9386Z" fill="white"/>
<path d="M86.2125 48.8438L82.6044 52.3628C82.2436 52.7147 82.0524 53.0743 82.0308 53.4418C82.0093 53.8093 82.1661 54.1648 82.5012 54.5084C82.8363 54.8521 83.1907 55.0205 83.5641 55.0139C83.9376 55.0073 84.3047 54.828 84.6655 54.4761L88.2736 50.9571L89.7064 52.4261L86.1069 55.9367C85.5685 56.4618 85.0015 56.7913 84.4058 56.9253C83.8101 57.0593 83.2278 57.0237 82.659 56.8186C82.0958 56.6192 81.5824 56.2818 81.1187 55.8065C80.6551 55.3311 80.3306 54.8151 80.1452 54.2583C79.9712 53.7017 79.9641 53.1331 80.1241 52.5524C80.2899 51.9661 80.6419 51.4104 81.1803 50.8854L84.7798 47.3748L86.2125 48.8438Z" fill="white"/>
<path d="M87.2485 59.7024L89.1253 61.6267L87.9913 62.7327L84.6818 59.3394L90.7124 53.4576L92.1452 54.9267L87.2485 59.7024Z" fill="white"/>
<path d="M93.4013 66.1486L91.2062 63.8978L89.789 64.576L88.2893 63.0382L96.4481 59.3385L98.107 61.0395L94.2045 69.1032L92.688 67.5483L93.4013 66.1486ZM94.1667 64.6646L95.6455 61.7639L92.7172 63.1784L94.1667 64.6646ZM99.4607 60.0041L96.5739 58.78L97.5876 57.7913L100.603 58.8898L99.4607 60.0041Z" fill="white"/>
<path d="M97.8517 72.8428L98.905 69.3683L98.5615 69.016L96.2849 71.2364L94.8522 69.7673L100.883 63.8856L103.288 66.3511C103.751 66.8265 104.062 67.3112 104.22 67.8054C104.383 68.3053 104.4 68.7807 104.27 69.2317C104.145 69.677 103.906 70.0729 103.551 70.4192C103.15 70.8102 102.68 71.0448 102.142 71.1229C101.609 71.2067 101.062 71.0924 100.5 70.7799L99.4688 74.5008L97.8517 72.8428ZM99.601 68.0022L100.489 68.9128C100.752 69.182 101.013 69.3182 101.273 69.3215C101.539 69.3305 101.792 69.2177 102.033 68.9831C102.262 68.7596 102.375 68.515 102.373 68.249C102.376 67.9888 102.246 67.7242 101.984 67.455L101.096 66.5444L99.601 68.0022Z" fill="white"/>
<path d="M105.58 80.7664L104.147 79.2974L105.47 73.2125L101.751 76.8404L100.318 75.3714L106.349 69.4897L107.781 70.9587L106.441 77.0603L110.178 73.4156L111.61 74.8846L105.58 80.7664Z" fill="white"/>
<path d="M112.905 78.5663L111.685 79.7561L113.603 81.7234L112.469 82.8293L110.551 80.8621L109.228 82.1524L111.398 84.3774L110.221 85.5252L106.618 81.8312L112.649 75.9495L116.252 79.6435L115.075 80.7913L112.905 78.5663ZM116.729 78.088L114.752 77.4184L114.132 75.4249L115.146 74.4362L115.697 76.4967L117.743 77.0994L116.729 78.088Z" fill="white"/>
<path d="M120.868 84.3771L116.762 88.382C116.126 89.002 115.461 89.2992 114.765 89.2735C114.075 89.2536 113.434 88.9401 112.842 88.333C112.222 87.6973 111.905 87.0117 111.892 86.276C111.878 85.5404 112.204 84.8486 112.868 84.2007L114.293 85.6611C114.041 85.9069 113.899 86.1455 113.868 86.3771C113.842 86.6031 113.925 86.8134 114.115 87.0081C114.288 87.1857 114.479 87.2673 114.689 87.2529C114.898 87.2386 115.112 87.1253 115.329 86.913L119.436 82.9081L120.868 84.3771Z" fill="white"/>
<path d="M118.063 93.6861C117.633 93.2451 117.319 92.7801 117.122 92.2911C116.924 91.8021 116.862 91.3148 116.936 90.8292C117.016 90.3493 117.247 89.911 117.631 89.5141L119.156 91.0776C118.955 91.3184 118.859 91.5632 118.867 91.8123C118.881 92.0557 118.991 92.2834 119.198 92.4953C119.41 92.7129 119.627 92.8372 119.847 92.8683C120.073 92.8937 120.274 92.8199 120.452 92.6467C120.601 92.5015 120.674 92.3299 120.671 92.1318C120.673 91.9395 120.633 91.7382 120.551 91.5278C120.474 91.3232 120.345 91.0472 120.162 90.6998C119.903 90.1931 119.713 89.7579 119.593 89.3944C119.473 89.0308 119.444 88.6457 119.506 88.2392C119.567 87.8326 119.787 87.445 120.165 87.0764C120.727 86.529 121.363 86.305 122.075 86.4044C122.792 86.4982 123.469 86.8716 124.106 87.5245C124.754 88.1888 125.115 88.8807 125.191 89.6001C125.273 90.314 125.044 90.9617 124.505 91.5433L122.955 89.954C123.139 89.7527 123.221 89.5331 123.201 89.2952C123.187 89.0518 123.08 88.827 122.878 88.6208C122.705 88.4432 122.517 88.3475 122.313 88.3337C122.116 88.3142 121.928 88.3911 121.751 88.5642C121.556 88.7542 121.493 88.9938 121.563 89.2832C121.633 89.5726 121.795 89.9735 122.049 90.4858C122.297 91.0037 122.478 91.4416 122.593 91.7994C122.713 92.163 122.745 92.5453 122.689 92.9462C122.633 93.3472 122.424 93.7236 122.063 94.0755C121.72 94.4107 121.321 94.6263 120.867 94.7225C120.419 94.8244 119.95 94.7902 119.46 94.62C118.97 94.4499 118.504 94.1385 118.063 93.6861ZM126.425 87.9608L124.448 87.2911L123.828 85.2977L124.842 84.309L125.393 86.3695L127.439 86.9721L126.425 87.9608Z" fill="white"/>
<path d="M128.613 92.318L122.582 98.1997L121.15 96.7307L127.18 90.849L128.613 92.318ZM130.084 91.4029L127.197 90.1788L128.211 89.1901L131.227 90.2885L130.084 91.4029Z" fill="white"/>
<path d="M146 142L137 133V148.5L146 142Z" fill="black"/>
</svg>
