<svg width="61" height="44" viewBox="0 0 61 44" fill="none" xmlns="http://www.w3.org/2000/svg">
<path d="M43.1323 14.3794C43.1117 13.4673 43.0112 12.5588 42.8318 11.6643H30.498V16.7935H37.4162C37.2954 17.5965 37.0122 18.3665 36.584 19.0562C36.1559 19.7458 35.5918 20.3408 34.9262 20.8047V24.1401H39.2193C41.7033 21.8305 43.1323 18.4151 43.1323 14.3794Z" fill="#4284F4"/>
<path d="M30.4554 27.3405C33.6738 27.4325 36.8053 26.2874 39.2074 24.1401L34.9142 20.8046C33.8921 21.4597 32.7343 21.8724 31.5289 22.0114C30.3235 22.1504 29.1023 22.0121 27.9583 21.6069C26.8144 21.2017 25.7779 20.5403 24.9278 19.6731C24.0776 18.806 23.4363 17.756 23.0527 16.603H18.6553V20.0368C19.7527 22.2302 21.4374 24.0749 23.5212 25.3646C25.605 26.6544 28.0058 27.3385 30.4554 27.3405Z" fill="#34A853"/>
<path d="M23.0651 16.6029C22.5171 14.9646 22.5171 13.192 23.0651 11.5536V8.11987H18.6554C17.7318 9.96991 17.251 12.0099 17.251 14.0783C17.251 16.1467 17.7318 18.1867 18.6554 20.0367L23.0651 16.6029Z" fill="#FBBC04"/>
<path d="M30.4554 6.08678C32.3346 6.05855 34.1496 6.77113 35.5091 8.07087L39.2932 4.26854C36.9064 2.01174 33.7376 0.771758 30.4554 0.810194C28.0053 0.813455 25.6044 1.49875 23.5206 2.78956C21.4369 4.08037 19.7524 5.92588 18.6553 8.12002L23.065 11.5538C23.5681 9.98692 24.5485 8.61715 25.8684 7.63667C27.1883 6.65619 28.7816 6.11421 30.4247 6.08678H30.4554Z" fill="#EA4335"/>
<path d="M1.96703 40.8483C1.48626 40.5603 1.08883 40.1517 0.813998 39.6628C0.528726 39.1534 0.378906 38.5791 0.378906 37.995C0.378906 37.411 0.528726 36.8367 0.813998 36.3273C1.0996 35.8331 1.51018 35.423 2.00439 35.1383C2.49859 34.8536 3.05898 34.7043 3.6291 34.7056C4.07677 34.7036 4.52051 34.7892 4.93546 34.9575C5.31895 35.1032 5.66183 35.3391 5.93516 35.6454L5.40158 36.186C5.1983 35.9364 4.93723 35.7403 4.64107 35.6147C4.28137 35.4666 3.89318 35.4007 3.50484 35.422C3.11649 35.4432 2.73778 35.5511 2.39634 35.7376C1.99604 35.9456 1.66075 36.2602 1.42731 36.6467C1.19368 37.0558 1.07499 37.5207 1.08386 37.9919C1.07571 38.4651 1.19431 38.9317 1.42731 39.3433C1.64987 39.7218 1.96967 40.0336 2.35341 40.2463C2.72814 40.4565 3.15057 40.5665 3.58004 40.5657C3.94161 40.5759 4.30119 40.5088 4.63493 40.3692C4.90967 40.2441 5.15754 40.0668 5.36478 39.847C5.52538 39.6665 5.65212 39.4584 5.7389 39.2328C5.83392 38.9868 5.8918 38.728 5.91063 38.4649H3.61684V37.7892H6.63433C6.66269 37.9412 6.67707 38.0954 6.67727 38.2499C6.67806 38.6322 6.61589 39.012 6.49327 39.3741C6.3674 39.7394 6.15727 40.0698 5.87996 40.3385C5.58594 40.6523 5.22763 40.8988 4.8296 41.0611C4.43156 41.2233 4.00321 41.2974 3.5739 41.2783C3.00977 41.2795 2.45536 41.1312 1.96703 40.8483Z" fill="#5F6368" stroke="#5F6368" stroke-width="0.25" stroke-miterlimit="10"/>
<path d="M8.52326 40.965C8.17574 40.7566 7.89159 40.4571 7.70142 40.0989C7.5119 39.7271 7.41309 39.3155 7.41309 38.898C7.41309 38.4805 7.5119 38.069 7.70142 37.6971C7.89727 37.3354 8.18698 37.0334 8.53998 36.823C8.89297 36.6126 9.29615 36.5015 9.70695 36.5015C10.1177 36.5015 10.5209 36.6126 10.8739 36.823C11.2269 37.0334 11.5166 37.3354 11.7125 37.6971C11.9059 38.0678 12.007 38.4798 12.007 38.898C12.007 39.3162 11.9059 39.7283 11.7125 40.0989C11.5223 40.4571 11.2382 40.7566 10.8906 40.965C10.5298 41.1702 10.1219 41.278 9.70695 41.278C9.29199 41.278 8.88414 41.1702 8.52326 40.965ZM10.4736 40.3938C10.7193 40.2489 10.9175 40.0354 11.044 39.7795C11.1903 39.4945 11.2667 39.1786 11.2667 38.8581C11.2667 38.5376 11.1903 38.2217 11.044 37.9367C10.9131 37.6957 10.7199 37.4945 10.4847 37.354C10.2494 37.2135 9.98083 37.1389 9.70695 37.1381C9.43516 37.1359 9.16793 37.2081 8.93418 37.347C8.68845 37.4918 8.49023 37.7053 8.3638 37.9612C8.21745 38.2463 8.14111 38.5622 8.14111 38.8827C8.14111 39.2032 8.21745 39.519 8.3638 39.8041C8.49023 40.06 8.68845 40.2735 8.93418 40.4183C9.16793 40.5572 9.43516 40.6294 9.70695 40.6272C9.97989 40.621 10.2456 40.538 10.4736 40.3876V40.3938Z" fill="#5F6368" stroke="#5F6368" stroke-width="0.25" stroke-miterlimit="10"/>
<path d="M13.7423 40.965C13.3948 40.7566 13.1106 40.4571 12.9205 40.0989C12.727 39.7283 12.626 39.3162 12.626 38.898C12.626 38.4798 12.727 38.0678 12.9205 37.6971C13.1163 37.3354 13.406 37.0334 13.759 36.823C14.112 36.6126 14.5152 36.5015 14.926 36.5015C15.3368 36.5015 15.74 36.6126 16.093 36.823C16.446 37.0334 16.7357 37.3354 16.9315 37.6971C17.125 38.0678 17.226 38.4798 17.226 38.898C17.226 39.3162 17.125 39.7283 16.9315 40.0989C16.7414 40.4571 16.4572 40.7566 16.1097 40.965C15.7488 41.1702 15.341 41.278 14.926 41.278C14.511 41.278 14.1032 41.1702 13.7423 40.965ZM15.6926 40.3938C15.9384 40.2489 16.1366 40.0354 16.263 39.7795C16.4094 39.4945 16.4857 39.1786 16.4857 38.8581C16.4857 38.5376 16.4094 38.2217 16.263 37.9367C16.1245 37.7051 15.9273 37.5143 15.6914 37.3838C15.4555 37.2533 15.1893 37.1876 14.9199 37.1934C14.6481 37.1911 14.3808 37.2634 14.1471 37.4023C13.9014 37.5471 13.7031 37.7606 13.5767 38.0165C13.4304 38.3016 13.354 38.6174 13.354 38.9379C13.354 39.2584 13.4304 39.5743 13.5767 39.8593C13.7031 40.1153 13.9014 40.3288 14.1471 40.4736C14.3808 40.6125 14.6481 40.6847 14.9199 40.6825C15.2005 40.6612 15.469 40.5588 15.6926 40.3876V40.3938Z" fill="#5F6368" stroke="#5F6368" stroke-width="0.25" stroke-miterlimit="10"/>
<path d="M18.7472 42.8079C18.4278 42.5935 18.1867 42.2809 18.0603 41.9172L18.7349 41.6285C18.8331 41.8781 19.0041 42.0921 19.2256 42.2428C19.4667 42.4097 19.7544 42.4957 20.0474 42.4885C20.2432 42.5009 20.4395 42.473 20.6241 42.4064C20.8087 42.3399 20.9777 42.2361 21.1207 42.1015C21.2551 41.9524 21.3581 41.7775 21.4235 41.5875C21.4888 41.3975 21.5152 41.1963 21.501 40.9958V40.4921C21.347 40.7274 21.136 40.9197 20.8877 41.0511C20.5805 41.206 20.2388 41.2794 19.8952 41.2644C19.5516 41.2493 19.2176 41.1463 18.9251 40.9651C18.5992 40.7572 18.3363 40.4641 18.1645 40.1174C17.9703 39.7377 17.8733 39.3155 17.8824 38.8889C17.8756 38.4625 17.9724 38.0409 18.1645 37.6603C18.3363 37.3137 18.5992 37.0206 18.9251 36.8127C19.2176 36.6315 19.5516 36.5285 19.8952 36.5134C20.2388 36.4983 20.5805 36.5718 20.8877 36.7267C21.1377 36.8584 21.349 37.0532 21.501 37.2918V36.6775H22.2124V40.9774C22.2309 41.2795 22.1859 41.5822 22.0802 41.8657C21.9746 42.1493 21.8107 42.4075 21.5991 42.6237C21.17 43.011 20.6061 43.214 20.029 43.1888C19.5724 43.2 19.1238 43.0668 18.7472 42.8079ZM20.7834 40.3877C21.0089 40.2333 21.1889 40.0212 21.3047 39.7734C21.4358 39.484 21.5037 39.1699 21.5037 38.852C21.5037 38.5342 21.4358 38.2201 21.3047 37.9306C21.1936 37.6799 21.0126 37.4666 20.7834 37.3164C20.5618 37.1811 20.3068 37.1109 20.0474 37.1136C19.787 37.11 19.5312 37.1826 19.3114 37.3225C19.0802 37.4738 18.8954 37.6865 18.7779 37.9368C18.6459 38.226 18.5777 38.5402 18.5777 38.8582C18.5777 39.1761 18.6459 39.4904 18.7779 39.7796C18.8926 40.0318 19.078 40.2452 19.3114 40.3939C19.5341 40.5263 19.7884 40.5962 20.0474 40.5962C20.3064 40.5962 20.5607 40.5263 20.7834 40.3939V40.3877Z" fill="#5F6368" stroke="#5F6368" stroke-width="0.25" stroke-miterlimit="10"/>
<path d="M23.3105 34.8591H24.0588V41.1493H23.3105V34.8591Z" fill="#5F6368" stroke="#5F6368" stroke-width="0.25" stroke-miterlimit="10"/>
<path d="M26.0028 41.0018C25.6652 40.7987 25.3912 40.5051 25.2116 40.1541C25.0152 39.7749 24.9161 39.3527 24.9233 38.9256C24.9153 38.5005 25.0078 38.0795 25.1932 37.697C25.367 37.3482 25.6319 37.0532 25.9598 36.8432C26.2999 36.6247 26.6967 36.5115 27.1006 36.5176C27.5009 36.5068 27.8963 36.6089 28.2414 36.8125C28.5618 37.0052 28.8196 37.2868 28.9835 37.6233C29.1604 37.993 29.2487 38.399 29.2411 38.8089C29.2518 38.8842 29.2518 38.9608 29.2411 39.0361H25.6716C25.6785 39.341 25.7629 39.6391 25.9169 39.9023C26.0517 40.1242 26.2448 40.3048 26.475 40.4244C26.692 40.5407 26.9342 40.6019 27.1803 40.6025C27.4569 40.6042 27.7282 40.5272 27.9628 40.3803C28.1973 40.2335 28.3854 40.023 28.5051 39.7733L29.1184 40.0804C28.9344 40.4312 28.6642 40.7292 28.3334 40.9465C27.9753 41.1501 27.5706 41.257 27.1589 41.257C26.7471 41.257 26.3424 41.1501 25.9844 40.9465L26.0028 41.0018ZM28.456 38.4526C28.4403 38.2575 28.3861 38.0675 28.2965 37.8936C28.1971 37.6972 28.044 37.5331 27.855 37.4206C27.6254 37.2837 27.3615 37.2154 27.0945 37.224C26.7656 37.2176 26.447 37.3387 26.2052 37.5619C25.9539 37.7993 25.7861 38.1118 25.7268 38.4526H28.456Z" fill="#5F6368" stroke="#5F6368" stroke-width="0.25" stroke-miterlimit="10"/>
<path d="M31.9336 34.8592H34.0434C34.3833 34.8568 34.7184 34.9391 35.0186 35.0987C35.3093 35.2542 35.5545 35.4828 35.73 35.7622C35.9067 36.0516 36.0002 36.3843 36.0002 36.7235C36.0002 37.0627 35.9067 37.3954 35.73 37.6848C35.5545 37.9642 35.3093 38.1928 35.0186 38.3482C34.7184 38.5079 34.3833 38.5902 34.0434 38.5878H32.6696V41.1493H31.9336V34.8592ZM34.0618 37.8753C34.2777 37.8786 34.4902 37.8211 34.6751 37.7094C34.8474 37.6028 34.9907 37.455 35.0922 37.2794C35.1884 37.11 35.239 36.9184 35.239 36.7235C35.239 36.5286 35.1884 36.337 35.0922 36.1676C34.9907 35.992 34.8474 35.8442 34.6751 35.7376C34.4902 35.6259 34.2777 35.5684 34.0618 35.5717H32.6696V37.8753H34.0618Z" fill="#5F6368" stroke="#5F6368" stroke-width="0.25" stroke-miterlimit="10"/>
<path d="M37.5022 41.0878C37.2534 40.9723 37.0441 40.7861 36.9001 40.5524C36.7562 40.3187 36.684 40.0477 36.6926 39.7733C36.6834 39.5583 36.7273 39.3444 36.8204 39.1504C36.9134 38.9565 37.0528 38.7885 37.2262 38.6614C37.6225 38.3841 38.0984 38.2439 38.5816 38.2622C38.8335 38.2617 39.0846 38.2906 39.3298 38.3482C39.5138 38.3923 39.6911 38.4605 39.8573 38.5509V38.2806C39.8634 38.1287 39.8351 37.9775 39.7746 37.8381C39.714 37.6988 39.6228 37.5749 39.5077 37.4759C39.2609 37.2691 38.9461 37.1618 38.6245 37.1749C38.3842 37.173 38.1468 37.2277 37.9315 37.3346C37.7246 37.4358 37.5503 37.5934 37.4286 37.7892L36.8705 37.3653C37.0515 37.0985 37.3017 36.8862 37.5942 36.7511C37.9109 36.5961 38.2598 36.5182 38.6123 36.5238C39.1342 36.4942 39.6476 36.6656 40.0474 37.0029C40.2231 37.1694 40.3606 37.372 40.4506 37.5968C40.5406 37.8216 40.5809 38.0633 40.5687 38.3052V41.1431H39.8573V40.5288C39.7033 40.7625 39.4922 40.9528 39.244 41.0817C38.982 41.2354 38.6828 41.314 38.3792 41.3089C38.0735 41.3062 37.7728 41.2304 37.5022 41.0878ZM39.1459 40.4244C39.3609 40.3 39.5405 40.1224 39.6672 39.9084C39.7947 39.6929 39.8605 39.4464 39.8573 39.1959C39.6971 39.0962 39.5237 39.0197 39.3421 38.9686C39.1308 38.9083 38.9117 38.8793 38.692 38.8826C38.3635 38.8571 38.0364 38.9461 37.7659 39.1344C37.6673 39.2126 37.5883 39.3127 37.5351 39.4268C37.4819 39.5409 37.4559 39.6658 37.4592 39.7917C37.4542 39.9086 37.4765 40.025 37.5245 40.1316C37.5724 40.2383 37.6446 40.3323 37.7352 40.406C37.9395 40.5608 38.1906 40.641 38.4467 40.6332C38.6946 40.6299 38.9366 40.5576 39.1459 40.4244Z" fill="#5F6368" stroke="#5F6368" stroke-width="0.25" stroke-miterlimit="10"/>
<path d="M41.4824 36.7019H42.1939V37.4391C42.2984 37.1786 42.4889 36.9618 42.7336 36.8248C43.0807 36.6256 43.4877 36.5581 43.8805 36.6344V37.3961C43.7474 37.3681 43.6116 37.3557 43.4757 37.3592C43.3033 37.3539 43.1317 37.3851 42.9721 37.4507C42.8125 37.5163 42.6685 37.6149 42.5496 37.7401C42.3077 38.0087 42.18 38.3614 42.1939 38.7229V41.18H41.4824V36.7019ZM46.0209 41.1616C45.8741 41.1116 45.7401 41.0298 45.6284 40.922C45.5139 40.811 45.4241 40.677 45.3647 40.5289C45.304 40.3531 45.275 40.168 45.2788 39.9822V37.3162H44.4999V36.6405H45.2788V35.3936H46.0209V36.659H47.1126V37.3162H46.0209V39.8102C46.007 40.0068 46.0565 40.2027 46.162 40.3691C46.2233 40.4356 46.2985 40.4877 46.3823 40.5217C46.4661 40.5557 46.5563 40.5707 46.6465 40.5657C46.8208 40.5644 46.991 40.5133 47.1372 40.4183V41.1431C47.0517 41.1857 46.9609 41.2166 46.8673 41.2353C46.7531 41.2465 46.6381 41.2465 46.5239 41.2353C46.3546 41.251 46.1839 41.2344 46.0209 41.1861V41.1616Z" fill="#5F6368" stroke="#5F6368" stroke-width="0.25" stroke-miterlimit="10"/>
<path d="M47.9658 36.6589H48.6527V37.3162H48.6895C48.8364 37.0734 49.0491 36.8774 49.3028 36.751C49.5634 36.5985 49.8597 36.5179 50.1615 36.5176C50.3873 36.5038 50.6135 36.5383 50.825 36.6188C51.0364 36.6993 51.2284 36.8239 51.3881 36.9845C51.6865 37.3432 51.8377 37.8021 51.8113 38.2683V41.1369H51.0692V38.3789C51.0852 38.2156 51.0668 38.0509 51.015 37.8953C50.9632 37.7397 50.8793 37.5968 50.7687 37.4759C50.5449 37.2771 50.2515 37.1755 49.953 37.1933C49.7222 37.1906 49.4967 37.2616 49.309 37.396C49.1177 37.5324 48.9654 37.7167 48.8674 37.9304C48.7628 38.1447 48.7083 38.3799 48.7079 38.6184V41.1369H47.9658V36.6589Z" fill="#5F6368" stroke="#5F6368" stroke-width="0.25" stroke-miterlimit="10"/>
<path d="M53.7244 41.0018C53.3869 40.7987 53.1128 40.5051 52.9333 40.1541C52.7369 39.7749 52.6378 39.3527 52.645 38.9256C52.637 38.5005 52.7295 38.0795 52.9149 37.697C53.0834 37.3453 53.3442 37.0459 53.6692 36.8309C54.0036 36.6213 54.3911 36.5126 54.7855 36.5176C55.1858 36.5068 55.5811 36.6089 55.9262 36.8125C56.2467 37.0052 56.5045 37.2868 56.6683 37.6233C56.8453 37.993 56.9335 38.399 56.9259 38.8089C56.9367 38.8842 56.9367 38.9608 56.9259 39.0361H53.3933C53.3974 39.3415 53.482 39.6403 53.6386 39.9023C53.7734 40.1242 53.9664 40.3048 54.1967 40.4244C54.4137 40.5407 54.6559 40.6019 54.902 40.6025C55.1759 40.6062 55.4452 40.5319 55.6786 40.3884C55.912 40.2449 56.0999 40.038 56.2206 39.7917L56.8339 40.0988C56.6495 40.4513 56.3769 40.7497 56.0428 40.965C55.674 41.1891 55.247 41.2982 54.8161 41.2782C54.4344 41.2827 54.0582 41.1874 53.7244 41.0018ZM56.1777 38.4526C56.1619 38.2575 56.1078 38.0675 56.0182 37.8936C55.9159 37.6992 55.7634 37.5359 55.5766 37.4206C55.3417 37.2671 55.066 37.1879 54.7855 37.1933C54.4566 37.1869 54.138 37.308 53.8962 37.5312C53.6449 37.7686 53.4771 38.0811 53.4178 38.4219L56.1777 38.4526Z" fill="#5F6368" stroke="#5F6368" stroke-width="0.25" stroke-miterlimit="10"/>
<path d="M57.8096 36.6589H58.521V37.3776H58.5578C58.6545 37.1218 58.8336 36.9057 59.0669 36.7634C59.2984 36.6052 59.5717 36.5196 59.8519 36.5177C60.0328 36.511 60.2129 36.5446 60.3793 36.616V37.4145C60.1882 37.3216 59.9785 37.2732 59.766 37.2732C59.5474 37.2691 59.333 37.3335 59.1527 37.4575C58.9693 37.5854 58.8199 37.7562 58.7173 37.9551C58.612 38.1647 58.5574 38.3961 58.5578 38.6308V41.137H57.8096V36.6589Z" fill="#5F6368" stroke="#5F6368" stroke-width="0.25" stroke-miterlimit="10"/>
</svg>
