<svg width="72" height="72" viewBox="0 0 72 72" fill="none" xmlns="http://www.w3.org/2000/svg">
<path d="M56.7143 28.8571C56.7143 31.7598 55.3838 35.4791 53.2578 39.5208C51.1482 43.5315 48.324 47.734 45.4824 51.5669C42.6435 55.3961 39.8024 58.8363 37.6698 61.3202C36.604 62.5617 35.7162 63.563 35.0957 64.2532C35.0111 64.3472 34.9315 64.4355 34.8571 64.5178C34.7827 64.4355 34.7032 64.3472 34.6186 64.2532C33.998 63.563 33.1103 62.5617 32.0444 61.3202C29.9119 58.8363 27.0707 55.3961 24.2319 51.5669C21.3903 47.734 18.5661 43.5315 16.4565 39.5208C14.3305 35.4791 13 31.7598 13 28.8571C13 16.7858 22.7858 7 34.8571 7C46.9285 7 56.7143 16.7858 56.7143 28.8571Z" stroke="#222E27" stroke-width="2"/>
<circle cx="34.8573" cy="27.7142" r="10.4286" stroke="#222E27" stroke-width="2"/>
</svg>
