<svg width="65" height="64" viewBox="0 0 65 64" fill="none" xmlns="http://www.w3.org/2000/svg">
<g clip-path="url(#clip0_711_60)">
<path d="M32.4836 22.1622C35.6878 22.1622 36.0673 22.1744 37.3326 22.2321C38.5026 22.2855 39.138 22.481 39.5609 22.6453C40.121 22.863 40.5208 23.1231 40.9407 23.543C41.3606 23.9629 41.6206 24.3627 41.8383 24.9227C42.0026 25.3456 42.1981 25.981 42.2515 27.151C42.3092 28.4164 42.3214 28.7959 42.3214 32C42.3214 35.2042 42.3092 35.5837 42.2515 36.849C42.1981 38.019 42.0026 38.6544 41.8383 39.0773C41.6206 39.6374 41.3606 40.0372 40.9407 40.4571C40.5208 40.877 40.121 41.137 39.5609 41.3547C39.138 41.519 38.5026 41.7145 37.3326 41.7679C36.0675 41.8256 35.688 41.8378 32.4836 41.8378C29.2793 41.8378 28.8998 41.8256 27.6346 41.7679C26.4646 41.7145 25.8292 41.519 25.4064 41.3547C24.8463 41.137 24.4465 40.877 24.0266 40.4571C23.6067 40.0372 23.3466 39.6374 23.129 39.0773C22.9646 38.6544 22.7691 38.019 22.7157 36.8491C22.658 35.5837 22.6458 35.2042 22.6458 32C22.6458 28.7959 22.658 28.4164 22.7157 27.151C22.7691 25.981 22.9646 25.3456 23.129 24.9227C23.3466 24.3627 23.6067 23.9629 24.0266 23.543C24.4465 23.1231 24.8463 22.863 25.4064 22.6453C25.8292 22.481 26.4646 22.2855 27.6346 22.2321C28.9 22.1744 29.2795 22.1622 32.4836 22.1622ZM32.4836 20C29.2246 20 28.816 20.0138 27.5361 20.0722C26.2587 20.1305 25.3865 20.3333 24.6231 20.63C23.834 20.9367 23.1648 21.347 22.4977 22.0141C21.8306 22.6812 21.4203 23.3504 21.1136 24.1395C20.8169 24.9029 20.6141 25.7752 20.5558 27.0525C20.4974 28.3323 20.4836 28.741 20.4836 32C20.4836 35.2591 20.4974 35.6677 20.5558 36.9476C20.6141 38.2249 20.8169 39.0972 21.1136 39.8605C21.4203 40.6496 21.8306 41.3188 22.4977 41.9859C23.1648 42.6531 23.834 43.0634 24.6231 43.37C25.3865 43.6667 26.2587 43.8695 27.5361 43.9278C28.816 43.9862 29.2246 44 32.4836 44C35.7426 44 36.1513 43.9862 37.4312 43.9278C38.7085 43.8695 39.5808 43.6667 40.3441 43.37C41.1332 43.0634 41.8024 42.6531 42.4695 41.9859C43.1366 41.3188 43.547 40.6496 43.8536 39.8605C44.1503 39.0972 44.3531 38.2249 44.4114 36.9476C44.4698 35.6677 44.4836 35.2591 44.4836 32C44.4836 28.741 44.4698 28.3323 44.4114 27.0525C44.3531 25.7752 44.1503 24.9029 43.8536 24.1395C43.547 23.3504 43.1366 22.6812 42.4695 22.0141C41.8024 21.347 41.1332 20.9367 40.3441 20.63C39.5808 20.3333 38.7085 20.1305 37.4312 20.0722C36.1513 20.0138 35.7426 20 32.4836 20ZM32.4836 25.8378C29.0804 25.8378 26.3214 28.5968 26.3214 32C26.3214 35.4033 29.0804 38.1622 32.4836 38.1622C35.8869 38.1622 38.6458 35.4033 38.6458 32C38.6458 28.5968 35.8869 25.8378 32.4836 25.8378ZM32.4836 36C30.2745 36 28.4836 34.2091 28.4836 32C28.4836 29.7909 30.2745 28 32.4836 28C34.6927 28 36.4836 29.7909 36.4836 32C36.4836 34.2091 34.6927 36 32.4836 36ZM40.3292 25.5944C40.3292 26.3897 39.6846 27.0344 38.8893 27.0344C38.094 27.0344 37.4492 26.3897 37.4492 25.5944C37.4492 24.7991 38.094 24.1544 38.8893 24.1544C39.6846 24.1544 40.3292 24.7991 40.3292 25.5944Z" fill="#DEF8E8"/>
</g>
<rect x="0.983643" y="0.5" width="63" height="63" stroke="#9BEABB"/>
<defs>
<clipPath id="clip0_711_60">
<rect width="24" height="24" fill="white" transform="translate(20.4836 20)"/>
</clipPath>
</defs>
</svg>
