<svg width="65" height="64" viewBox="0 0 65 64" fill="none" xmlns="http://www.w3.org/2000/svg">
<path d="M42.6284 20.0004H22.3388C21.3788 19.9804 20.5788 20.7304 20.5588 21.7004C20.5588 21.7104 20.5588 21.7304 20.5588 21.7404V42.2699C20.5588 43.2299 21.3388 43.9999 22.2988 43.9999C22.3088 43.9999 22.3288 43.9999 22.3388 43.9999H42.6284C43.5984 44.0099 44.3884 43.2299 44.4084 42.2599V21.7404C44.3784 20.7704 43.5884 20.0104 42.6284 20.0004ZM27.7887 40.05H24.1688V29.2502H27.7887V40.05ZM25.9587 27.7602C24.9387 27.8502 24.0288 27.0902 23.9388 26.0703C23.9288 26.0103 23.9288 25.9403 23.9288 25.8803C23.9288 24.8403 24.7788 23.9903 25.8287 24.0003C25.8687 24.0003 25.9187 24.0003 25.9587 24.0003C26.9987 23.9303 27.8987 24.7103 27.9787 25.7503C27.9787 25.7903 27.9787 25.8303 27.9787 25.8803C28.0187 26.8803 27.2487 27.7302 26.2487 27.7702C26.1487 27.7702 26.0587 27.7702 25.9587 27.7602ZM40.7584 40.05H37.1385V34.2701C37.1385 32.8201 36.6085 31.8102 35.3085 31.8102C34.4786 31.8102 33.7486 32.3301 33.4786 33.1101C33.3886 33.3901 33.3586 33.6801 33.3786 33.9801V40H29.7587C29.7587 40 29.8087 30.1702 29.7587 29.1602H33.3686V30.7002C34.0386 29.5602 35.2785 28.8802 36.5985 28.9202C38.9585 28.9202 40.7484 30.4602 40.7484 33.7901L40.7584 40.05Z" fill="#DEF8E8"/>
<rect x="0.983643" y="0.5" width="63" height="63" stroke="#9BEABB"/>
</svg>
