<svg width="24" height="24" viewBox="0 0 24 24" fill="none" xmlns="http://www.w3.org/2000/svg">
<path d="M22.1447 0.000390816H1.85516C0.895179 -0.0196088 0.0951949 0.730376 0.0751953 1.70036C0.0751953 1.71036 0.0751953 1.73036 0.0751953 1.74036V22.2699C0.0751953 23.2299 0.85518 23.9999 1.81516 23.9999C1.82516 23.9999 1.84516 23.9999 1.85516 23.9999H22.1447C23.1147 24.0099 23.9047 23.2299 23.9247 22.2599V1.74036C23.8947 0.770375 23.1047 0.0103906 22.1447 0.000390816ZM7.30505 20.05H3.68512V9.2502H7.30505V20.05ZM5.47509 7.76023C4.45511 7.85023 3.54513 7.09025 3.45513 6.07027C3.44513 6.01027 3.44513 5.94027 3.44513 5.88027C3.44513 4.84029 4.29511 3.99031 5.34509 4.00031C5.38509 4.00031 5.43509 4.00031 5.47509 4.00031C6.51507 3.93031 7.41505 4.7103 7.49505 5.75027C7.49505 5.79027 7.49505 5.83027 7.49505 5.88027C7.53504 6.88025 6.76506 7.73023 5.76508 7.77023C5.66508 7.77023 5.57508 7.77023 5.47509 7.76023ZM20.2748 20.05H16.6549V14.2701C16.6549 12.8201 16.1249 11.8102 14.8249 11.8102C13.9949 11.8102 13.2649 12.3301 12.9949 13.1101C12.9049 13.3901 12.8749 13.6801 12.8949 13.9801V20H9.27501C9.27501 20 9.32501 10.1702 9.27501 9.1602H12.8849V10.7002C13.5549 9.5602 14.7949 8.88021 16.1149 8.92021C18.4748 8.92021 20.2648 10.4602 20.2648 13.7901L20.2748 20.05Z" fill="#59DC8E"/>
</svg>
