<svg width="24" height="24" viewBox="0 0 24 24" fill="none" xmlns="http://www.w3.org/2000/svg">
<rect x="2" width="20" height="21.2829" fill="#59DC8E"/>
<path d="M12.0006 23.9999L9.66016 21.283H14.341L12.0006 23.9999Z" fill="#59DC8E"/>
<path d="M7.53125 5.88672H8.47714V6.85665H7.53125V5.88672ZM7.53125 7.08528H8.47714V8.05522H7.53125V7.08528ZM7.53125 8.28038H8.47714V9.25031H7.53125V8.28038ZM7.53125 9.47548H8.47714V10.4454H7.53125V9.47548ZM7.53125 10.674H8.47714V11.644H7.53125V10.674ZM7.53125 11.8691H8.47714V12.8391H7.53125V11.8691ZM7.53125 13.0677H8.47714V14.0376H7.53125V13.0677ZM8.73305 5.88672H9.67893V6.85665H8.73305V5.88672ZM8.73305 7.08528H9.67893V8.05522H8.73305V7.08528ZM8.73305 8.28038H9.67893V9.25031H8.73305V8.28038ZM8.73305 9.47548H9.67893V10.4454H8.73305V9.47548ZM8.73305 10.674H9.67893V11.644H8.73305V10.674ZM8.73305 11.8691H9.67893V12.8391H8.73305V11.8691ZM8.73305 13.0677H9.67893V14.0376H8.73305V13.0677ZM9.93808 7.08528H10.884V8.05522H9.93808V7.08528ZM9.93808 8.28038H10.884V9.25031H9.93808V8.28038ZM9.93808 9.47548H10.884V10.4454H9.93808V9.47548ZM9.93808 10.674H10.884V11.644H9.93808V10.674ZM11.1399 8.28038H12.0858V9.25031H11.1399V8.28038ZM11.1399 9.47548H12.0858V10.4454H11.1399V9.47548ZM11.1399 10.674H12.0858V11.644H11.1399V10.674ZM11.1399 11.8691H12.0858V12.8391H11.1399V11.8691ZM12.3417 8.28038H13.2876V9.25031H12.3417V8.28038ZM12.3417 9.47548H13.2876V10.4454H12.3417V9.47548ZM12.3417 10.674H13.2876V11.644H12.3417V10.674ZM12.3417 11.8691H13.2876V12.8391H12.3417V11.8691ZM13.5435 7.08528H14.4894V8.05522H13.5435V7.08528ZM13.5435 8.28038H14.4894V9.25031H13.5435V8.28038ZM13.5435 9.47548H14.4894V10.4454H13.5435V9.47548ZM13.5435 10.674H14.4894V11.644H13.5435V10.674ZM14.7453 5.88672H15.6912V6.85665H14.7453V5.88672ZM14.7453 7.08528H15.6912V8.05522H14.7453V7.08528ZM14.7453 8.28038H15.6912V9.25031H14.7453V8.28038ZM14.7453 9.47548H15.6912V10.4454H14.7453V9.47548ZM14.7453 10.674H15.6912V11.644H14.7453V10.674ZM14.7453 11.8691H15.6912V12.8391H14.7453V11.8691ZM14.7453 13.0677H15.6912V14.0376H14.7453V13.0677ZM15.9471 5.88672H16.893V6.85665H15.9471V5.88672ZM15.9471 7.08528H16.893V8.05522H15.9471V7.08528ZM15.9471 8.28038H16.893V9.25031H15.9471V8.28038ZM15.9471 9.47548H16.893V10.4454H15.9471V9.47548ZM15.9471 10.674H16.893V11.644H15.9471V10.674ZM15.9471 11.8691H16.893V12.8391H15.9471V11.8691ZM15.9471 13.0677H16.893V14.0376H15.9471V13.0677Z" fill="#222E27"/>
</svg>
