<svg width="100" height="100" viewBox="0 0 100 100" fill="none" xmlns="http://www.w3.org/2000/svg">
<g clip-path="url(#clip0_1_1481)">
<path d="M100 32.5005L26.8419 63.6505C20.7752 66.2171 15.6794 67.5047 11.5585 67.5047C6.89187 67.5047 3.50437 65.8713 1.40437 62.6005C0.0835342 60.5005 -0.303966 57.838 0.237701 54.6088C0.779367 51.3797 2.22103 47.9422 4.55437 44.2838C6.5002 41.3255 9.6877 37.438 14.1252 32.6172C12.6201 34.9866 11.5163 37.5882 10.8585 40.3172C9.69187 45.2963 10.7419 48.9505 14.0085 51.2838C15.5627 52.3713 17.7002 52.9172 20.4252 52.9172C22.6002 52.9172 25.0502 52.5672 27.7752 51.8672L100 32.5005Z" fill="#BDBDBD"/>
</g>
<defs>
<clipPath id="clip0_1_1481">
<rect width="100" height="100" fill="white"/>
</clipPath>
</defs>
</svg>
