<svg width="101" height="100" viewBox="0 0 101 100" fill="none" xmlns="http://www.w3.org/2000/svg">
<g clip-path="url(#clip0_1_1477)">
<path d="M9.22067 49.6416H10.754C12.4998 49.6416 13.5665 48.6208 13.7457 47.325C13.9248 46.2 13.104 45.0083 11.4665 45.0083H9.99984L9.22067 49.6416ZM86.7665 46.9833L90.2623 40.7166H98.279L86.1623 59.0458H77.9998L81.8873 53.7958L77.429 41.0916L74.3998 59.0458H67.9832L64.029 50.5625L62.604 59.0458H56.1873L59.2915 40.7125H65.8832L69.6957 48.925L71.0873 40.7166H85.129L86.7665 46.9833ZM56.7248 40.7166L53.6248 59.0458H47.2082L43.254 50.5625L41.829 59.0458H35.4123L38.5165 40.7125H45.1082L48.9207 48.925L50.3123 40.7166H56.7248ZM13.3165 40.4458C17.7748 40.4458 20.7665 42.725 20.804 46.4375L21.7623 40.7166H36.304L35.5207 45.35H27.8207L27.429 47.5291H34.379L33.5957 52.1291H26.6457L26.254 54.4125H34.0582L33.2748 59.0458H18.6665L20.3415 49.1291C19.204 52.3375 16.1373 54.2416 12.1457 54.2416H8.479L7.654 59.0458H0.666504L3.804 40.4458H13.3165ZM100.667 55.6041C100.667 57.7833 98.8123 59.5541 96.5332 59.5541C94.254 59.5541 92.3998 57.7833 92.3998 55.6041C92.3998 53.425 94.254 51.6541 96.5332 51.6541C98.8498 51.6875 100.667 53.425 100.667 55.6041Z" fill="#BDBDBD"/>
</g>
<defs>
<clipPath id="clip0_1_1477">
<rect width="100" height="100" fill="white" transform="translate(0.666504)"/>
</clipPath>
</defs>
</svg>
