<svg width="30" height="30" viewBox="0 0 30 30" fill="none" xmlns="http://www.w3.org/2000/svg">
<path d="M18.7124 12.021C19.08 12.0211 19.4348 12.1562 19.7094 12.4007C19.984 12.6451 20.1592 12.9819 20.2019 13.347L20.2124 13.521V20.073C20.2222 21.4408 19.6954 22.7579 18.745 23.7416C17.7946 24.7253 16.4964 25.2972 15.1291 25.3345C13.7617 25.3718 12.4343 24.8716 11.4317 23.9412C10.4291 23.0107 9.83118 21.7243 9.76639 20.358L9.75889 20.073V13.521C9.75894 13.1536 9.89382 12.799 10.138 12.5245C10.3821 12.2499 10.7185 12.0745 11.0834 12.0315L11.2589 12.021H18.7124ZM18.7124 13.521H11.2574V20.073C11.2479 21.0463 11.6196 21.9846 12.2931 22.6873C12.9665 23.39 13.8882 23.8013 14.8609 23.8333C15.8337 23.8652 16.7804 23.5153 17.4984 22.8582C18.2165 22.2012 18.649 21.2893 18.7034 20.3175L18.7124 20.073V13.521V13.521ZM8.66089 12.021C8.44268 12.3976 8.30956 12.8175 8.27089 13.251L8.25889 13.521H4.52389V19.131C4.52373 19.5961 4.64008 20.0538 4.86231 20.4623C5.08455 20.8709 5.40558 21.2172 5.79611 21.4697C6.18663 21.7223 6.6342 21.873 7.09794 21.908C7.56169 21.9431 8.02683 21.8615 8.45089 21.6705C8.57089 22.164 8.74489 22.6365 8.96689 23.0805C8.33527 23.3458 7.64924 23.4557 6.96635 23.4011C6.28347 23.3464 5.62364 23.1288 5.04224 22.7665C4.46083 22.4042 3.9748 21.9077 3.62491 21.3187C3.27503 20.7297 3.0715 20.0654 3.03139 19.3815L3.02539 19.1295V13.521C3.02544 13.1536 3.16032 12.799 3.40446 12.5245C3.6486 12.2499 3.98501 12.0745 4.34989 12.0315L4.52539 12.021H8.66089V12.021ZM21.3104 12.021H25.4864C25.854 12.0211 26.2088 12.1562 26.4834 12.4007C26.758 12.6451 26.9332 12.9819 26.9759 13.347L26.9864 13.521V19.131C26.9868 19.8405 26.811 20.539 26.4746 21.1637C26.1383 21.7884 25.652 22.3198 25.0595 22.71C24.4669 23.1003 23.7867 23.3372 23.08 23.3995C22.3732 23.4619 21.6621 23.3476 21.0104 23.067C21.2324 22.62 21.4064 22.1475 21.5249 21.6525C21.9323 21.8426 22.3798 21.9312 22.8289 21.9107C23.2781 21.8902 23.7156 21.7612 24.104 21.5348C24.4925 21.3084 24.8203 20.9912 25.0595 20.6105C25.2986 20.2297 25.442 19.7968 25.4774 19.3485L25.4864 19.131V13.521H21.7124L21.7034 13.2975C21.6705 12.8478 21.5362 12.4114 21.3104 12.021V12.021ZM14.9819 4.48352C15.868 4.48352 16.7179 4.83554 17.3445 5.46215C17.9711 6.08876 18.3231 6.93862 18.3231 7.82477C18.3231 8.71092 17.9711 9.56078 17.3445 10.1874C16.7179 10.814 15.868 11.166 14.9819 11.166C14.0957 11.166 13.2459 10.814 12.6193 10.1874C11.9927 9.56078 11.6406 8.71092 11.6406 7.82477C11.6406 6.93862 11.9927 6.08876 12.6193 5.46215C13.2459 4.83554 14.0957 4.48352 14.9819 4.48352V4.48352ZM22.4639 5.42552C23.2251 5.42552 23.9552 5.72792 24.4935 6.2662C25.0317 6.80447 25.3341 7.53453 25.3341 8.29577C25.3341 9.05701 25.0317 9.78707 24.4935 10.3253C23.9552 10.8636 23.2251 11.166 22.4639 11.166C21.7027 11.166 20.9726 10.8636 20.4343 10.3253C19.896 9.78707 19.5936 9.05701 19.5936 8.29577C19.5936 7.53453 19.896 6.80447 20.4343 6.2662C20.9726 5.72792 21.7027 5.42552 22.4639 5.42552V5.42552ZM7.52389 5.42552C8.28513 5.42552 9.01519 5.72792 9.55346 6.2662C10.0917 6.80447 10.3941 7.53453 10.3941 8.29577C10.3941 9.05701 10.0917 9.78707 9.55346 10.3253C9.01519 10.8636 8.28513 11.166 7.52389 11.166C6.76265 11.166 6.03259 10.8636 5.49432 10.3253C4.95604 9.78707 4.65364 9.05701 4.65364 8.29577C4.65364 7.53453 4.95604 6.80447 5.49432 6.2662C6.03259 5.72792 6.76265 5.42552 7.52389 5.42552V5.42552ZM14.9819 5.98352C14.4936 5.98352 14.0252 6.17751 13.6799 6.52281C13.3346 6.86811 13.1406 7.33644 13.1406 7.82477C13.1406 8.3131 13.3346 8.78143 13.6799 9.12673C14.0252 9.47203 14.4936 9.66602 14.9819 9.66602C15.4702 9.66602 15.9385 9.47203 16.2838 9.12673C16.6292 8.78143 16.8231 8.3131 16.8231 7.82477C16.8231 7.33644 16.6292 6.86811 16.2838 6.52281C15.9385 6.17751 15.4702 5.98352 14.9819 5.98352V5.98352ZM22.4639 6.92552C22.1005 6.92552 21.7519 7.06989 21.495 7.32686C21.238 7.58383 21.0936 7.93236 21.0936 8.29577C21.0936 8.65918 21.238 9.00771 21.495 9.26468C21.7519 9.52165 22.1005 9.66602 22.4639 9.66602C22.8273 9.66602 23.1758 9.52165 23.4328 9.26468C23.6898 9.00771 23.8341 8.65918 23.8341 8.29577C23.8341 7.93236 23.6898 7.58383 23.4328 7.32686C23.1758 7.06989 22.8273 6.92552 22.4639 6.92552V6.92552ZM7.52389 6.92552C7.16048 6.92552 6.81195 7.06989 6.55498 7.32686C6.29801 7.58383 6.15364 7.93236 6.15364 8.29577C6.15364 8.65918 6.29801 9.00771 6.55498 9.26468C6.81195 9.52165 7.16048 9.66602 7.52389 9.66602C7.8873 9.66602 8.23583 9.52165 8.4928 9.26468C8.74977 9.00771 8.89414 8.65918 8.89414 8.29577C8.89414 7.93236 8.74977 7.58383 8.4928 7.32686C8.23583 7.06989 7.8873 6.92552 7.52389 6.92552V6.92552Z" fill="white"/>
</svg>
