<svg width="72" height="72" viewBox="0 0 72 72" fill="none" xmlns="http://www.w3.org/2000/svg">
<path d="M66.0042 50.7603V59.7603C66.0076 60.5958 65.8364 61.4228 65.5017 62.1883C65.167 62.9539 64.6761 63.6411 64.0604 64.2059C63.4448 64.7707 62.7179 65.2007 61.9264 65.4684C61.135 65.7361 60.2963 65.8355 59.4642 65.7603C50.2327 64.7572 41.3652 61.6027 33.5742 56.5503C26.3257 51.9443 20.1802 45.7988 15.5742 38.5503C10.5041 30.7239 7.34892 21.8133 6.36419 12.5403C6.28923 11.7107 6.38782 10.8746 6.6537 10.0852C6.91957 9.29576 7.34691 8.57036 7.90849 7.95515C8.47008 7.33995 9.15361 6.84842 9.91557 6.51186C10.6775 6.17529 11.5012 6.00108 12.3342 6.00029H21.3342C22.7901 5.98596 24.2016 6.50153 25.3055 7.45089C26.4094 8.40025 27.1304 9.71863 27.3342 11.1603C27.7141 14.0405 28.4185 16.8685 29.4342 19.5903C29.8378 20.6641 29.9252 21.831 29.6859 22.9529C29.4466 24.0748 28.8908 25.1046 28.0842 25.9203L24.2742 29.7303C28.5449 37.2409 34.7636 43.4596 42.2742 47.7303L46.0842 43.9203C46.8999 43.1137 47.9297 42.5578 49.0516 42.3186C50.1734 42.0793 51.3404 42.1667 52.4142 42.5703C55.136 43.5859 57.964 44.2904 60.8442 44.6703C62.3015 44.8759 63.6324 45.6099 64.5838 46.7328C65.5352 47.8556 66.0407 49.289 66.0042 50.7603Z" stroke="#222E27" stroke-width="2" stroke-linecap="round" stroke-linejoin="round"/>
</svg>
