<svg width="59" height="58" viewBox="0 0 59 58" fill="none" xmlns="http://www.w3.org/2000/svg">
<path d="M28.9727 12.5513C25.841 12.5513 22.7797 13.4799 20.1758 15.2198C17.5719 16.9596 15.5424 19.4326 14.344 22.3259C13.1455 25.2191 12.832 28.4028 13.4429 31.4743C14.0539 34.5458 15.5619 37.3672 17.7764 39.5816C19.9908 41.796 22.8121 43.3041 25.8836 43.915C28.9551 44.526 32.1388 44.2124 35.0321 43.014C37.9254 41.8155 40.3983 39.7861 42.1382 37.1822C43.878 34.5783 44.8067 31.5169 44.8067 28.3853C44.8067 24.1858 43.1385 20.1584 40.169 17.1889C37.1996 14.2195 33.1721 12.5513 28.9727 12.5513ZM26.7223 34.9451H22.3491V30.5719H26.7223V34.9451ZM35.4687 30.5719H31.1187V26.1987H26.7223V21.8255H35.4687V26.1987V30.5719Z" fill="black"/>
<path d="M4.38086 36.9983C4.93043 38.5641 5.62967 40.0733 6.46886 41.5049L7.00246 41.1859C6.20568 39.8077 5.54151 38.357 5.01886 36.8533L4.38086 36.9983Z" fill="black"/>
<path d="M28.9732 2.95227C29.9558 2.95238 30.9376 3.00854 31.9138 3.12047L32.0182 2.54047C31.0083 2.40853 29.9916 2.33495 28.9732 2.32007C28.0044 2.32231 27.0363 2.37652 26.0732 2.48247L26.2008 3.06247C27.1224 2.97668 28.0478 2.9399 28.9732 2.95227Z" fill="black"/>
<path d="M50.4326 42.0268L50.9488 42.3748C51.7758 41.0883 52.4843 39.7294 53.0658 38.3148L52.4858 38.1118C51.9178 39.4746 51.2307 40.7847 50.4326 42.0268Z" fill="black"/>
<path d="M37.644 7.08769C37.964 7.0451 38.2666 6.91685 38.5198 6.71649C38.747 6.52772 38.9193 6.28131 39.0186 6.00309C39.1435 5.70116 39.1619 5.36568 39.0708 5.05189C38.9956 4.79342 38.8535 4.55936 38.659 4.37329C38.4069 4.14216 38.1374 3.9308 37.8528 3.74109C37.5686 3.54389 37.354 3.37569 37.2032 3.24809C37.0589 3.12548 36.9456 2.97045 36.8726 2.79569C36.8012 2.60895 36.8012 2.40243 36.8726 2.21569C36.9114 2.08384 36.9804 1.96282 37.074 1.86217C37.1676 1.76152 37.2833 1.68399 37.412 1.63569C37.6873 1.53502 37.9893 1.53502 38.2646 1.63569C38.5602 1.72224 38.8152 1.91146 38.9838 2.16929C39.0526 2.27648 39.0994 2.39633 39.1213 2.52182C39.1432 2.64731 39.1398 2.77592 39.1114 2.90009L39.935 3.19009C39.9939 2.9752 40.0062 2.75022 39.9712 2.53018C39.9362 2.31013 39.8547 2.1001 39.732 1.91409C39.4532 1.50282 39.0449 1.19658 38.572 1.04409C38.229 0.918675 37.8629 0.869202 37.499 0.89909C37.1837 0.921026 36.8815 1.03384 36.629 1.22389C36.381 1.41618 36.197 1.67904 36.1012 1.97789C35.9756 2.2687 35.9491 2.59274 36.0258 2.90009C36.1041 3.15658 36.2504 3.38707 36.4492 3.56709C36.7019 3.79397 36.9714 4.00143 37.2554 4.18769C37.5338 4.37909 37.7542 4.54149 37.9108 4.67489C38.0615 4.80353 38.1789 4.9667 38.253 5.15049C38.3239 5.33733 38.3239 5.54365 38.253 5.73049C38.208 5.86558 38.1322 5.98833 38.0315 6.089C37.9308 6.18968 37.8081 6.26551 37.673 6.31049C37.3705 6.42605 37.0359 6.42605 36.7334 6.31049C36.4148 6.22235 36.1426 6.01456 35.9736 5.73049C35.8444 5.48446 35.8113 5.19916 35.8808 4.93009L35.1036 4.64009C35.0084 4.94013 35.0084 5.26225 35.1036 5.56229C35.1879 5.87308 35.3542 6.15552 35.585 6.38009C35.8551 6.63864 36.1775 6.83639 36.5304 6.96009C36.8856 7.093 37.2679 7.13681 37.644 7.08769Z" fill="black"/>
<path d="M45.2945 6.3045C45.1307 6.00463 44.8957 5.74967 44.6101 5.5621C44.3452 5.38425 44.0441 5.26737 43.7285 5.2199C43.4377 5.17621 43.1405 5.21437 42.8701 5.3301L44.1867 3.3697L43.5255 2.8999L39.9121 8.2765L40.5733 8.7173L42.0523 6.5191C42.2626 6.16618 42.6015 5.90842 42.9977 5.7999C43.18 5.76054 43.3686 5.76089 43.5508 5.80093C43.7329 5.84096 43.9043 5.91973 44.0533 6.0319C44.205 6.12738 44.3351 6.25363 44.435 6.40248C44.5349 6.55134 44.6024 6.7195 44.6333 6.8961C44.6776 7.2921 44.5652 7.68972 44.3201 8.0039L42.8063 10.2543L43.4559 10.6951L45.0335 8.3751C45.2636 8.05711 45.4093 7.68593 45.4569 7.2963C45.509 6.95685 45.4522 6.60961 45.2945 6.3045Z" fill="black"/>
<path d="M47.127 14.1984C47.524 14.3437 47.9532 14.3778 48.3682 14.297C48.8166 14.2042 49.2315 13.9918 49.5688 13.6822C49.9182 13.3913 50.1843 13.0131 50.3402 12.586C50.4823 12.1959 50.5105 11.7734 50.4214 11.368C50.3228 10.9497 50.124 10.5617 49.8421 10.2374C49.5602 9.91302 49.2036 9.66208 48.8032 9.50617C48.4098 9.36226 47.9842 9.33014 47.5736 9.41337C47.131 9.51272 46.7215 9.72446 46.3846 10.0282C46.0418 10.3239 45.7786 10.7007 45.619 11.1244C45.473 11.5133 45.4408 11.9358 45.5262 12.3424C45.6192 12.7595 45.8191 13.1452 46.1062 13.4618C46.3796 13.7887 46.7306 14.0419 47.127 14.1984ZM46.315 11.455C46.4415 11.1423 46.6402 10.864 46.895 10.643C47.1458 10.4107 47.451 10.2452 47.7824 10.1616C48.0576 10.0975 48.3454 10.1136 48.6118 10.208C48.8745 10.3068 49.1079 10.4704 49.2904 10.6836C49.4786 10.8911 49.6121 11.1423 49.679 11.4144C49.7403 11.6945 49.7202 11.9863 49.621 12.2554C49.4998 12.5725 49.3002 12.8539 49.041 13.0732C48.7897 13.3043 48.4814 13.4644 48.1478 13.5372C47.8639 13.6001 47.5679 13.58 47.2952 13.4792C47.0332 13.3791 46.8001 13.2157 46.6166 13.0036C46.4315 12.7986 46.3035 12.5486 46.2454 12.2786C46.1854 12.0033 46.2097 11.7163 46.315 11.455Z" fill="black"/>
<path d="M46.8373 18.2062L49.6793 16.82C49.493 17.0997 49.3849 17.4241 49.3661 17.7596C49.339 18.1357 49.4131 18.5122 49.5807 18.85C49.7535 19.2213 50.0267 19.5367 50.3695 19.7606C50.7153 19.9859 51.117 20.1104 51.5295 20.1202C51.9803 20.1294 52.4264 20.0278 52.8287 19.8244C53.2371 19.6418 53.5924 19.3584 53.8611 19.0008C54.1038 18.6788 54.2506 18.2948 54.2845 17.893C54.3145 17.4937 54.2385 17.0935 54.0641 16.733C53.9077 16.3848 53.659 16.0859 53.3449 15.8688C53.073 15.6756 52.7549 15.5576 52.4227 15.5266L53.2173 15.1496L52.8751 14.4304L46.4951 17.4812L46.8373 18.2062ZM49.9983 17.5972C50.0268 17.3157 50.131 17.0471 50.2999 16.82C50.497 16.556 50.7537 16.3423 51.049 16.1961C51.3443 16.05 51.6699 15.9756 51.9993 15.979C52.2917 15.9886 52.5753 16.0812 52.8171 16.2458C53.0518 16.4068 53.2399 16.6269 53.3623 16.8838C53.4864 17.1419 53.5423 17.4274 53.5247 17.7132C53.5052 18.0029 53.4025 18.2809 53.2289 18.5136C53.0261 18.7653 52.7654 18.9643 52.4691 19.0936C52.1733 19.2446 51.8441 19.3184 51.5121 19.3082C51.2201 19.3016 50.9362 19.211 50.6943 19.0472C50.4581 18.883 50.2699 18.6588 50.1491 18.3976C50.0286 18.149 49.9765 17.8727 49.9983 17.5972Z" fill="black"/>
<path d="M52.295 22.2777C52.1147 22.3012 51.9412 22.3618 51.7855 22.4556C51.6298 22.5494 51.4952 22.6745 51.3902 22.8229C51.2343 23.149 51.2073 23.5219 51.3148 23.8669L51.4714 24.5629L52.1268 24.4121L51.9992 23.8321C51.9343 23.6582 51.9343 23.4667 51.9992 23.2927C52.1112 23.1532 52.2738 23.0636 52.4516 23.0433L55.2066 22.4111L55.485 23.6291L56.123 23.4841L55.8446 22.2661L57.0046 21.9935L56.8306 21.2221L55.6706 21.4889L55.5314 20.9089L54.8992 21.0423L55.0384 21.6223L52.295 22.2777Z" fill="black"/>
<path d="M53.826 26.4945L53.8898 30.3283H54.3712C54.7778 30.3264 55.1771 30.2206 55.5312 30.0209C55.8719 29.83 56.1514 29.5465 56.3374 29.2031C56.5384 28.8372 56.6423 28.4258 56.639 28.0083C56.6393 27.5754 56.5274 27.1497 56.3142 26.7729C56.1067 26.4205 55.8028 26.1348 55.4384 25.9493C55.0275 25.7611 54.5793 25.6681 54.1274 25.6771C53.6755 25.6862 53.2315 25.797 52.8284 26.0015C52.4668 26.2006 52.1691 26.4983 51.97 26.8599C51.7702 27.2382 51.6722 27.6619 51.6858 28.0895C51.6765 28.6027 51.8377 29.1045 52.144 29.5163C52.4331 29.8917 52.8428 30.156 53.304 30.2645V29.4061C53.0147 29.3395 52.758 29.1732 52.579 28.9363C52.4086 28.6828 52.3196 28.3833 52.3238 28.0779C52.3145 27.8762 52.3456 27.6747 52.4153 27.4852C52.485 27.2958 52.5919 27.1222 52.7297 26.9746C52.8675 26.8271 53.0335 26.7086 53.2178 26.6261C53.402 26.5437 53.601 26.4989 53.8028 26.4945H53.826ZM55.566 26.9585C55.8267 27.2364 55.97 27.6041 55.9662 27.9851C55.9751 28.2491 55.9214 28.5114 55.8096 28.7507C55.7067 28.9871 55.5374 29.1885 55.3224 29.3307C55.0852 29.4709 54.8149 29.545 54.5394 29.5453L54.493 26.5177C54.8882 26.5245 55.2659 26.6822 55.5486 26.9585H55.566Z" fill="black"/>
<path d="M56.1753 32.9962L56.2972 32.4162L55.6475 32.2886L55.5315 32.8976L52.7591 32.3524C52.5833 32.302 52.3991 32.2879 52.2177 32.3108C52.0362 32.3337 51.8613 32.3933 51.7035 32.4858C51.4315 32.7222 51.2561 33.0505 51.2105 33.408L51.0771 34.1098L51.7383 34.2432L51.8485 33.6632C51.8645 33.4789 51.9519 33.3082 52.0921 33.1876C52.1691 33.1444 52.2541 33.1174 52.3419 33.1084C52.4297 33.0995 52.5184 33.1086 52.6025 33.1354L55.3749 33.6806L55.1372 34.9102L55.7809 35.0378L56.0187 33.8082L57.1788 34.0402L57.3296 33.2572L56.1753 32.9962Z" fill="black"/>
<path d="M45.834 43.7377L47.6378 45.5415L46.8084 46.3999C46.5896 46.5838 46.4094 46.8092 46.278 47.063C46.1466 47.3168 46.0667 47.5941 46.0428 47.8789C46.0474 48.3563 46.241 48.8124 46.5813 49.1472C46.9216 49.4821 47.3808 49.6684 47.8582 49.6653C48.4232 49.6079 48.9455 49.3385 49.3198 48.9113L50.7118 47.5135L46.4024 43.2041L45.834 43.7377ZM49.6794 47.5889L48.85 48.4183C48.27 48.9983 47.69 49.0679 47.11 48.5343C47.001 48.431 46.9151 48.3057 46.8581 48.1667C46.8011 48.0277 46.7743 47.8782 46.7794 47.7281C46.8244 47.3799 46.9982 47.0612 47.2666 46.8349L48.096 46.0055L49.6794 47.5889Z" fill="black"/>
<path d="M41.6172 47.3397L43.0498 49.5147C43.5834 50.3267 43.4771 50.9763 42.7308 51.4635L42.5568 51.5795L43.0092 52.2697C43.2903 52.0947 43.5204 51.8486 43.6762 51.5563C43.8103 51.2893 43.8628 50.9888 43.827 50.6921L44.2562 51.3417L44.9174 50.9067L42.2842 46.8989L41.6172 47.3397Z" fill="black"/>
<path d="M39.4885 49.9265C39.1773 49.6549 38.795 49.4778 38.3865 49.4161C37.9643 49.3599 37.5348 49.4139 37.1395 49.5727C36.6637 49.7473 36.2569 50.0707 35.9795 50.4949C35.7326 50.8913 35.6245 51.3585 35.6721 51.8231L36.4725 51.5157C36.4595 51.2396 36.5369 50.9667 36.6929 50.7385C36.8691 50.4905 37.1186 50.3038 37.4063 50.2049C37.59 50.128 37.7872 50.0884 37.9863 50.0884C38.1855 50.0884 38.3826 50.128 38.5663 50.2049C38.9361 50.366 39.2277 50.6659 39.3783 51.0401L35.8055 52.4263C35.8471 52.5818 35.8974 52.7347 35.9563 52.8845C36.0968 53.2709 36.3345 53.6145 36.6465 53.8821C36.9442 54.1361 37.3086 54.2991 37.6963 54.3519C38.1153 54.4083 38.5416 54.3522 38.9317 54.1895C39.3363 54.0416 39.6958 53.7919 39.9757 53.4645C40.2362 53.1484 40.3994 52.7636 40.4455 52.3567C40.4872 51.9083 40.4196 51.4566 40.2483 51.0401C40.0948 50.6099 39.8332 50.2264 39.4885 49.9265ZM39.5407 52.8265C39.37 53.1667 39.0752 53.4283 38.7171 53.5573C38.4721 53.6538 38.2083 53.6935 37.9457 53.6733C37.6944 53.6542 37.4544 53.5614 37.2555 53.4065C37.0389 53.2367 36.8741 53.0097 36.7799 52.7511L39.6045 51.6549C39.7331 52.0374 39.7103 52.4546 39.5407 52.8207V52.8265Z" fill="black"/>
<path d="M32.8999 51.04L32.9985 53.679C33.0406 54.0929 32.9246 54.5073 32.6737 54.839C32.5521 54.9773 32.4021 55.0877 32.2339 55.1628C32.0658 55.2378 31.8835 55.2758 31.6993 55.274C31.5215 55.2892 31.3424 55.2659 31.1743 55.2059C31.0062 55.1458 30.853 55.0504 30.7249 54.926C30.46 54.6303 30.3188 54.2441 30.3305 53.8472L30.2261 51.1328L29.4373 51.1676L29.5417 53.8066C29.5838 54.2204 29.4678 54.6349 29.2169 54.9666C29.0963 55.1065 28.9467 55.2185 28.7784 55.2946C28.6101 55.3707 28.4272 55.4092 28.2425 55.4074C28.0656 55.4225 27.8874 55.3992 27.7203 55.3391C27.5531 55.2791 27.4009 55.1837 27.2739 55.0594C27.006 54.7628 26.8627 54.3744 26.8737 53.9748L26.7693 51.2662H25.9863L26.0907 54.0908C26.0926 54.4838 26.1965 54.8695 26.3923 55.2102C26.5569 55.4998 26.8058 55.7324 27.1057 55.8772C27.4209 56.0247 27.7674 56.0924 28.1149 56.0744C28.4778 56.0627 28.8307 55.9524 29.1357 55.7554C29.4304 55.5621 29.6527 55.2765 29.7679 54.9434C29.9194 55.2691 30.1716 55.5375 30.4871 55.709C30.8193 55.882 31.192 55.9621 31.5659 55.941C31.8709 55.9331 32.1694 55.8515 32.4359 55.7032C32.6891 55.5685 32.9015 55.3682 33.0507 55.1232V55.8134H33.8511L33.6655 51.0168L32.8999 51.04Z" fill="black"/>
<path d="M22.6737 56.0339C22.5345 56.0064 22.3902 56.0349 22.2719 56.113C22.1536 56.1912 22.0708 56.3128 22.0415 56.4515C22.0241 56.52 22.0208 56.5913 22.0317 56.661C22.0427 56.7308 22.0677 56.7977 22.1053 56.8575C22.142 56.9176 22.1903 56.9697 22.2475 57.0108C22.3047 57.0519 22.3695 57.0811 22.4381 57.0968C22.5068 57.1125 22.5778 57.1143 22.6472 57.1021C22.7165 57.0898 22.7827 57.0639 22.8419 57.0257C22.9037 56.9884 22.9573 56.9387 22.9992 56.8799C23.0411 56.821 23.0704 56.7542 23.0855 56.6835C23.1121 56.5364 23.0809 56.3847 22.9985 56.2601C22.9236 56.1454 22.8072 56.0643 22.6737 56.0339Z" fill="black"/>
<path d="M23.5308 50.5148L22.4697 55.1926L23.2446 55.3684L24.3057 50.6906L23.5308 50.5148Z" fill="black"/>
<path d="M20.8012 49.8799C20.5792 49.6088 20.2945 49.3958 19.9718 49.2593C19.6907 49.129 19.3821 49.0693 19.0728 49.0853C18.7825 49.0967 18.5012 49.1891 18.2608 49.3521L18.545 48.7025L17.82 48.3835L15.877 52.7799L16.6194 53.0699L17.6866 50.6629C17.8273 50.2712 18.1141 49.9491 18.487 49.7639C18.66 49.6957 18.8454 49.6646 19.0313 49.6726C19.2171 49.6806 19.3992 49.7275 19.5658 49.8103C19.7358 49.8746 19.8901 49.9747 20.0182 50.1038C20.1463 50.2329 20.2452 50.388 20.3082 50.5585C20.3673 50.7496 20.3881 50.9505 20.3691 51.1496C20.3502 51.3487 20.292 51.5421 20.198 51.7185L19.0844 54.172L19.8036 54.4909L20.9636 51.9215C21.1387 51.5613 21.2148 51.1609 21.184 50.7615C21.1461 50.4363 21.013 50.1296 20.8012 49.8799Z" fill="black"/>
<path d="M15.6617 47.1193L13.8637 49.0565C13.5969 49.3752 13.2202 49.5822 12.8081 49.6365C12.6252 49.6462 12.4422 49.6171 12.2713 49.5512C12.1003 49.4852 11.9453 49.3838 11.8163 49.2537C11.6861 49.1377 11.5817 48.9957 11.5097 48.8369C11.4378 48.678 11.4 48.5058 11.3987 48.3315C11.4208 47.9338 11.5953 47.5599 11.8859 47.2875L13.7187 45.3039L13.1387 44.7645L11.3349 46.6959C11.0716 47.0188 10.6931 47.2267 10.2793 47.2759C10.0961 47.2883 9.91235 47.2605 9.74101 47.1943C9.56968 47.1282 9.41489 47.0254 9.28751 46.8931C9.15176 46.7791 9.04213 46.6372 8.96607 46.4771C8.89001 46.3169 8.84931 46.1423 8.84671 45.9651C8.86968 45.5659 9.0439 45.1905 9.33391 44.9153L11.1841 42.9201L10.6041 42.3865L8.67271 44.4513C8.39845 44.7296 8.19894 45.0728 8.09271 45.4489C7.99644 45.7685 7.99644 46.1094 8.09271 46.4291C8.21346 46.7564 8.4126 47.0491 8.67271 47.2817C8.93592 47.5318 9.26307 47.7044 9.61811 47.7805C9.96232 47.8573 10.3224 47.8143 10.6389 47.6587C10.519 48.002 10.517 48.3755 10.6331 48.7201C10.7387 49.0763 10.9392 49.3971 11.2131 49.6481C11.4315 49.8599 11.6983 50.0152 11.9903 50.1005C12.2711 50.1786 12.5679 50.1786 12.8487 50.1005L12.3789 50.6051L12.9589 51.1503L16.2301 47.6703L15.6617 47.1193Z" fill="black"/>
<path d="M8.69058 31.7724L5.54698 32.0624C5.81671 31.872 6.03412 31.6167 6.17918 31.32C6.33253 30.9742 6.39252 30.5943 6.35318 30.218C6.31927 29.8119 6.17485 29.4228 5.93558 29.0928C5.6916 28.7628 5.36009 28.5076 4.97858 28.3562C4.56048 28.1916 4.10891 28.1299 3.66198 28.1764C3.21447 28.2099 2.78214 28.3534 2.40338 28.594C2.06306 28.8147 1.79103 29.126 1.61788 29.4928C1.44472 29.8596 1.3773 30.2674 1.42318 30.6704C1.44897 31.0512 1.57723 31.418 1.79438 31.7318C1.98646 32.0038 2.24372 32.2231 2.54258 32.3698L1.65518 32.422L1.72478 33.2108L8.76598 32.567L8.69058 31.7724ZM4.95538 31.9C4.67792 32.0767 4.36117 32.1823 4.03318 32.2074C3.70748 32.2464 3.37727 32.1984 3.07618 32.0682C2.80609 31.9573 2.57286 31.7724 2.40338 31.5346C2.23798 31.3006 2.13971 31.0259 2.11918 30.74C2.0891 30.4547 2.13512 30.1666 2.25258 29.9048C2.3776 29.6373 2.57953 29.4132 2.83258 29.261C3.10885 29.0819 3.42625 28.9761 3.75478 28.9536C4.08563 28.9148 4.42092 28.9607 4.72918 29.087C4.99918 29.1952 5.23262 29.3784 5.40198 29.6148C5.56582 29.8496 5.66394 30.124 5.68618 30.4094C5.71627 30.6934 5.66814 30.9802 5.54698 31.2388C5.41682 31.5111 5.21156 31.7405 4.95538 31.9Z" fill="black"/>
<path d="M2.51375 25.7926C2.86841 26.069 3.28755 26.2506 3.73175 26.3204C4.17256 26.41 4.62863 26.3901 5.05995 26.2624C5.45176 26.1499 5.80368 25.9287 6.07495 25.6244C6.34375 25.3189 6.52422 24.946 6.59695 24.5456C6.67295 24.1725 6.6469 23.7858 6.52155 23.4262C6.4091 23.1044 6.20805 22.8209 5.94155 22.6084L6.81735 22.7708L6.96815 21.9762L2.25275 21.1062L2.11935 21.895L2.98935 22.04C2.67446 22.1564 2.39759 22.357 2.18895 22.62C1.94365 22.9135 1.7832 23.2685 1.72495 23.6466C1.64732 24.0459 1.67939 24.4588 1.81775 24.8414C1.95804 25.2163 2.19884 25.5454 2.51375 25.7926ZM2.43255 23.606C2.48474 23.3242 2.60858 23.0605 2.79215 22.8404C2.98195 22.6221 3.22908 22.4614 3.50555 22.3764C3.81917 22.2786 4.15261 22.2626 4.47415 22.33C4.80077 22.3851 5.10921 22.5184 5.37315 22.7186C5.60317 22.8975 5.77642 23.1393 5.87195 23.4146C5.96857 23.6841 5.99062 23.9746 5.93575 24.2556C5.8938 24.5345 5.77761 24.7969 5.59935 25.0154C5.40954 25.2337 5.16241 25.3944 4.88595 25.4794C4.55316 25.5823 4.19922 25.5963 3.85935 25.52C3.53596 25.4694 3.23066 25.3377 2.97195 25.1372C2.74512 24.9576 2.57247 24.7187 2.47315 24.447C2.38672 24.175 2.37273 23.8851 2.43255 23.606Z" fill="black"/>
<path d="M7.9715 19.546L5.5993 18.5136C4.7119 18.1308 4.4393 17.5334 4.7931 16.7098L4.8801 16.5184L4.1203 16.1936C3.9828 16.4948 3.9268 16.8268 3.9579 17.1564C3.98132 17.4572 4.09447 17.7441 4.2827 17.98L3.5693 17.6494L3.2793 18.3802L7.6583 20.3L7.9715 19.546Z" fill="black"/>
<path d="M5.01862 14.6218L5.59862 14.9756L5.93502 14.4536L8.31302 15.9848C8.45639 16.0977 8.62182 16.1792 8.79865 16.2242C8.97548 16.2691 9.15977 16.2765 9.33962 16.2458C9.68166 16.1304 9.96752 15.8901 10.14 15.573L10.5228 14.993L9.94282 14.6334L9.65862 15.08C9.57398 15.2451 9.4315 15.3731 9.25842 15.4396C9.07962 15.4581 8.90066 15.4061 8.75962 15.2946L6.38742 13.7634L7.03702 12.7601L6.45702 12.4062L5.80742 13.427L4.79242 12.7601L4.35742 13.4328L5.37242 14.0882L5.01862 14.6218Z" fill="black"/>
<path d="M11.9213 13.2239L10.0479 11.3447C9.73151 11.0731 9.5355 10.6874 9.5027 10.2717C9.50046 10.0863 9.53755 9.90262 9.61153 9.73266C9.68552 9.5627 9.79471 9.41036 9.9319 9.2857C10.0535 9.15134 10.2022 9.04417 10.3681 8.97121C10.534 8.89825 10.7135 8.86113 10.8947 8.8623C11.2915 8.89726 11.6593 9.08431 11.9213 9.3843L13.8411 11.3041L14.4211 10.7241L12.4201 8.7231C12.237 8.5133 12.0129 8.34329 11.7615 8.22357C11.5101 8.10386 11.2368 8.03699 10.9585 8.0271C10.6921 8.03859 10.4307 8.10416 10.1904 8.21982C9.95014 8.33548 9.73589 8.49882 9.5607 8.6999C9.34433 8.91309 9.17966 9.173 9.0793 9.4597C8.98138 9.73319 8.96327 10.0289 9.0271 10.3123L8.5341 9.8599L7.9541 10.4399L11.3413 13.8329L11.9213 13.2239Z" fill="black"/>
<path d="M14.2991 7.77205C14.5187 8.16994 14.8361 8.5053 15.2213 8.74645C15.5683 8.96558 15.9709 9.08034 16.3813 9.07705C16.8067 9.06712 17.2223 8.94724 17.5877 8.72905C18.0391 8.4838 18.3991 8.09931 18.6143 7.63285C18.8 7.20469 18.8348 6.72615 18.7129 6.27565L17.9705 6.70485C18.0254 6.97527 17.9908 7.25624 17.8719 7.50525C17.7405 7.76657 17.5319 7.98119 17.2745 8.12005C16.9389 8.32847 16.5358 8.39912 16.1493 8.31725C15.9467 8.26945 15.7557 8.18174 15.5874 8.05925C15.4191 7.93675 15.2769 7.78194 15.1691 7.60385L18.4867 5.67825C18.4113 5.52165 18.3417 5.38245 18.2663 5.24905C18.0642 4.89096 17.7749 4.58971 17.4253 4.37325C17.0911 4.17203 16.7076 4.06761 16.3175 4.07165C15.8951 4.08266 15.483 4.20468 15.1227 4.42545C14.7459 4.63476 14.43 4.9386 14.2063 5.30705C13.9983 5.65704 13.8975 6.06034 13.9163 6.46705C13.9321 6.92732 14.0638 7.37617 14.2991 7.77205ZM14.7225 5.89865C14.8465 5.52871 15.1111 5.22243 15.4591 5.04605C15.6871 4.91082 15.943 4.82948 16.2073 4.80825C16.459 4.78989 16.7106 4.84425 16.9323 4.96485C17.1764 5.09963 17.3775 5.3007 17.5123 5.54485L14.8791 7.06445C14.6825 6.709 14.6305 6.29142 14.7341 5.89865H14.7225Z" fill="black"/>
<path d="M20.9225 2.15176C20.7217 2.37102 20.5923 2.64609 20.5513 2.94056L20.3077 2.20396L19.5537 2.44756L21.0327 7.00636L21.7867 6.76276L20.9805 4.28036C20.6789 3.35816 20.9573 2.76076 21.8389 2.48816L22.0361 2.42436L21.7867 1.64136C21.4564 1.7269 21.1569 1.90379 20.9225 2.15176Z" fill="black"/>
</svg>
