<svg width="65" height="64" viewBox="0 0 65 64" fill="none" xmlns="http://www.w3.org/2000/svg">
<path d="M47.3039 22.8066C46.1924 23.2759 45.0191 23.597 43.8212 23.7699C45.0932 23.0165 46.0319 21.8186 46.4641 20.4106C45.2785 21.1146 43.9817 21.6333 42.6232 21.9174C40.326 19.472 36.4851 19.3485 34.0398 21.6457C32.8171 22.7942 32.1255 24.3874 32.1255 26.0547C32.1255 26.524 32.1872 26.981 32.3107 27.4379C27.42 27.2033 22.8628 24.9061 19.7629 21.127C19.2565 22.0409 18.9848 23.0783 18.9848 24.1281C18.9848 26.1535 19.9975 28.0431 21.6895 29.167C20.7138 29.1299 19.7629 28.8582 18.9231 28.3889V28.4507C18.9231 31.3406 20.9485 33.823 23.7767 34.3911C23.2456 34.5393 22.7022 34.6134 22.1588 34.6258C21.776 34.6134 21.3931 34.5764 21.0226 34.5023C21.8254 36.96 24.0855 38.6396 26.6667 38.7014C24.5054 40.381 21.8501 41.2949 19.1083 41.2826C18.6266 41.2949 18.145 41.2826 17.6633 41.2332C20.4421 43.0487 23.7026 44.012 27.0248 43.9996C36.5098 44.0614 44.2411 36.4289 44.3028 26.9439C44.3028 26.8698 44.3028 26.7957 44.3028 26.7093V25.9312C45.4761 25.0667 46.4888 24.0169 47.3039 22.8066Z" fill="#DEF8E8"/>
<rect x="0.983643" y="0.5" width="63" height="63" stroke="#9BEABB"/>
</svg>
