<svg width="27" height="28" viewBox="0 0 27 28" fill="none" xmlns="http://www.w3.org/2000/svg">
<path d="M19.1467 16.6667C19.2533 15.7867 19.3333 14.9067 19.3333 14.0001C19.3333 13.0934 19.2533 12.2134 19.1467 11.3334H23.6533C23.8667 12.1867 24 13.0801 24 14.0001C24 14.9201 23.8667 15.8134 23.6533 16.6667H19.1467ZM16.7867 24.0801C17.5867 22.6001 18.2 21.0001 18.6267 19.3334H22.56C21.2682 21.5578 19.2188 23.2427 16.7867 24.0801ZM16.4533 16.6667H10.2133C10.08 15.7867 10 14.9067 10 14.0001C10 13.0934 10.08 12.2001 10.2133 11.3334H16.4533C16.5733 12.2001 16.6667 13.0934 16.6667 14.0001C16.6667 14.9067 16.5733 15.7867 16.4533 16.6667ZM13.3333 24.6134C12.2267 23.0134 11.3333 21.2401 10.7867 19.3334H15.88C15.3333 21.2401 14.44 23.0134 13.3333 24.6134ZM8 8.66675H4.10667C5.38514 6.43637 7.43306 4.74873 9.86667 3.92008C9.06667 5.40008 8.46667 7.00008 8 8.66675ZM4.10667 19.3334H8C8.46667 21.0001 9.06667 22.6001 9.86667 24.0801C7.43817 23.2423 5.39313 21.557 4.10667 19.3334ZM3.01333 16.6667C2.8 15.8134 2.66667 14.9201 2.66667 14.0001C2.66667 13.0801 2.8 12.1867 3.01333 11.3334H7.52C7.41333 12.2134 7.33333 13.0934 7.33333 14.0001C7.33333 14.9067 7.41333 15.7867 7.52 16.6667H3.01333ZM13.3333 3.37341C14.44 4.97342 15.3333 6.76008 15.88 8.66675H10.7867C11.3333 6.76008 12.2267 4.97342 13.3333 3.37341ZM22.56 8.66675H18.6267C18.2094 7.01536 17.5914 5.42128 16.7867 3.92008C19.24 4.76008 21.28 6.45341 22.56 8.66675ZM13.3333 0.666748C5.96 0.666748 0 6.66675 0 14.0001C0 17.5363 1.40476 20.9277 3.90524 23.4282C5.14336 24.6663 6.61321 25.6484 8.23089 26.3185C9.84856 26.9885 11.5824 27.3334 13.3333 27.3334C16.8696 27.3334 20.2609 25.9287 22.7614 23.4282C25.2619 20.9277 26.6667 17.5363 26.6667 14.0001C26.6667 12.2491 26.3218 10.5153 25.6517 8.89764C24.9817 7.27996 23.9995 5.81011 22.7614 4.57199C21.5233 3.33388 20.0535 2.35175 18.4358 1.68169C16.8181 1.01162 15.0843 0.666748 13.3333 0.666748Z" fill="white"/>
</svg>
