<svg width="101" height="100" viewBox="0 0 101 100" fill="none" xmlns="http://www.w3.org/2000/svg">
<g clip-path="url(#clip0_1_1479)">
<path d="M89.7872 28.4375C93.2872 34.8417 95.2788 42.1875 95.2788 50C95.2788 66.5792 86.2955 81.0667 72.933 88.8542L86.6622 49.1583C89.2247 42.7417 90.0788 37.6125 90.0788 33.0583C90.0788 31.3708 89.9705 29.8083 89.7872 28.4333V28.4375ZM56.533 28.8708C59.2288 28.7458 61.6663 28.4333 61.6663 28.4333C64.0913 28.1208 63.808 24.5583 61.3872 24.6875C61.3872 24.6875 54.0747 25.25 49.3872 25.25C44.9538 25.25 37.5122 24.625 37.5122 24.625C35.0747 24.5 34.758 28.1875 37.1997 28.3125C37.1997 28.3125 39.4497 28.5667 41.8872 28.6875L48.8872 47.875L39.0122 77.375L22.6413 28.75C25.3455 28.625 27.783 28.3333 27.783 28.3333C30.2205 28.0208 29.933 24.4583 27.5122 24.6C27.5122 24.6 20.2372 25.175 15.5372 25.175C14.7038 25.175 13.7122 25.1417 12.6622 25.1125C20.7955 13.125 34.6455 5.0625 50.333 5.0625C62.0372 5.0625 72.6872 9.52917 80.6913 16.8667C80.4997 16.8542 80.3122 16.8292 80.1038 16.8292C75.6872 16.8292 72.5538 20.675 72.5538 24.8042C72.5538 28.5125 74.6913 31.65 76.9705 35.35C78.683 38.35 80.6788 42.1958 80.6788 47.7542C80.6788 51.5667 79.2038 56.0625 77.258 62.25L72.7788 77.1875L56.5288 28.8125L56.533 28.8708ZM50.333 94.9333C45.9205 94.9333 41.6622 94.2958 37.633 93.1125L51.1205 53.9208L64.933 91.7833C65.033 92.0042 65.1413 92.2042 65.258 92.4042C60.5913 94.0417 55.5705 94.9417 50.333 94.9417V94.9333ZM5.37884 50C5.37884 43.4833 6.77884 37.2917 9.27467 31.7083L30.708 90.4542C15.7247 83.1667 5.38301 67.7958 5.37884 50ZM50.333 0C22.7705 0 0.333008 22.4375 0.333008 50C0.333008 77.5625 22.7705 100 50.333 100C77.8955 100 100.333 77.5625 100.333 50C100.333 22.4375 77.8955 0 50.333 0Z" fill="#BDBDBD"/>
</g>
<defs>
<clipPath id="clip0_1_1479">
<rect width="100" height="100" fill="white" transform="translate(0.333008)"/>
</clipPath>
</defs>
</svg>
