<svg width="30" height="24" viewBox="0 0 30 24" fill="none" xmlns="http://www.w3.org/2000/svg">
<path d="M14.9999 0C10.4338 0 4.50722 1.14407 4.50722 1.14407L4.49231 1.16112C2.41265 1.49372 0.819336 3.28075 0.819336 5.45406V11.9989V12.0011V18.5438V18.5459C0.821365 19.5839 1.19334 20.5871 1.86848 21.3755C2.54361 22.1639 3.47768 22.6857 4.50296 22.8474L4.50722 22.8538C4.50722 22.8538 10.4338 24 14.9999 24C19.566 24 25.4926 22.8538 25.4926 22.8538L25.4947 22.8517C26.5211 22.6903 27.4562 22.168 28.1319 21.3787C28.8075 20.5894 29.1794 19.5849 29.1805 18.5459V18.5438V12.0011V11.9989V5.45406C29.1789 4.41575 28.8072 3.41201 28.132 2.62319C27.4568 1.83438 26.5225 1.31219 25.4968 1.15047L25.4926 1.14407C25.4926 1.14407 19.566 0 14.9999 0ZM11.7275 6.97949L20.454 11.9989L11.7275 17.0184V6.97949Z" fill="#59DC8E"/>
</svg>
