<svg width="65" height="64" viewBox="0 0 65 64" fill="none" xmlns="http://www.w3.org/2000/svg">
<path d="M32.4835 20C27.9174 20 21.9909 21.1441 21.9909 21.1441L21.9759 21.1611C19.8963 21.4937 18.303 23.2808 18.303 25.4541V31.9989V32.0011V38.5438V38.5459C18.305 39.5839 18.677 40.5871 19.3521 41.3755C20.0273 42.1639 20.9613 42.6857 21.9866 42.8474L21.9909 42.8538C21.9909 42.8538 27.9174 44 32.4835 44C37.0497 44 42.9762 42.8538 42.9762 42.8538L42.9783 42.8517C44.0047 42.6903 44.9399 42.168 45.6155 41.3787C46.2912 40.5894 46.663 39.5849 46.6641 38.5459V38.5438V32.0011V31.9989V25.4541C46.6626 24.4157 46.2908 23.412 45.6156 22.6232C44.9405 21.8344 44.0061 21.3122 42.9805 21.1505L42.9762 21.1441C42.9762 21.1441 37.0497 20 32.4835 20ZM29.2111 26.9795L37.9376 31.9989L29.2111 37.0184V26.9795Z" fill="#DEF8E8"/>
<rect x="0.983643" y="0.5" width="63" height="63" stroke="#9BEABB"/>
</svg>
