<svg width="57" height="56" viewBox="0 0 57 56" fill="none" xmlns="http://www.w3.org/2000/svg">
<g clip-path="url(#clip0_1785_7157)">
<path d="M21.033 25.258C21.033 24.1948 20.1715 23.3333 19.1084 23.3333H16.8925C15.8278 23.3333 14.9663 24.1948 14.9663 25.258C14.9663 26.1346 14.3657 26.8869 13.5483 27.2084C13.4193 27.26 13.2904 27.3146 13.1645 27.3692C12.3592 27.718 11.4022 27.6119 10.7803 26.9915C10.4194 26.6309 9.9301 26.4283 9.41989 26.4283C8.90968 26.4283 8.42034 26.6309 8.05944 26.9915L6.49121 28.5598C6.13056 28.9207 5.92797 29.41 5.92797 29.9202C5.92797 30.4304 6.13056 30.9198 6.49121 31.2807C7.11304 31.9025 7.21921 32.858 6.86734 33.6649C6.81206 33.7918 6.75897 33.9198 6.70809 34.0486C6.38656 34.8661 5.63429 35.4667 4.75766 35.4667C3.69447 35.4667 2.83301 36.3281 2.83301 37.3913V39.6087C2.83301 40.6719 3.69447 41.5333 4.75766 41.5333C5.63429 41.5333 6.38656 42.1339 6.70809 42.9514C6.75966 43.0803 6.81426 43.2093 6.86734 43.3351C7.21769 44.1405 7.11152 45.0975 6.49121 45.7193C6.13056 46.0802 5.92797 46.5696 5.92797 47.0798C5.92797 47.59 6.13056 48.0793 6.49121 48.4402L8.05944 50.0085C8.42034 50.3691 8.90968 50.5717 9.41989 50.5717C9.9301 50.5717 10.4194 50.3691 10.7803 50.0085C11.4022 49.3866 12.3577 49.2805 13.1645 49.6308C13.2904 49.6869 13.4193 49.74 13.5483 49.7916C14.3657 50.1131 14.9663 50.8654 14.9663 51.742C14.9663 52.8052 15.8278 53.6667 16.891 53.6667H19.1084C20.1715 53.6667 21.033 52.8052 21.033 51.742C21.033 50.8654 21.6336 50.1131 22.4511 49.7901C22.58 49.74 22.7089 49.6869 22.8348 49.6323C23.6402 49.2805 24.5972 49.3881 25.2175 50.0085C25.3962 50.1873 25.6084 50.3291 25.842 50.4259C26.0755 50.5226 26.3259 50.5725 26.5787 50.5725C26.8315 50.5725 27.0819 50.5226 27.3154 50.4259C27.549 50.3291 27.7612 50.1873 27.9399 50.0085L29.5081 48.4402C29.8688 48.0793 30.0714 47.59 30.0714 47.0798C30.0714 46.5696 29.8688 46.0802 29.5081 45.7193C28.8863 45.0975 28.7801 44.142 29.1305 43.3351C29.1866 43.2093 29.2397 43.0803 29.2913 42.9514C29.6128 42.1339 30.3651 41.5333 31.2417 41.5333C32.3049 41.5333 33.1663 40.6719 33.1663 39.6087V37.3928C33.1663 36.3297 32.3049 35.4682 31.2417 35.4682C30.3651 35.4682 29.6128 34.8676 29.2897 34.0501C29.2389 33.9213 29.1858 33.7933 29.1305 33.6664C28.7817 32.861 28.8878 31.904 29.5081 31.2822C29.8688 30.9213 30.0714 30.4319 30.0714 29.9217C30.0714 29.4115 29.8688 28.9222 29.5081 28.5613L27.9399 26.9931C27.579 26.6324 27.0897 26.4298 26.5795 26.4298C26.0692 26.4298 25.5799 26.6324 25.219 26.9931C24.5972 27.6149 23.6417 27.7211 22.8348 27.3707C22.7078 27.3149 22.5799 27.2613 22.4511 27.2099C21.6336 26.8869 21.033 26.1346 21.033 25.2595V25.258Z" stroke="#59DC8E" stroke-width="2"/>
<path d="M21.5 38.5C21.5 39.4283 21.1313 40.3185 20.4749 40.9749C19.8185 41.6313 18.9283 42 18 42C17.0717 42 16.1815 41.6313 15.5251 40.9749C14.8687 40.3185 14.5 39.4283 14.5 38.5C14.5 37.5717 14.8687 36.6815 15.5251 36.0251C16.1815 35.3687 17.0717 35 18 35C18.9283 35 19.8185 35.3687 20.4749 36.0251C21.1313 36.6815 21.5 37.5717 21.5 38.5V38.5Z" stroke="#59DC8E" stroke-width="2"/>
<path d="M47.2109 7.35667C47.5526 6.5245 47.1552 5.5733 46.323 5.23155L44.5887 4.51929C43.7553 4.17705 42.8041 4.57443 42.4623 5.4066C42.1806 6.09276 41.4686 6.48852 40.7254 6.47742C40.6079 6.47634 40.4895 6.47764 40.3734 6.47991C39.6309 6.49408 38.916 6.10336 38.6286 5.41794C38.4621 5.01965 38.1442 4.70379 37.7448 4.53978C37.3455 4.37578 36.8973 4.37706 36.4989 4.54334L34.7674 5.26673C34.3691 5.43329 34.0532 5.75119 33.8892 6.15054C33.7252 6.54989 33.7265 6.99803 33.8927 7.39644C34.1796 8.08304 33.9555 8.86506 33.4208 9.38351C33.3367 9.46513 33.254 9.54819 33.1728 9.63266C32.6583 10.1692 31.8765 10.3975 31.1903 10.1157C30.3581 9.77393 29.4069 10.1713 29.0652 11.0035L28.3524 12.7391C28.0107 13.5712 28.4081 14.5224 29.2402 14.8642C29.9264 15.146 30.3222 15.8579 30.3111 16.6011C30.31 16.7186 30.3113 16.837 30.3124 16.9526C30.3277 17.6956 29.937 18.4106 29.2516 18.6979C28.8533 18.8644 28.5374 19.1823 28.3734 19.5817C28.2094 19.9811 28.2107 20.4292 28.377 20.8276L29.1004 22.5592C29.2669 22.9575 29.5848 23.2733 29.9842 23.4373C30.3835 23.6013 30.8317 23.6001 31.2301 23.4338C31.9167 23.1469 32.6987 23.371 33.2176 23.9046C33.2981 23.989 33.382 24.0719 33.4663 24.1537C34.0028 24.6682 34.2311 25.4501 33.9493 26.1362C33.6076 26.9684 34.0049 27.9196 34.8371 28.2613L36.5727 28.9741C37.4049 29.3158 38.3561 28.9185 38.6978 28.0863C38.9796 27.4001 39.6915 27.0044 40.4352 27.0143C40.5522 27.0165 40.6702 27.0164 40.7863 27.0142C41.5297 26.9976 42.2442 27.3895 42.5303 28.0745C42.6128 28.2719 42.7333 28.4511 42.885 28.6019C43.0367 28.7527 43.2166 28.8722 43.4145 28.9535C43.6124 29.0347 43.8243 29.0762 44.0383 29.0755C44.2522 29.0749 44.4639 29.0321 44.6612 28.9496L46.3928 28.2262C46.7911 28.0596 47.107 27.7417 47.271 27.3424C47.435 26.943 47.4337 26.4949 47.2674 26.0965C46.9806 25.4098 47.2046 24.6278 47.7382 24.1089C47.8226 24.0284 47.9056 23.9446 47.9874 23.8602C48.5018 23.3237 49.2837 23.0954 49.9699 23.3772C50.802 23.719 51.7532 23.3216 52.095 22.4894L52.8072 20.755C53.149 19.9228 52.7516 18.9716 51.9194 18.6299C51.2333 18.3481 50.8375 17.6362 50.8474 16.8925C50.8491 16.7753 50.8486 16.6581 50.8461 16.541C50.832 15.7985 51.2227 15.0835 51.9081 14.7962C52.3064 14.6296 52.6223 14.3117 52.7863 13.9124C52.9503 13.513 52.949 13.0649 52.7827 12.6665L52.0593 10.9349C51.8927 10.5366 51.5749 10.2207 51.1755 10.0567C50.7761 9.89274 50.328 9.89402 49.9296 10.0603C49.243 10.3471 48.461 10.1231 47.942 9.58951C47.8606 9.50502 47.7777 9.42195 47.6934 9.34034C47.1574 8.82471 46.9291 8.04283 47.2104 7.35786L47.2109 7.35667Z" stroke="#59DC8E" stroke-width="2"/>
<path d="M43.3198 17.8715C43.0215 18.5981 42.4467 19.1763 41.7219 19.4791C40.9972 19.7819 40.1818 19.7844 39.4553 19.486C38.7287 19.1876 38.1504 18.6128 37.8476 17.8881C37.5449 17.1633 37.5424 16.348 37.8408 15.6214C38.1392 14.8948 38.7139 14.3166 39.4387 14.0138C40.1634 13.711 40.9788 13.7085 41.7053 14.0069C42.4319 14.3053 43.0102 14.8801 43.313 15.6048C43.6157 16.3296 43.6182 17.1449 43.3198 17.8715V17.8715Z" stroke="#59DC8E" stroke-width="2"/>
</g>
<defs>
<clipPath id="clip0_1785_7157">
<rect width="56" height="56" fill="white" transform="translate(0.5)"/>
</clipPath>
</defs>
</svg>
