<svg width="56" height="56" viewBox="0 0 56 56" fill="none" xmlns="http://www.w3.org/2000/svg">
<path d="M47.25 10.5V19.25H29.75V10.5H47.25ZM47.25 7H29.75C28.8217 7 27.9315 7.36875 27.2751 8.02513C26.6187 8.6815 26.25 9.57174 26.25 10.5V19.25C26.25 20.1783 26.6187 21.0685 27.2751 21.7249C27.9315 22.3813 28.8217 22.75 29.75 22.75H47.25C48.1783 22.75 49.0685 22.3813 49.7249 21.7249C50.3812 21.0685 50.75 20.1783 50.75 19.25V10.5C50.75 9.57174 50.3812 8.6815 49.7249 8.02513C49.0685 7.36875 48.1783 7 47.25 7ZM21 43.75H10.5V29.75H21V26.25H10.5C9.57174 26.25 8.6815 26.6187 8.02513 27.2751C7.36875 27.9315 7 28.8217 7 29.75V43.75C7 44.6783 7.36875 45.5685 8.02513 46.2249C8.6815 46.8812 9.57174 47.25 10.5 47.25H21V43.75ZM52.5 35H29.449L33.9745 30.4745L31.5 28L22.75 36.75L31.5 45.5L33.9745 43.0255L29.449 38.5H52.5V35ZM19.25 10.5V19.25H10.5V10.5H19.25ZM19.25 7H10.5C9.57174 7 8.6815 7.36875 8.02513 8.02513C7.36875 8.6815 7 9.57174 7 10.5V19.25C7 20.1783 7.36875 21.0685 8.02513 21.7249C8.6815 22.3813 9.57174 22.75 10.5 22.75H19.25C20.1783 22.75 21.0685 22.3813 21.7249 21.7249C22.3813 21.0685 22.75 20.1783 22.75 19.25V10.5C22.75 9.57174 22.3813 8.6815 21.7249 8.02513C21.0685 7.36875 20.1783 7 19.25 7Z" fill="#59DC8E"/>
</svg>
