<svg width="1206" height="1720" viewBox="0 0 1206 1720" fill="none" xmlns="http://www.w3.org/2000/svg">
<path d="M37 443V403C37 375.386 59.3858 353 87 353H303C330.614 353 353 330.614 353 303V197C353 169.386 375.386 147 403 147H587C614.614 147 637 124.614 637 97V75C637 47.3858 659.386 25 687 25H1097C1124.61 25 1147 47.3858 1147 75V292C1147 319.062 1125.06 341 1098 341V341C1070.94 341 1049 362.938 1049 390V665C1049 692.614 1071.39 715 1099 715H1131C1158.61 715 1181 737.386 1181 765V1069C1181 1096.61 1158.61 1119 1131 1119H923C895.386 1119 873 1141.39 873 1169V1215C873 1242.61 850.614 1265 823 1265H595C567.386 1265 545 1287.39 545 1315V1335C545 1362.61 522.614 1385 495 1385H391C363.386 1385 341 1362.61 341 1335V1169C341 1141.39 318.614 1119 291 1119H75C47.3858 1119 25 1141.39 25 1169V1402V1535C25 1562.61 47.3858 1585 75 1585H557C584.614 1585 607 1607.39 607 1635V1720" stroke="#59DC8E" stroke-width="50"/>
</svg>
