<svg width="1920" height="344" viewBox="0 0 1920 344" fill="none" xmlns="http://www.w3.org/2000/svg">
<path d="M-20 275H8.11109C35.7253 275 58.1111 252.614 58.1111 225V211C58.1111 183.386 80.4969 161 108.111 161H123.222C150.836 161 173.222 138.614 173.222 111V103C173.222 75.3858 195.608 53 223.222 53H417.167C444.781 53 467.167 75.3858 467.167 103V168.694C467.167 195.373 488.794 217 515.472 217V217C542.151 217 563.778 238.627 563.778 265.306V269C563.778 296.614 586.164 319 613.778 319H831C851.435 319 868 302.435 868 282V282C868 261.565 884.565 245 905 245H922.833C950.448 245 972.833 222.614 972.833 195V157.194C972.833 132.787 992.717 113 1017.13 113V113C1041.43 113 1061.22 93.3005 1061.22 69V69C1061.22 44.6995 1080.92 25 1105.22 25H1350.06C1371.04 25 1388.06 42.0132 1388.06 63V63C1388.06 83.9868 1405.07 101 1426.06 101H1467.56C1495.17 101 1517.56 123.386 1517.56 151V211C1517.56 238.614 1539.94 261 1567.56 261H1668.83C1693.13 261 1712.83 241.301 1712.83 217V215.139C1712.83 191.866 1731.7 173 1754.97 173V173C1778.24 173 1797.11 191.866 1797.11 215.139V239C1797.11 266.614 1819.5 289 1847.11 289H1899.89H2200" stroke="#59DC8E" stroke-width="50"/>
</svg>
