<svg width="151" height="150" viewBox="0 0 151 150" fill="none" xmlns="http://www.w3.org/2000/svg">
<g opacity="0.25">
<g clip-path="url(#clip0_820_24797)">
<path d="M81.0988 56.6887L79.9484 56.9587C79.4333 57.0674 78.9066 57.1112 78.3806 57.089C77.8057 57.0754 77.2438 56.9153 76.7478 56.6235C76.3344 56.378 75.9513 56.0842 75.6067 55.7484C74.8423 54.9885 74.1894 54.1234 73.6677 53.1791C73.5657 53.0022 73.6028 52.8905 73.779 52.7509C74.2452 52.4154 74.7498 52.1373 75.282 51.9224L75.8108 51.6989C75.8055 51.6187 75.7867 51.54 75.7551 51.4662C75.6623 51.3265 75.5603 51.1962 75.4582 51.0659C71.8723 46.292 68.8814 41.0961 66.552 35.5939C65.597 33.3709 64.7669 31.0958 64.0657 28.7795C64.0008 28.5561 63.9358 28.3234 63.8802 28.0907C63.8593 27.9833 63.8733 27.872 63.92 27.7731C63.9667 27.6743 64.0438 27.5931 64.1399 27.5414C64.2436 27.4787 64.3677 27.4591 64.4856 27.487C64.6034 27.5148 64.7058 27.5878 64.7708 27.6904C64.8461 27.8398 64.9082 27.9955 64.9563 28.1558C65.2532 29.2171 65.5965 30.2597 65.9676 31.3023C68.4258 38.175 71.9071 44.6344 76.2932 50.4608C76.5153 50.7881 76.7602 51.0992 77.0261 51.3917C77.2138 51.4695 77.4188 51.4953 77.6198 51.4662C78.619 51.4931 79.5876 51.8171 80.403 52.3971C80.9166 52.7499 81.3815 53.1693 81.7853 53.6445C82.2875 54.2156 82.7261 54.8399 83.0934 55.5064C83.1955 55.6833 83.1769 55.7764 83.0099 55.8788L82.4997 56.1581C82.4997 56.2418 82.5646 56.3163 82.6203 56.3535C82.676 56.3908 82.9914 56.5676 83.1769 56.6701C85.5956 57.9835 87.9317 59.4447 90.172 61.0454C90.4425 61.249 90.7633 61.3745 91.0997 61.4085C93.0961 61.6243 95.1066 61.6773 97.1114 61.5667C97.2288 61.576 97.3466 61.576 97.464 61.5667C97.5061 61.5662 97.5477 61.5563 97.5856 61.5378C97.6235 61.5194 97.657 61.4928 97.6835 61.4599C97.7101 61.4271 97.7291 61.3887 97.7393 61.3477C97.7494 61.3066 97.7505 61.2638 97.7423 61.2223C97.6263 59.5457 97.8117 57.8619 98.2896 56.2512C98.2896 56.1115 98.3824 55.9812 98.4288 55.8415C98.4752 55.7019 98.5587 55.7298 98.6051 55.7484L98.8092 55.8043C100.104 56.2408 101.348 56.815 102.52 57.5172C103.245 57.9385 103.918 58.4447 104.524 59.0253C104.572 59.0796 104.625 59.1295 104.682 59.1742C104.72 59.2015 104.765 59.2162 104.812 59.2162C104.858 59.2162 104.904 59.2015 104.941 59.1742L105.248 58.9788C106.901 57.7669 108.11 56.0429 108.69 54.0728C108.916 53.3381 109.075 52.5839 109.163 51.8199C109.182 51.6314 109.217 51.4447 109.265 51.2614C109.296 51.1558 109.364 51.0647 109.455 51.0035C109.547 50.9424 109.656 50.9151 109.766 50.9263C109.872 50.9341 109.973 50.9765 110.053 51.047C110.134 51.1175 110.189 51.2124 110.211 51.3172C110.225 51.4129 110.225 51.5101 110.211 51.6058C110.071 52.8836 109.759 54.1363 109.283 55.3295C108.585 57.0487 107.437 58.5472 105.962 59.6676L105.619 59.9376C105.589 59.9572 105.564 59.9825 105.545 60.0121C105.526 60.0417 105.513 60.075 105.507 60.1098C105.5 60.1446 105.502 60.1804 105.51 60.2148C105.518 60.2492 105.533 60.2816 105.554 60.31C105.886 60.9488 106.099 61.6427 106.185 62.358C106.249 62.9079 106.277 63.4615 106.268 64.0151C106.237 65.4303 106.021 66.8354 105.628 68.1949C105.602 68.2863 105.565 68.3739 105.517 68.4556C105.497 68.485 105.471 68.5095 105.44 68.5272C105.41 68.545 105.376 68.5555 105.34 68.558C105.223 68.5721 105.105 68.5721 104.988 68.558C103.571 68.3016 102.222 67.7533 101.026 66.9475C99.6622 66.0349 98.6403 64.6918 98.1227 63.1307C98.1227 62.991 98.0392 62.8607 97.9835 62.7211C97.9646 62.6638 97.9266 62.615 97.8759 62.5827C97.8251 62.5505 97.7648 62.5369 97.7052 62.5442L96.7775 62.5908C95.6565 62.6745 94.5308 62.6745 93.4098 62.5908C93.1036 62.5908 92.7882 62.5908 92.4821 62.5908H92.4264C92.4264 62.6373 92.4264 62.7024 92.4264 62.7211C92.5368 62.8459 92.6546 62.964 92.7789 63.0748C93.4655 63.6706 94.1334 64.2943 94.755 64.9367C95.3198 65.5202 95.8437 66.1423 96.3229 66.7985C96.4624 66.9937 96.6514 67.148 96.8702 67.2454C98.0299 67.7481 99.2081 68.2322 100.396 68.6511C103.01 69.5784 105.697 70.2822 108.43 70.755L109.627 70.9691C109.814 71.0056 110.009 70.9726 110.174 70.876C112.181 69.7851 113.928 68.2701 115.295 66.4355C116.396 64.9207 117.136 63.172 117.457 61.3247C117.512 60.9709 117.549 60.6079 117.605 60.2541C117.628 60.0408 117.665 59.8293 117.716 59.6211C117.752 59.5183 117.821 59.43 117.911 59.3696C118.001 59.3091 118.109 59.2798 118.217 59.286C118.324 59.3015 118.424 59.3503 118.502 59.4254C118.58 59.5005 118.633 59.5982 118.653 59.7049C118.672 59.8688 118.672 60.0343 118.653 60.1983C118.346 63.7071 116.717 66.9663 114.098 69.312C113.569 69.795 113.011 70.2457 112.428 70.6619L111.964 70.997C111.89 71.0529 111.862 71.1367 111.899 71.1832C111.927 71.2161 111.962 71.2416 112.001 71.2577C112.072 71.271 112.144 71.271 112.215 71.2577C114.711 71.5164 117.221 71.6128 119.729 71.5462C120.657 71.5462 121.501 71.4625 122.383 71.4159C122.624 71.4159 122.717 71.3042 122.717 71.0529C122.717 70.2616 122.717 69.4703 122.717 68.679C122.659 67.6736 122.542 66.6726 122.364 65.6814C122.044 63.8368 121.553 62.0261 120.898 60.2728C119.791 57.2832 118.274 54.4632 116.39 51.8944C116.299 51.7828 116.221 51.661 116.158 51.5314C116.115 51.4451 116.101 51.3478 116.115 51.2527C116.13 51.1577 116.174 51.0697 116.241 51.0007C116.297 50.935 116.37 50.8869 116.453 50.8621C116.535 50.8373 116.623 50.837 116.705 50.8611C116.795 50.8837 116.878 50.9285 116.946 50.9914C117.095 51.1482 117.232 51.3162 117.354 51.4941C118.081 52.4763 118.747 53.5022 119.349 54.5662C120.946 57.3285 122.149 60.3024 122.921 63.4007C123.237 64.6812 123.469 65.981 123.617 67.2919C123.722 68.3405 123.771 69.3939 123.765 70.4478C123.765 70.6619 123.765 70.876 123.765 71.0901C123.771 71.1389 123.794 71.184 123.83 71.2179C123.865 71.2518 123.911 71.2724 123.96 71.2763H124.238H124.739H125.064C125.173 71.2845 125.275 71.3311 125.353 71.4077C125.431 71.4843 125.48 71.5861 125.491 71.6952C125.511 71.8157 125.484 71.9392 125.417 72.0411C125.35 72.1429 125.247 72.2156 125.129 72.2444C124.99 72.2444 124.851 72.2444 124.711 72.3003L123.923 72.4027C123.876 72.4076 123.832 72.4274 123.797 72.4592C123.762 72.491 123.738 72.5332 123.728 72.5796C123.688 72.7422 123.657 72.9069 123.635 73.073C123.5 74.386 123.252 75.6849 122.893 76.9549C122.893 77.1411 122.791 77.3273 122.735 77.5042C122.705 77.5952 122.664 77.6826 122.615 77.7648C122.559 77.8426 122.482 77.9031 122.394 77.9393C122.305 77.9756 122.208 77.986 122.114 77.9696C122.007 77.9481 121.91 77.89 121.841 77.8051C121.771 77.7203 121.733 77.6139 121.733 77.5042C121.744 77.3372 121.772 77.1718 121.817 77.0108C122.069 76.161 122.271 75.2968 122.42 74.4228C122.494 73.9573 122.559 73.4919 122.624 72.9985C122.642 72.8813 122.642 72.7619 122.624 72.6447C122.591 72.5856 122.538 72.5396 122.476 72.5144C122.38 72.505 122.284 72.505 122.188 72.5144C119.778 72.6447 117.362 72.6447 114.952 72.5144C113.662 72.4493 112.382 72.3468 111.102 72.1607H110.962C110.718 72.095 110.462 72.0826 110.213 72.1243C109.963 72.166 109.725 72.261 109.515 72.4027C108.033 73.1221 106.478 73.6777 104.877 74.0598C104.74 74.0975 104.6 74.1255 104.459 74.1435C104.339 74.1482 104.22 74.1122 104.123 74.0413C104.025 73.9704 103.954 73.8687 103.921 73.7525C103.902 73.6336 103.923 73.5117 103.982 73.4068C104.041 73.3019 104.134 73.2203 104.246 73.1754L104.802 73.0264C105.775 72.7824 106.73 72.4713 107.66 72.0955C107.773 72.0541 107.882 72.0011 107.984 71.9372C107.984 71.9372 108.049 71.8255 108.086 71.7604C107.625 71.6166 107.154 71.5076 106.676 71.4345C103.751 70.8257 100.885 69.9565 98.1134 68.8373C97.9 68.7442 97.6681 68.679 97.4454 68.6045C97.4454 68.6045 97.3526 68.6604 97.3526 68.6883C97.3391 68.8027 97.3391 68.9183 97.3526 69.0327C97.5426 69.8295 97.5615 70.6578 97.4083 71.4625V71.5369C96.8387 74.7078 95.9943 77.8227 94.8849 80.8462C94.8292 80.9951 94.7736 81.1534 94.7086 81.3116C94.588 81.6282 94.7086 81.684 94.9313 81.684H95.4322C96.3226 81.7438 97.1751 82.0678 97.8814 82.615C98.0966 82.7685 98.2743 82.969 98.401 83.2014C98.8406 83.9492 99.1099 84.7853 99.1895 85.6498C99.2453 86.3694 99.1243 87.0919 98.837 87.7537C98.6516 88.1979 98.4014 88.612 98.0948 88.9825C97.0792 90.2458 95.6364 91.0906 94.0406 91.3563C93.0264 91.5378 91.99 91.5566 90.9699 91.4122L90.4689 91.3563C90.3969 91.3474 90.324 91.3604 90.2595 91.3936C90.1949 91.4268 90.1419 91.4787 90.1071 91.5425L89.9679 91.7846C89.2381 93.1375 88.499 94.4812 87.7506 95.8155C87.6987 95.9216 87.6522 96.0304 87.6115 96.1413C87.6115 96.1972 87.6115 96.2437 87.6764 96.2437C87.7689 96.2534 87.8622 96.2534 87.9547 96.2437C89.1515 95.9179 90.3668 95.6293 91.5822 95.378C92.1388 95.2569 92.7047 95.1452 93.2706 95.0521C93.5039 95.0087 93.7234 94.9097 93.9108 94.7635C94.7179 94.1677 95.5621 93.6092 96.4249 93.0972C99.2658 91.4086 102.325 90.1211 105.517 89.2711C107.199 88.8112 108.91 88.4629 110.638 88.2285L112.911 87.9399C112.924 87.9304 112.935 87.9179 112.943 87.9033C112.95 87.8887 112.954 87.8725 112.954 87.8561C112.954 87.8396 112.95 87.8235 112.943 87.8089C112.935 87.7943 112.924 87.7817 112.911 87.7723C112.799 87.6885 112.688 87.5954 112.567 87.5209C111.811 87.0046 111.211 86.2896 110.833 85.4543C110.455 84.6243 110.216 83.7372 110.127 82.8291C110.025 81.7796 110.025 80.7227 110.127 79.6732C110.142 79.6008 110.16 79.5293 110.183 79.4591C110.201 79.4301 110.228 79.4074 110.26 79.3941C110.291 79.3807 110.326 79.3775 110.359 79.3847C110.758 79.5988 111.148 79.8408 111.556 80.027C112.363 80.3901 113.18 80.7345 113.996 81.0789L114.989 81.4792C115.519 81.6979 116.023 81.9758 116.492 82.3077C116.883 82.5868 117.227 82.9261 117.512 83.3132C117.846 83.7699 118.058 84.3043 118.13 84.8661C118.201 85.4279 118.129 85.9986 117.92 86.5248C117.849 86.7311 117.728 86.9166 117.568 87.0648L117.048 87.5582C117.045 87.5798 117.045 87.6017 117.048 87.6233C117.048 87.6233 117.113 87.7164 117.15 87.7257C117.268 87.7353 117.386 87.7353 117.503 87.7257C118.189 87.7257 118.885 87.7257 119.581 87.8002C120.277 87.8747 120.917 87.9026 121.576 87.9585C121.67 87.9703 121.764 87.9921 121.854 88.0236C121.948 88.0703 122.025 88.146 122.073 88.2396C122.121 88.3333 122.138 88.4399 122.122 88.544C122.105 88.6481 122.056 88.7441 121.981 88.818C121.906 88.8919 121.81 88.9397 121.706 88.9546H121.566L120.351 88.8522C118.5 88.6965 116.639 88.6747 114.785 88.787C112.159 88.9222 109.551 89.2929 106.992 89.8948C103.422 90.7203 100.002 92.0958 96.8517 93.9722C96.6353 94.0749 96.4378 94.2134 96.2672 94.3819C96.2629 94.3922 96.2606 94.4032 96.2606 94.4144C96.2606 94.4256 96.2629 94.4367 96.2672 94.447C96.3876 94.4563 96.5086 94.4563 96.629 94.447C98.169 94.2515 99.7091 94.1026 101.268 94.0281L103.494 93.9164C103.589 93.9161 103.682 93.8931 103.766 93.8494C103.85 93.8057 103.922 93.7425 103.977 93.6651C104.156 93.4004 104.368 93.1595 104.607 92.9482C104.695 92.9759 104.779 93.0134 104.858 93.06C105.127 93.2554 105.396 93.4602 105.647 93.6743C105.791 93.8059 105.98 93.876 106.175 93.8699H106.25H109.33C109.568 93.8789 109.8 93.7955 109.979 93.6371L111.463 92.278C111.862 91.8963 112.243 91.5053 112.642 91.1143C113.031 90.727 113.457 90.3778 113.913 90.0717C114.348 89.776 114.827 89.5499 115.332 89.4014C115.918 89.2184 116.542 89.1979 117.138 89.3421C117.734 89.4863 118.28 89.7899 118.718 90.2206C118.865 90.3471 118.985 90.5023 119.071 90.6768C119.453 91.5125 119.551 92.4514 119.349 93.3485C119.212 93.9815 118.889 94.5587 118.421 95.0056C117.623 95.8145 116.578 96.3323 115.453 96.4764C114.478 96.5798 113.492 96.4945 112.549 96.2251C111.624 95.9744 110.728 95.6249 109.877 95.1825C109.694 95.0455 109.486 94.9468 109.264 94.8925C109.043 94.8381 108.813 94.8291 108.587 94.8659H107.149C106.927 94.8659 106.871 94.9776 106.992 95.1918C107.013 95.2371 107.038 95.2807 107.066 95.3221L107.168 95.5083C107.522 96.1502 107.741 96.8581 107.811 97.5883C107.881 98.3185 107.801 99.0553 107.576 99.7533C107.409 100.306 107.179 100.837 106.89 101.336C106.744 101.61 106.579 101.875 106.398 102.127C105.229 103.672 105.637 103.654 104.311 102.267C103.768 101.708 103.297 101.082 102.91 100.405C102.723 100.068 102.559 99.7202 102.418 99.3623C102.114 98.5733 102.082 97.7051 102.325 96.8954C102.446 96.5044 102.594 96.1227 102.743 95.7503C102.817 95.5734 102.91 95.3966 102.984 95.229C102.993 95.2071 102.997 95.1836 102.996 95.16C102.995 95.1365 102.989 95.1134 102.978 95.0923C102.968 95.0712 102.953 95.0526 102.935 95.0377C102.916 95.0227 102.895 95.0118 102.873 95.0056H102.798C101.982 95.0056 101.175 95.0894 100.368 95.1452C100.006 95.1452 99.6441 95.1452 99.2916 95.2197C99.1962 95.2281 99.1025 95.25 99.0133 95.2849C99.0133 95.2849 98.9391 95.3593 98.9483 95.3966C99.2502 97.1707 99.7804 98.8981 100.525 100.535C101.029 101.602 101.652 102.607 102.381 103.533C103.139 104.526 104.054 105.388 105.09 106.084C106.387 106.949 107.856 107.521 109.395 107.759C109.585 107.787 109.774 107.824 109.96 107.871C110.076 107.904 110.175 107.978 110.24 108.079C110.305 108.18 110.331 108.301 110.313 108.42C110.284 108.538 110.218 108.642 110.124 108.718C110.03 108.794 109.914 108.836 109.793 108.839H109.58C107.048 108.508 104.688 107.373 102.845 105.6C101.868 104.646 101.031 103.558 100.358 102.369C99.2677 100.449 98.5028 98.3599 98.0948 96.1879C98.0717 95.9713 98.0717 95.7528 98.0948 95.5362C98.0952 95.5128 98.0904 95.4897 98.0808 95.4684C98.0712 95.4472 98.057 95.4283 98.0393 95.4131C98.0215 95.398 98.0007 95.387 97.9782 95.3809C97.9557 95.3748 97.9322 95.3738 97.9093 95.378H97.8351L94.6437 95.8062C94.3022 95.8394 93.9787 95.9758 93.7159 96.1972C91.9025 97.6507 90.2592 99.3059 88.8175 101.131C86.9614 103.514 85.4354 106.138 84.2809 108.932C83.7985 110.077 83.3532 111.25 82.9914 112.442C82.9357 112.619 82.8801 112.805 82.8058 112.982C82.7776 113.048 82.7366 113.108 82.6852 113.159C82.6176 113.227 82.5304 113.273 82.4356 113.29C82.3409 113.306 82.2433 113.293 82.1564 113.252C82.067 113.217 81.9905 113.156 81.9373 113.076C81.8841 112.996 81.857 112.901 81.8596 112.805C81.8717 112.662 81.9029 112.521 81.9523 112.386C82.2911 111.237 82.6874 110.106 83.1398 108.997C84.2265 106.28 85.6477 103.709 87.3703 101.345C88.519 99.7786 89.8111 98.3232 91.2296 96.9977L91.6842 96.5416C91.6948 96.5232 91.7004 96.5023 91.7004 96.4811C91.7004 96.4599 91.6948 96.439 91.6842 96.4206C91.6842 96.4206 91.6007 96.4206 91.5543 96.374H91.4894C88.6559 96.9591 85.8802 97.7971 83.1955 98.8782L82.9357 98.9899C82.6296 99.1296 82.6017 99.2227 82.8429 99.4461C83.4845 100.059 84.0655 100.732 84.5778 101.457C84.6613 101.569 84.7355 101.699 84.8097 101.82C84.8277 101.851 84.8371 101.886 84.8371 101.922C84.8371 101.958 84.8277 101.994 84.8097 102.025C84.7839 102.063 84.7526 102.098 84.717 102.127C83.9091 102.833 82.9601 103.356 81.9338 103.663C81.1618 103.903 80.347 103.972 79.546 103.864C78.7449 103.757 77.9768 103.475 77.2951 103.039L76.6179 102.602C76.5089 102.65 76.4035 102.706 76.3025 102.77L75.1613 103.756C75.0593 103.849 74.948 103.952 74.8366 104.036C74.7523 104.082 74.6552 104.1 74.5599 104.087C74.4645 104.073 74.3761 104.029 74.3078 103.961C74.2237 103.892 74.1657 103.796 74.1438 103.689C74.1218 103.583 74.1372 103.471 74.1872 103.375C74.2478 103.274 74.3194 103.18 74.4006 103.095C74.6604 102.844 74.9294 102.602 75.1985 102.369L75.6252 101.988C75.646 101.967 75.6624 101.942 75.6737 101.915C75.6849 101.888 75.6907 101.859 75.6907 101.829C75.6907 101.8 75.6849 101.771 75.6737 101.744C75.6624 101.716 75.646 101.692 75.6252 101.671L75.3376 101.345L74.4099 100.154C74.358 100.073 74.3115 99.989 74.2707 99.9022C74.2553 99.872 74.2472 99.8385 74.2472 99.8045C74.2472 99.7705 74.2553 99.737 74.2707 99.7067C74.3059 99.6735 74.3431 99.6424 74.3821 99.6136C75.5587 98.8728 76.8506 98.3347 78.2043 98.0218C78.6014 97.9407 79.0052 97.897 79.4104 97.8914C79.9369 97.8685 80.4613 97.9706 80.9411 98.1893L81.3308 98.3662C81.4052 98.4054 81.4879 98.4258 81.572 98.4258C81.656 98.4258 81.7388 98.4054 81.8132 98.3662L81.9431 98.3104C83.1305 97.789 84.3366 97.3236 85.5612 96.9233C85.6761 96.8896 85.7878 96.846 85.8952 96.7929C85.9788 96.751 86.0542 96.6942 86.1178 96.6254C86.1881 96.5265 86.2532 96.424 86.3127 96.3182C87.2404 94.7635 88.1681 93.1717 88.9845 91.5611C89.0402 91.4494 89.0866 91.3377 89.133 91.2353C89.1415 91.2122 89.1452 91.1875 89.1437 91.1628C89.1421 91.1381 89.1355 91.114 89.1241 91.0921C89.1128 91.0702 89.0969 91.0509 89.0777 91.0355C89.0584 91.02 89.0362 91.0088 89.0124 91.0026L88.6042 90.8723C87.8675 90.6677 87.1427 90.4222 86.4333 90.1368C86.3 90.0857 86.1699 90.0266 86.0436 89.96C85.9787 89.96 85.9508 89.8203 86.0436 89.7831L86.6095 89.2432C87.1534 88.7028 87.6617 88.1275 88.131 87.5209C88.7619 86.7296 89.3742 85.9291 89.9865 85.1378C90.2648 84.784 90.5431 84.4209 90.84 84.0765C91.4881 83.3136 92.2753 82.6817 93.1593 82.2146C93.3344 82.1329 93.4708 81.986 93.5397 81.805C94.284 79.9103 94.9281 77.9775 95.4694 76.0147C95.4786 75.9686 95.4786 75.9211 95.4694 75.875V75.8099C95.4298 75.8 95.3884 75.8 95.3487 75.8099L95.0704 76.1357C94.8385 76.4057 94.6066 76.6849 94.3561 76.9456C94.1822 77.1106 93.9995 77.266 93.8087 77.4111C93.749 77.45 93.6831 77.4783 93.6139 77.4949C93.5933 77.5036 93.5713 77.5081 93.549 77.5081C93.5266 77.5081 93.5046 77.5036 93.484 77.4949C93.468 77.4561 93.468 77.4126 93.484 77.3739C93.524 77.2117 93.5767 77.0529 93.6417 76.8991C93.6974 76.7129 93.7809 76.5453 93.8365 76.3591C94.0398 75.662 94.0138 74.9178 93.7623 74.2366C93.4514 73.3772 92.9317 72.6092 92.2501 72.0024C92.1896 71.965 92.124 71.9368 92.0553 71.9186C91.9073 72.0436 91.7925 72.2036 91.7213 72.3841C91.1281 73.3225 90.1924 73.9908 89.1144 74.2459C88.6275 74.3716 88.1169 74.3716 87.63 74.2459C87.0964 74.1142 86.5819 73.914 86.0993 73.6502C85.1002 73.0962 84.1666 72.4311 83.3161 71.6673C83.2903 71.6273 83.2715 71.5832 83.2604 71.5369C83.2604 71.4904 83.3439 71.4625 83.4274 71.4811C83.4768 71.4767 83.5265 71.4767 83.5759 71.4811C84.1493 71.6445 84.7361 71.7567 85.3293 71.8162C85.9487 71.8876 86.5755 71.8562 87.1847 71.7231C87.5054 71.6707 87.8016 71.5185 88.0313 71.288C88.2611 71.0574 88.4128 70.7602 88.465 70.4384C88.5738 69.9199 88.5515 69.3822 88.4001 68.8745C88.2035 68.1643 87.8187 67.5209 87.2868 67.0126C86.607 66.3566 85.7063 65.9811 84.7633 65.9607C84.2375 65.9496 83.7136 66.0283 83.214 66.1934C82.5635 66.395 81.9403 66.6764 81.3586 67.0313C80.7052 67.4203 80.0846 67.8625 79.5031 68.3532C78.7589 68.9575 78.0524 69.6073 77.3879 70.2988C77.2951 70.4012 77.1838 70.4943 77.0817 70.5967C76.9797 70.6991 77.0168 70.5967 77.0168 70.5967C76.9858 70.5696 76.9632 70.534 76.9519 70.4943C76.9843 70.3057 77.0276 70.1192 77.0817 69.9357C77.4493 68.4953 78.0783 67.1351 78.9372 65.9235C80.3452 63.9237 82.4286 62.5047 84.8005 61.9298C86.4345 61.524 88.153 61.6279 89.7267 62.2277C90.07 62.3487 90.3947 62.479 90.7287 62.6094C90.7287 62.6094 90.7287 62.6094 90.7936 62.6094C90.7985 62.5992 90.8011 62.5881 90.8011 62.5768C90.8011 62.5655 90.7985 62.5544 90.7936 62.5442C90.7147 62.4589 90.6311 62.378 90.5431 62.3022C89.4731 61.4892 88.3722 60.7227 87.2404 60.0028C85.4777 58.867 83.6501 57.8151 81.7946 56.8283C81.4606 56.8562 81.2751 56.7725 81.0988 56.6887Z" fill="black"/>
<path d="M54.1761 73.8178C54.1352 73.8769 54.1068 73.9436 54.0924 74.014C54.0781 74.0844 54.0781 74.1571 54.0926 74.2274C54.0926 74.3205 54.0926 74.4136 54.1575 74.5067L55.0853 77.8301C55.1169 78.0042 55.1974 78.1657 55.3172 78.2956L55.577 78.3421C56.5139 78.3958 57.4157 78.719 58.1746 79.273C58.6511 79.5911 59.0873 79.9663 59.4734 80.3902C59.8352 80.7998 60.1878 81.228 60.531 81.6562C61.2176 82.522 61.8762 83.4064 62.5628 84.2628C63.1596 85.0431 63.8308 85.7634 64.5667 86.4133C64.5858 86.427 64.6014 86.4452 64.6122 86.4663C64.623 86.4873 64.6286 86.5106 64.6286 86.5343C64.6286 86.5579 64.623 86.5812 64.6122 86.6023C64.6014 86.6233 64.5858 86.6415 64.5667 86.6553L64.3718 86.7484C62.9373 87.3541 61.4314 87.7733 59.8909 87.9958L58.9632 88.1168C58.9186 88.1318 58.8814 88.1632 58.859 88.2047C58.8366 88.2462 58.8307 88.2946 58.8426 88.3403C58.8679 88.4321 58.8989 88.5223 58.9353 88.6103C59.8338 90.7286 60.9011 92.7709 62.1267 94.7171C62.4793 95.2571 62.8596 95.7877 63.2307 96.3183C63.2904 96.4064 63.3672 96.4814 63.4564 96.539C63.5457 96.5966 63.6456 96.6355 63.7503 96.6534C64.075 96.7186 64.3997 96.821 64.678 96.9048C65.0906 97.0257 65.4913 97.1846 65.8748 97.3796C66.2401 97.5605 66.5801 97.789 66.886 98.0591C67.4394 98.5409 67.8125 99.1977 67.9436 99.921C67.9436 100.061 67.99 100.2 68.0178 100.359C68.0456 100.517 68.3611 100.61 68.5373 100.731C71.5613 102.839 74.3872 105.219 76.9797 107.843C78.6281 109.516 80.1477 111.311 81.5256 113.215C82.8077 114.979 83.9081 116.869 84.8097 118.856C85.2552 119.837 85.6333 120.848 85.9416 121.882C86.0065 122.086 86.0622 122.291 86.1085 122.505C86.1154 122.625 86.0815 122.744 86.0124 122.842C85.9433 122.94 85.8431 123.012 85.7282 123.045C85.622 123.074 85.5094 123.064 85.4095 123.018C85.3097 122.972 85.2288 122.893 85.1808 122.794C85.128 122.689 85.0845 122.58 85.0509 122.468C84.3143 119.955 83.2073 117.568 81.7668 115.384C80.5005 113.436 79.0729 111.599 77.4992 109.891C74.8222 106.981 71.8568 104.351 68.6487 102.043L68.1106 101.68C68.0403 101.649 67.9649 101.63 67.8879 101.625L67.6282 101.96C67.4519 102.155 67.2849 102.369 67.0901 102.546C66.6442 102.986 66.0854 103.292 65.4761 103.432C64.8668 103.572 64.2308 103.539 63.6389 103.337C62.7113 103.058 61.8898 102.503 61.2825 101.746C60.9315 101.289 60.6414 100.788 60.4197 100.256C60.0749 99.4371 59.8379 98.5765 59.7146 97.6961C59.6111 97.0809 59.5584 96.4581 59.5569 95.8342C59.5569 95.7411 59.5569 95.648 59.5569 95.5642C59.6028 95.5406 59.6537 95.5282 59.7054 95.5282C59.757 95.5282 59.8079 95.5406 59.8538 95.5642C60.3146 95.765 60.7889 95.9329 61.2732 96.0669C61.3655 96.081 61.4593 96.081 61.5515 96.0669C61.563 96.0681 61.5746 96.0661 61.5851 96.0613C61.5955 96.0565 61.6045 96.049 61.6112 96.0395C61.6178 96.03 61.6217 96.0189 61.6227 96.0074C61.6236 95.9959 61.6215 95.9843 61.6165 95.9738C61.5867 95.884 61.5495 95.7968 61.5051 95.7132C60.0667 93.4995 58.8249 91.1632 57.7942 88.7312C57.7942 88.6382 57.7107 88.5544 57.6829 88.4613C57.6541 88.3693 57.5976 88.2886 57.5212 88.2302C57.4448 88.1719 57.3522 88.1388 57.2562 88.1355C56.6851 88.0805 56.12 87.9746 55.5677 87.819C55.4999 87.8002 55.4288 87.7972 55.3597 87.8101C55.2906 87.823 55.2253 87.8515 55.1688 87.8934L54.9276 88.061C53.4003 89.0972 51.7521 89.9413 50.0199 90.5745L49.4168 90.8072C49.3588 90.8399 49.3057 90.8806 49.2591 90.9282C49.2882 90.9831 49.3291 91.0308 49.3789 91.0678C49.4286 91.1049 49.486 91.1303 49.5467 91.1423C50.0477 91.2913 50.5487 91.4589 51.0589 91.5892C51.8197 91.794 52.5897 91.9709 53.3504 92.1664C53.8838 92.2957 54.4005 92.4862 54.8904 92.7342C55.2796 92.9226 55.639 93.1673 55.9573 93.4604C56.2989 93.7645 56.5686 94.1412 56.7467 94.5632C56.9249 94.9851 57.007 95.4416 56.9871 95.8994C56.9824 96.1145 56.9638 96.329 56.9314 96.5417C56.911 96.7335 56.8406 96.9165 56.7273 97.0724C56.219 97.8388 55.4564 98.3995 54.575 98.6549C54.0844 98.776 53.5719 98.776 53.0814 98.6549C51.9414 98.4342 50.9234 97.7974 50.224 96.8676C49.8051 96.2998 49.4736 95.6722 49.2406 95.0057C48.9489 94.1936 48.7527 93.35 48.6561 92.4922C48.6004 92.064 48.554 91.6357 48.5077 91.2075C48.4965 91.1738 48.4755 91.1442 48.4474 91.1226C48.4193 91.101 48.3853 91.0884 48.3499 91.0865H48.1366L47.4408 91.2727C47.2535 91.3072 47.0646 91.332 46.8749 91.3471C46.7617 91.3517 46.6505 91.3162 46.5608 91.2468C46.471 91.1774 46.4085 91.0785 46.3842 90.9675C46.3599 90.8565 46.3752 90.7404 46.4276 90.6396C46.48 90.5388 46.5661 90.4597 46.6708 90.4162C46.8038 90.3661 46.9402 90.3257 47.079 90.2952C48.6952 89.9363 50.2689 89.4058 51.7733 88.7126C52.526 88.3444 53.2543 87.9277 53.9534 87.4652C54.0123 87.4403 54.0628 87.399 54.0989 87.3462C54.1351 87.2934 54.1554 87.2313 54.1575 87.1673L53.8885 86.9625C53.1938 86.4887 52.5903 85.8926 52.1073 85.2031C52.0709 85.1448 52.0236 85.0942 51.9681 85.0541C51.9483 85.0427 51.9259 85.0366 51.9031 85.0366C51.8804 85.0366 51.858 85.0427 51.8382 85.0541C51.7925 85.0681 51.7531 85.0977 51.7269 85.1379C50.7744 86.2597 49.4623 87.0135 48.016 87.2697C46.7052 87.5487 45.3583 87.6147 44.0267 87.4652C43.5751 87.4344 43.1258 87.3753 42.6815 87.2883L42.4681 87.2232C42.4743 87.1521 42.4932 87.0827 42.5238 87.0183C43.0592 86.2225 43.5249 85.3815 43.9154 84.5049C44.2772 83.7508 44.6112 82.9781 44.9545 82.2148C45.1897 81.6899 45.4626 81.1828 45.7709 80.6974C46.08 80.2105 46.4546 79.7688 46.8841 79.3848C47.3831 78.9289 47.9898 78.6084 48.6468 78.4538C49.4932 78.2671 50.3779 78.3788 51.1517 78.7704C51.3027 78.8472 51.4405 78.9477 51.5599 79.0683C51.7083 79.2172 51.8382 79.3941 51.9866 79.543C52.0453 79.5928 52.1109 79.6336 52.1815 79.664C52.6809 79.1786 53.2746 78.8015 53.9256 78.5562C54.1204 78.4818 54.1668 78.3701 54.1204 78.1559C54.074 77.9418 54.1204 77.9697 54.0462 77.8767C53.6844 76.5361 53.3226 75.1956 52.9515 73.8551C52.9324 73.6579 52.8511 73.4721 52.7195 73.3244L52.4041 73.4548C52.3225 73.4808 52.2356 73.485 52.1519 73.4669C52.0682 73.4489 51.9906 73.4092 51.9269 73.3518C51.8632 73.2944 51.8155 73.2214 51.7885 73.1398C51.7616 73.0583 51.7563 72.9711 51.7733 72.8869C51.8846 72.4028 52.0145 71.956 52.1722 71.4347C52.2555 71.1585 52.2555 70.8637 52.1722 70.5875C52.0609 70.15 51.9681 69.7031 51.8846 69.2563C51.8563 69.115 51.8377 68.9719 51.8289 68.8281C51.8257 68.7164 51.8603 68.6069 51.9271 68.5176C51.9939 68.4282 52.0889 68.3643 52.1967 68.3361C52.3044 68.308 52.4185 68.3175 52.5202 68.3629C52.6219 68.4082 52.7053 68.4869 52.7567 68.586C52.8123 68.6884 52.8494 68.8002 52.9051 68.9119C52.9608 69.0236 52.9793 68.9119 53.0257 68.9584C53.0721 69.0049 53.0257 68.9584 53.0814 68.9584L53.2205 68.7071C54.0738 66.8581 55.0988 65.0939 56.282 63.438C56.681 62.8608 56.7181 62.8981 56.0687 62.5071C54.3085 61.3495 52.4451 60.3585 50.5023 59.5468C50.3075 59.463 50.1034 59.3792 49.9178 59.2768C49.8323 59.2333 49.7623 59.1643 49.7174 59.0793C49.6726 58.9943 49.6551 58.8974 49.6673 58.802C49.6698 58.7041 49.7036 58.6096 49.7638 58.5325C49.8239 58.4554 49.9072 58.3997 50.0013 58.3738C50.092 58.3458 50.1889 58.3458 50.2796 58.3738C50.4857 58.4375 50.6871 58.5153 50.8826 58.6065C52.9254 59.4533 54.8825 60.4945 56.7273 61.7158L57.0892 61.9485C57.1405 61.9786 57.2011 61.9885 57.2593 61.9765C57.3175 61.9645 57.3692 61.9313 57.4046 61.8834L57.5437 61.7158C60.3415 58.2027 63.5252 55.0174 67.0344 52.2203L68.324 51.187C68.3363 51.1749 68.3461 51.1604 68.3528 51.1444C68.3595 51.1284 68.3629 51.1113 68.3629 51.0939C68.3629 51.0766 68.3595 51.0594 68.3528 51.0435C68.3461 51.0275 68.3363 51.013 68.324 51.0008C68.2624 50.9679 68.1969 50.9429 68.1291 50.9264L67.7766 50.8705C67.1489 50.7714 66.5289 50.6283 65.9211 50.4423C65.3529 50.2543 64.8175 49.9778 64.3347 49.6231C63.769 49.2134 63.3391 48.6426 63.1008 47.9846C62.8743 47.3748 62.826 46.7127 62.9617 46.0763C62.9983 45.9122 63.061 45.755 63.1472 45.6108C63.4948 45.0342 63.9712 44.5466 64.5388 44.1865C65.2495 43.7243 66.1041 43.5388 66.9416 43.6651C68.1834 43.8308 69.3219 44.4468 70.1423 45.3967C70.533 45.8537 70.8664 46.357 71.135 46.8955C71.5997 47.8709 71.9335 48.904 72.1277 49.9675C72.242 50.5548 72.3194 51.1486 72.3596 51.7456C72.3596 51.8852 72.2575 51.9504 72.1184 51.9038L71.8493 51.8014C71.3098 51.6095 70.7582 51.454 70.198 51.336C70.1176 51.3112 70.0323 51.3067 69.9498 51.3229C69.8672 51.3392 69.7899 51.3756 69.7248 51.4291L68.6487 52.2669C68.6487 52.2669 68.6487 52.3507 68.6487 52.3879C68.6566 52.4082 68.6691 52.4263 68.6852 52.4408C68.7013 52.4554 68.7205 52.466 68.7414 52.4717C68.8123 52.4806 68.884 52.4806 68.9548 52.4717C70.1401 52.4833 71.2809 52.9266 72.1648 53.7192C72.6456 54.1601 73.0722 54.657 73.4358 55.1993C74.115 56.1315 74.6701 57.1485 75.0871 58.2248C75.11 58.2711 75.1219 58.3221 75.1219 58.3738C75.1219 58.4255 75.11 58.4764 75.0871 58.5227C74.976 58.5321 74.8643 58.5321 74.7531 58.5227C73.9411 58.5071 73.129 58.5475 72.3225 58.6438L69.9011 58.9044C69.1368 58.9827 68.3646 58.9099 67.6282 58.6903C66.8977 58.5158 66.2526 58.087 65.8076 57.4802C65.3625 56.8734 65.1464 56.1279 65.1975 55.3762V55.311C65.1554 55.2968 65.1098 55.2968 65.0676 55.311C65.0051 55.3491 64.9462 55.3928 64.8914 55.4414C62.2047 57.8231 59.7648 60.471 57.6087 63.3449C57.4788 63.5218 57.3582 63.708 57.2376 63.8848C57.228 63.8906 57.22 63.8988 57.2145 63.9086C57.209 63.9184 57.2061 63.9295 57.2061 63.9407C57.2061 63.952 57.209 63.963 57.2145 63.9728C57.22 63.9826 57.228 63.9908 57.2376 63.9966H57.3396L57.887 63.6521C58.9477 62.953 60.1127 62.4282 61.3382 62.0975C62.2834 61.8388 63.2634 61.732 64.242 61.781C65.6397 61.8695 67.0043 62.2459 68.2508 62.8865C69.4973 63.5271 70.5991 64.4183 71.4875 65.5047C72.6301 66.9314 73.4443 68.594 73.8718 70.3734C73.8813 70.4444 73.8813 70.5165 73.8718 70.5875C73.8718 70.5875 73.8718 70.6434 73.8718 70.6527C73.8328 70.6669 73.7901 70.6669 73.7512 70.6527L73.3894 70.3083C72.6257 69.5125 71.8039 68.775 70.9309 68.1019C70.292 67.5981 69.6052 67.1584 68.8806 66.7894C68.2278 66.4354 67.5181 66.1991 66.7839 66.0912C66.2618 66.0106 65.7284 66.0428 65.2197 66.1857C64.7109 66.3286 64.2384 66.5788 63.8338 66.9197C63.3259 67.3246 62.9285 67.852 62.6787 68.4527C62.4289 69.0534 62.3347 69.7077 62.4051 70.3548C62.4228 70.5953 62.489 70.8297 62.5999 71.0437C62.6798 71.2182 62.7955 71.3739 62.9393 71.5006C63.0832 71.6273 63.252 71.7222 63.4348 71.7791C63.7074 71.8732 63.9914 71.9295 64.2791 71.9467C65.1605 72.0121 66.0467 71.9367 66.9045 71.7233L67.6003 71.5464C67.6003 71.5464 67.6653 71.5464 67.6931 71.6115C67.7209 71.6767 67.6931 71.6115 67.6931 71.6674C67.6974 71.6889 67.6974 71.7111 67.6931 71.7326C66.8465 72.4934 65.9121 73.1497 64.9099 73.6875C64.612 73.8617 64.302 74.0142 63.9822 74.1437C63.7115 74.2366 63.4358 74.3142 63.1565 74.3764C62.6408 74.4904 62.1035 74.4549 61.6072 74.274C60.6124 73.9666 59.7642 73.3043 59.2229 72.4121C59.1302 72.2632 59.0467 72.1235 58.9446 71.9839C58.9051 71.9732 58.8635 71.9732 58.824 71.9839C58.7746 71.9959 58.7295 72.0217 58.6941 72.0584C58.0866 72.6018 57.6053 73.2723 57.284 74.0226C56.9968 74.6875 56.9128 75.423 57.0428 76.1358C57.0967 76.3694 57.1648 76.5995 57.2469 76.8247C57.3025 76.983 57.3768 77.1319 57.4417 77.2902C57.5066 77.4485 57.4417 77.5602 57.4417 77.5508C57.3484 77.5491 57.2565 77.5268 57.1727 77.4857C57.0305 77.3963 56.8997 77.2901 56.783 77.1692C55.8197 76.2361 54.9977 75.1666 54.3431 73.9947C54.339 73.9514 54.339 73.9077 54.3431 73.8644L54.1761 73.8178Z" fill="black"/>
<path d="M43.0063 63.7265C43.0098 62.7883 43.1061 61.8528 43.2939 60.9337C43.3496 60.701 43.3867 60.4683 43.4238 60.2262C43.4238 60.1797 43.3125 60.0959 43.2661 60.1145L42.6816 60.3845C40.3351 61.5231 37.8955 62.4574 35.3896 63.1773C33.4611 63.7328 31.4955 64.1497 29.5078 64.4247L28.0235 64.6202H27.7359C27.6289 64.6013 27.5308 64.5487 27.4557 64.47C27.3806 64.3913 27.3325 64.2907 27.3184 64.1827C27.3056 64.0765 27.3288 63.9691 27.3844 63.8779C27.4399 63.7867 27.5246 63.7169 27.6245 63.68C27.7592 63.6313 27.8995 63.6 28.042 63.5869C31.2248 63.2339 34.3583 62.5251 37.3843 61.4737C41.2957 60.1271 45.0042 58.2477 48.4057 55.8881C52.0864 53.3355 55.4337 50.33 58.3695 46.9419C60.6097 44.384 62.6126 41.6264 64.3534 38.7032C64.6039 38.2657 64.8451 37.8188 65.0863 37.3813C65.1427 37.2787 65.2046 37.1793 65.2718 37.0834C65.3389 36.997 65.4328 36.9355 65.5386 36.9085C65.6445 36.8815 65.7562 36.8907 65.8563 36.9345C65.9563 36.9754 66.0394 37.0494 66.0917 37.1442C66.1441 37.2391 66.1625 37.349 66.1439 37.4558C66.1176 37.5721 66.0771 37.6846 66.0233 37.7909C65.847 38.1354 65.6615 38.4705 65.4759 38.8057C63.9474 41.427 62.2067 43.9179 60.2714 46.2531C57.242 49.9834 53.7431 53.3035 49.8622 56.1302C48.3733 57.2102 46.8246 58.2048 45.2236 59.1091C45.0691 59.1713 44.9322 59.2703 44.8247 59.3977C44.8247 59.3977 44.8247 59.5094 44.8247 59.5187C44.9466 59.5931 45.0737 59.6584 45.205 59.7142C46.0025 60.0368 46.7774 60.4132 47.5243 60.8406C48.0306 61.1016 48.5201 61.3938 48.9902 61.7157C49.3684 61.9989 49.7251 62.31 50.0571 62.6466C50.874 63.4999 51.389 64.5989 51.5229 65.7745C51.6342 66.6554 51.6342 67.5468 51.5229 68.4277C51.4112 69.5262 51.2064 70.6131 50.9106 71.6766C50.8863 71.767 50.852 71.8544 50.8085 71.9373C50.7874 71.9645 50.7608 71.9869 50.7304 72.0029C50.7 72.019 50.6665 72.0283 50.6322 72.0303C50.4162 72.0222 50.2016 71.991 49.9921 71.9373C48.8926 71.7075 47.837 71.302 46.8657 70.7364C46.4522 70.4956 46.061 70.2184 45.6967 69.9078C44.414 68.8434 43.5306 67.3726 43.1918 65.7373C43.0638 65.0749 43.0016 64.4013 43.0063 63.7265Z" fill="black"/>
<path d="M88.2609 110.608L87.0455 110.543C86.9873 110.534 86.9348 110.502 86.8986 110.456C86.8624 110.409 86.8453 110.35 86.8507 110.291C86.9342 109.696 86.9992 109.1 87.1012 108.513C87.2875 107.474 87.5733 106.454 87.9547 105.469C88.186 104.869 88.475 104.292 88.8175 103.747C89.3992 102.83 90.2431 102.109 91.2389 101.68C91.9402 101.376 92.6752 101.158 93.4283 101.029C94.7233 100.801 96.0403 100.726 97.3526 100.805C97.4468 100.811 97.5401 100.827 97.631 100.852C97.6948 100.88 97.7472 100.929 97.7794 100.992C97.7936 101.037 97.7936 101.086 97.7794 101.131C97.8988 102.667 97.6605 104.209 97.0836 105.637C96.7311 106.531 96.2064 107.346 95.5393 108.036C94.8723 108.726 94.0761 109.278 93.1964 109.658C92.3443 110.042 91.4411 110.299 90.5153 110.422C89.7704 110.548 89.0162 110.61 88.2609 110.608Z" fill="black"/>
<path d="M41.1879 50.1351C40.292 50.1283 39.3994 50.0253 38.5253 49.8279C37.6148 49.6324 36.7237 49.3551 35.8627 48.9994C35.7312 48.9404 35.6041 48.8719 35.4823 48.7946C35.4675 48.7524 35.4675 48.7064 35.4823 48.6642C35.5025 48.6192 35.5346 48.5805 35.5751 48.5525C36.2088 47.9863 36.7895 47.363 37.31 46.6907C37.913 45.9366 38.4882 45.1826 39.0727 44.4192C39.43 43.9394 39.8239 43.4881 40.2509 43.0694C40.6989 42.6379 41.2047 42.2713 41.7538 41.9802C42.4375 41.6298 43.2072 41.4844 43.9711 41.5613C44.7376 41.6334 45.4649 41.935 46.0585 42.427C46.1882 42.5305 46.2982 42.6566 46.3832 42.7994C46.8037 43.4479 47.0615 44.1889 47.1346 44.9591C47.2345 45.9973 46.9248 47.0335 46.2718 47.845C45.5143 48.8476 44.4478 49.5709 43.2382 49.9024C42.5695 50.079 41.8789 50.1574 41.1879 50.1351Z" fill="black"/>
<path d="M39.0541 104.091C38.2922 104.054 37.5348 103.951 36.7904 103.784C35.9031 103.589 35.034 103.318 34.1928 102.974L33.8031 102.788C33.7908 102.776 33.781 102.761 33.7743 102.745C33.7676 102.73 33.7642 102.712 33.7642 102.695C33.7642 102.678 33.7676 102.66 33.7743 102.644C33.781 102.629 33.7908 102.614 33.8031 102.602C33.829 102.563 33.8603 102.529 33.8959 102.499C34.4293 102.016 34.9198 101.486 35.3617 100.917C36.0297 100.079 36.6884 99.2319 37.3471 98.3755C37.7075 97.8981 38.1012 97.447 38.5253 97.0256C38.9706 96.5883 39.4768 96.2183 40.0282 95.9272C40.7732 95.5309 41.6249 95.3841 42.4589 95.5082C43.1741 95.612 43.8459 95.9152 44.3978 96.3833C44.5201 96.4987 44.6262 96.6303 44.7132 96.7743C45.2756 97.7031 45.5047 98.7969 45.3627 99.8743C45.2686 100.52 45.0133 101.132 44.6205 101.652C43.8563 102.709 42.7572 103.474 41.5033 103.821C40.7049 104.033 39.8793 104.124 39.0541 104.091Z" fill="black"/>
<path d="M94.8663 120.904C94.8663 121.379 94.8663 121.835 94.8014 122.338C94.8014 122.533 94.6993 122.57 94.5138 122.459C93.8739 122.084 93.1998 121.773 92.5006 121.528C91.5729 121.174 90.6451 120.848 89.671 120.504C89.1793 120.327 88.6783 120.141 88.2052 119.936C87.7026 119.712 87.229 119.427 86.7951 119.089C86.4119 118.799 86.0769 118.45 85.8024 118.055C85.4358 117.534 85.2025 116.93 85.1233 116.297C85.044 115.664 85.1211 115.021 85.3478 114.425C85.4016 114.266 85.4868 114.121 85.5983 113.996C86.133 113.344 86.8264 112.84 87.6115 112.535C88.5377 112.181 89.5611 112.181 90.4874 112.535C91.6676 112.956 92.6778 113.754 93.3634 114.806C93.9099 115.681 94.2993 116.645 94.5138 117.655C94.7445 118.723 94.8627 119.812 94.8663 120.904Z" fill="black"/>
<path d="M83.613 42.8831C83.6117 43.8495 83.3962 44.8034 82.9822 45.6759C82.8046 46.0679 82.6064 46.4501 82.3884 46.8209C81.7584 47.783 81.0068 48.6591 80.1526 49.4275C80.0886 49.4806 80.0143 49.5196 79.9344 49.542C79.8545 49.5645 79.7708 49.5699 79.6887 49.5579C79.5945 49.5523 79.5055 49.5126 79.4383 49.4462L79.3455 49.3344C78.486 48.3072 77.7597 47.1749 77.1839 45.9645C76.9286 45.4226 76.7326 44.8545 76.5994 44.2702C76.4066 43.4274 76.4516 42.5474 76.7293 41.7288C76.9092 41.2079 77.1456 40.7084 77.4344 40.2393C78.1293 39.1192 78.9754 38.1011 79.9485 37.2138C80.0159 37.1472 80.0984 37.098 80.1888 37.0705C80.2793 37.0429 80.3751 37.0378 80.468 37.0555C80.5601 37.0749 80.6502 37.1029 80.7371 37.1393L80.7927 37.1859C82.0186 38.2294 82.9229 39.6017 83.3997 41.1423C83.5617 41.7077 83.6337 42.2952 83.613 42.8831Z" fill="black"/>
<path d="M102.798 38.6101C104.53 38.6388 106.243 38.9793 107.855 39.6155C107.921 39.6403 107.984 39.6748 108.04 39.7179C108.049 39.7368 108.054 39.7575 108.054 39.7784C108.054 39.7994 108.049 39.8201 108.04 39.8389C108.026 39.8848 107.997 39.9244 107.957 39.9506C107.469 40.4108 107.024 40.9157 106.63 41.4587C106.027 42.2593 105.442 43.0692 104.839 43.8791C104.552 44.2608 104.274 44.6425 103.967 45.0056C103.565 45.4831 103.096 45.9001 102.576 46.2437C102.099 46.5638 101.563 46.7824 100.999 46.886C100.491 46.97 99.9714 46.9488 99.472 46.824C98.9727 46.6991 98.504 46.4731 98.0949 46.1599C97.9802 46.0741 97.8799 45.9704 97.798 45.8527C97.3223 45.1584 97.0434 44.3476 96.9909 43.5068C96.941 42.5645 97.2382 41.6368 97.8258 40.9002C98.6067 39.8591 99.7258 39.1248 100.989 38.8242C101.583 38.6879 102.19 38.6161 102.798 38.6101Z" fill="black"/>
<path d="M87.3888 51.2615C87.9282 51.2605 88.4662 51.3167 88.9938 51.4291C89.6449 51.5845 90.2534 51.8834 90.775 52.3041C91.2046 52.6498 91.5936 53.0433 91.9347 53.4771C92.7527 54.539 93.4178 55.7111 93.9108 56.9588C93.9236 57.0264 93.9236 57.0959 93.9108 57.1635C93.9079 57.2335 93.8854 57.3013 93.8458 57.3591C93.8026 57.4144 93.7448 57.4564 93.6788 57.4801C92.3964 58.1832 90.9561 58.5454 89.4948 58.532C88.2215 58.5151 86.9843 58.1056 85.9508 57.3591C85.5182 57.0597 85.1227 56.7097 84.7726 56.3164C83.7803 55.1814 83.0064 53.8714 82.4904 52.4531C82.473 52.4094 82.4718 52.3609 82.4872 52.3164C82.5025 52.272 82.5333 52.2346 82.5739 52.211L82.7687 52.118C84.257 51.6005 85.8146 51.3118 87.3888 51.2615Z" fill="black"/>
<path d="M37.7274 66.3704C38.2548 66.3737 38.7803 66.433 39.2953 66.5472C39.8997 66.6962 40.4657 66.9723 40.9559 67.3571C41.3352 67.6493 41.6834 67.9799 41.995 68.3439C42.9161 69.4614 43.655 70.7182 44.1844 72.0676C44.2141 72.1351 44.2298 72.208 44.2308 72.2817C44.2473 72.3236 44.2473 72.3702 44.2308 72.4121C44.176 72.4607 44.117 72.5043 44.0545 72.5424C42.7284 73.2844 41.231 73.6632 39.7128 73.6409C38.5138 73.6006 37.3515 73.2162 36.3637 72.5331C35.7144 72.0816 35.1386 71.532 34.6566 70.904C33.8778 69.8977 33.2525 68.7808 32.8012 67.5899C32.7858 67.5643 32.7764 67.5355 32.7738 67.5058C32.7712 67.476 32.7755 67.446 32.7862 67.4181C32.797 67.3903 32.8139 67.3652 32.8358 67.345C32.8577 67.3247 32.884 67.3098 32.9125 67.3013L33.2465 67.1709C33.6825 67.0406 34.1186 66.9103 34.5546 66.7986C35.5923 66.5342 36.657 66.3906 37.7274 66.3704Z" fill="black"/>
<path d="M32.6899 60.971L31.6137 60.9244C31.5845 60.9221 31.5559 60.914 31.5298 60.9005C31.5037 60.8871 31.4805 60.8686 31.4615 60.8461C31.4425 60.8236 31.4282 60.7975 31.4193 60.7694C31.4104 60.7414 31.4071 60.7118 31.4096 60.6824C31.4096 60.4125 31.4096 60.1518 31.4746 59.8911C31.6216 58.8944 31.8576 57.913 32.1797 56.9587C32.3795 56.3951 32.6278 55.85 32.9218 55.3296C33.4701 54.3586 34.3399 53.6109 35.3803 53.2164C36.046 52.9541 36.7405 52.7728 37.4492 52.6765C38.3243 52.5479 39.2092 52.498 40.0932 52.5275H40.52C40.5797 52.5338 40.6361 52.5587 40.681 52.5988C40.7259 52.6389 40.7572 52.6921 40.7704 52.7509C40.7801 52.8469 40.7801 52.9436 40.7704 53.0395C40.8379 54.4345 40.564 55.8248 39.9726 57.089C39.3473 58.3978 38.2879 59.4476 36.976 60.0587C36.2607 60.3959 35.5019 60.6309 34.7216 60.7569C34.0524 60.891 33.3723 60.9627 32.6899 60.971Z" fill="black"/>
<path d="M28.6636 66.3145C28.6636 66.3796 28.7749 66.4168 28.8027 66.482C29.1025 67.1587 29.4627 67.8068 29.8789 68.4184C30.3613 69.1631 30.8623 69.8892 31.3633 70.6246C31.676 71.0753 31.9611 71.5447 32.2168 72.0303C32.5181 72.6121 32.7159 73.2421 32.8012 73.8922C32.9049 74.5722 32.8093 75.2678 32.5259 75.8943C32.2426 76.5207 31.7839 77.0509 31.2056 77.4204C31.0734 77.5256 30.9171 77.596 30.751 77.6252C30.0324 77.8069 29.2801 77.8069 28.5615 77.6252C27.7704 77.4106 27.0723 76.9392 26.5762 76.2847C25.8143 75.2873 25.4356 74.0482 25.5093 72.7937C25.5547 71.9787 25.7334 71.1767 26.0381 70.4198C26.6315 68.9802 27.4592 67.6495 28.4873 66.482C28.5354 66.4158 28.5951 66.359 28.6636 66.3145Z" fill="black"/>
<path d="M104.366 75.7355C105.971 75.7623 107.558 76.0776 109.051 76.6664C109.073 76.6755 109.092 76.6895 109.107 76.7073C109.122 76.725 109.132 76.7461 109.138 76.7687C109.143 76.7913 109.143 76.8149 109.138 76.8376C109.132 76.8602 109.122 76.8813 109.107 76.8991L109.051 76.955C108.604 77.3869 108.191 77.8538 107.818 78.3514C107.261 79.0961 106.714 79.8595 106.157 80.6042C105.897 80.958 105.647 81.3024 105.368 81.6282C104.987 82.0921 104.536 82.4941 104.032 82.8198C103.613 83.099 103.143 83.295 102.65 83.397C102.166 83.4904 101.668 83.4798 101.188 83.3659C100.708 83.252 100.258 83.0373 99.8669 82.736C99.7543 82.6478 99.6544 82.5445 99.57 82.4288C99.18 81.8505 98.935 81.1862 98.8556 80.4925C98.7982 80.0259 98.8342 79.5525 98.9617 79.1001C99.0891 78.6476 99.3054 78.2253 99.5978 77.858C100.312 76.881 101.347 76.1886 102.52 75.903C103.127 75.776 103.747 75.7198 104.366 75.7355Z" fill="black"/>
<path d="M112.874 56.791C112.948 56.8934 112.994 56.9493 113.031 57.0145C113.75 58.1201 114.321 59.3157 114.729 60.5706C114.902 61.119 115.02 61.6835 115.082 62.2555C115.156 62.9737 115.054 63.6992 114.785 64.3688C114.626 64.7427 114.434 65.101 114.21 65.4393C113.887 65.9165 113.523 66.365 113.124 66.7799C112.518 67.4146 111.857 67.9941 111.148 68.5114C111.071 68.5725 110.991 68.6285 110.907 68.679C110.869 68.7062 110.824 68.7209 110.777 68.7209C110.73 68.7209 110.685 68.7062 110.647 68.679L110.536 68.5765C109.706 67.6443 109.089 66.542 108.727 65.3462C108.27 63.837 108.413 62.2091 109.126 60.8033C109.342 60.3744 109.596 59.9662 109.886 59.5838C110.725 58.4967 111.734 57.5535 112.874 56.791Z" fill="black"/>
<path d="M79.7908 31.0884C79.7618 31.2048 79.7401 31.323 79.7258 31.4421C79.509 33.5989 78.7771 35.6714 77.592 37.4838C76.6814 38.8936 75.5862 40.1742 74.3357 41.2913C74.2123 41.4046 74.0822 41.5103 73.9461 41.6078C73.8623 41.6539 73.7713 41.6854 73.677 41.7009C73.5815 41.7161 73.4836 41.7009 73.3971 41.6575C73.3106 41.6141 73.2398 41.5446 73.1946 41.4589C73.1399 41.3795 73.1107 41.2854 73.1107 41.1889C73.1107 41.0925 73.1399 40.9983 73.1946 40.9189C73.3167 40.7747 73.4535 40.6437 73.6028 40.5279C74.7465 39.5075 75.751 38.3399 76.5901 37.0556C77.3886 35.8576 77.9871 34.537 78.3621 33.1457C78.535 32.4213 78.6437 31.683 78.6868 30.9394C78.7009 30.8219 78.7009 30.7032 78.6868 30.5857C78.6725 30.4924 78.6267 30.4069 78.5569 30.3436C78.3621 30.204 78.1487 30.083 77.9446 29.962C76.2657 28.9532 74.6682 27.814 73.1668 26.5548C72.907 26.3407 72.6565 26.1079 72.4153 25.8845C72.3427 25.8195 72.2902 25.7349 72.2639 25.6409C72.2376 25.5469 72.2386 25.4473 72.2669 25.3539C72.2848 25.2837 72.3185 25.2186 72.3654 25.1635C72.4123 25.1084 72.4711 25.0648 72.5374 25.0361C72.6036 25.0073 72.6756 24.9942 72.7477 24.9976C72.8198 25.0011 72.8902 25.021 72.9534 25.056C73.097 25.1395 73.2281 25.243 73.343 25.3632C74.4802 26.3516 75.6795 27.2658 76.9333 28.1001C77.3323 28.3701 77.7405 28.6214 78.1394 28.8728L78.3342 28.9751C78.3764 28.9893 78.422 28.9893 78.4641 28.9751C78.477 28.9327 78.477 28.8873 78.4641 28.8448C78.4641 28.6307 78.3992 28.4166 78.3435 28.2118C78.2136 27.7743 78.0652 27.346 77.926 26.9085C77.8704 26.7502 77.8054 26.6013 77.759 26.4337C77.7425 26.327 77.7606 26.2178 77.8107 26.1222C77.8608 26.0267 77.9403 25.9498 78.0373 25.9031C78.1475 25.8545 78.2712 25.8466 78.3867 25.8806C78.5021 25.9147 78.6018 25.9886 78.6682 26.0893L78.8259 26.4058C79.1725 27.2481 79.4155 28.1297 79.5495 29.031C79.5495 29.2265 79.6052 29.4127 79.6423 29.5989C79.652 29.6716 79.6801 29.7406 79.7239 29.7993C79.7678 29.858 79.8259 29.9043 79.8928 29.934C80.7278 30.3902 81.5813 30.8091 82.4626 31.1908C84.425 32.0707 86.4785 32.7295 88.5856 33.155C89.4738 33.3375 90.3723 33.465 91.2761 33.5367C91.9718 33.5926 92.6584 33.6484 93.3542 33.6391C95.8194 33.6307 98.2667 33.2188 100.6 32.4196C100.869 32.3265 101.138 32.2241 101.407 32.1496C101.525 32.1303 101.647 32.1521 101.751 32.2113C101.856 32.2706 101.937 32.3637 101.982 32.4754C102.014 32.5795 102.011 32.6911 101.974 32.7935C101.938 32.8959 101.869 32.9836 101.778 33.0433C101.678 33.1053 101.572 33.1582 101.463 33.2016C100.048 33.7209 98.5881 34.1073 97.1022 34.3559C95.4034 34.629 93.6801 34.7164 91.9626 34.6166C90.4841 34.5356 89.0157 34.3238 87.5744 33.9835C85.1328 33.4087 82.7665 32.5495 80.5237 31.4235L79.9392 31.1442C79.8918 31.1203 79.8421 31.1016 79.7908 31.0884Z" fill="black"/>
<path d="M72.9255 123.799C72.9681 123.734 73.0146 123.672 73.0647 123.613C73.5295 123.19 73.9549 122.726 74.3357 122.226C74.8923 121.528 75.4304 120.829 75.9778 120.131C76.2872 119.706 76.6283 119.304 76.9983 118.93C77.3378 118.593 77.718 118.299 78.1301 118.055C78.4621 117.864 78.8177 117.717 79.1877 117.618C79.8417 117.448 80.5334 117.5 81.1545 117.767C81.3289 117.838 81.4992 117.919 81.6647 118.009C82.0803 118.213 82.4094 118.56 82.5925 118.986C82.8165 119.465 82.9577 119.978 83.01 120.504C83.0765 121.227 82.9072 121.952 82.5275 122.57C81.9994 123.436 81.2142 124.113 80.2824 124.507C79.7566 124.741 79.1953 124.886 78.6218 124.935C78.0267 125 77.4264 125 76.8313 124.935C75.573 124.779 74.3426 124.447 73.176 123.948C73.0846 123.913 72.9999 123.863 72.9255 123.799Z" fill="black"/>
<path d="M61.9784 105.274C61.9644 105.341 61.9644 105.411 61.9784 105.478C62.0433 105.637 62.1268 105.776 62.201 105.925C62.8698 107.24 63.3091 108.66 63.4998 110.124C63.6036 110.91 63.6378 111.705 63.6019 112.498C63.4859 114.897 62.9094 117.252 61.9041 119.433C61.4448 120.485 60.8987 121.497 60.2713 122.459C60.1507 122.635 60.0301 122.822 59.891 122.989C59.8362 123.051 59.7671 123.099 59.6896 123.129C59.6122 123.158 59.5288 123.168 59.4466 123.158C59.3644 123.148 59.2859 123.118 59.2179 123.071C59.1498 123.024 59.0943 122.96 59.056 122.887C59.0219 122.822 59.0041 122.75 59.0041 122.677C59.0041 122.604 59.0219 122.532 59.056 122.468C59.1395 122.319 59.2323 122.179 59.3251 122.04C60.0825 120.878 60.7286 119.647 61.2547 118.362C61.9007 116.81 62.3255 115.174 62.5164 113.503C62.899 110.449 62.1314 107.361 60.3641 104.845L60.1971 104.613C60.0966 104.476 59.9577 104.372 59.7982 104.315L59.4642 104.194C57.9077 103.648 56.301 103.258 54.6679 103.03C53.4391 102.855 52.1957 102.805 50.9569 102.881C47.5421 103.072 44.2835 104.38 41.6796 106.605L41.1323 107.07C41.0587 107.128 40.9812 107.181 40.9003 107.229C40.8059 107.281 40.6964 107.299 40.5901 107.281C40.4838 107.262 40.387 107.208 40.3159 107.126C40.2471 107.043 40.2051 106.94 40.1951 106.832C40.1852 106.724 40.2079 106.616 40.2602 106.521C40.3468 106.405 40.4464 106.298 40.5571 106.205C42.479 104.464 44.7739 103.19 47.2646 102.481C49.0784 101.995 50.9552 101.788 52.8309 101.866C54.7639 101.938 56.6805 102.251 58.5365 102.797L59.5663 103.123C59.7905 103.206 60.0243 103.259 60.2621 103.281C60.38 103.288 60.4932 103.33 60.5868 103.402C60.7963 103.56 61.0318 103.68 61.2826 103.756C62.3863 104.211 63.4613 104.734 64.5018 105.32C64.7152 105.441 64.9193 105.562 65.1141 105.693C65.1929 105.745 65.262 105.812 65.3182 105.888C65.3876 105.972 65.4256 106.077 65.4256 106.186C65.4256 106.295 65.3876 106.4 65.3182 106.484C65.2566 106.558 65.1746 106.613 65.0822 106.641C64.9898 106.67 64.8912 106.67 64.7987 106.642C64.6502 106.577 64.5018 106.493 64.3533 106.409C63.7132 106.037 63.0638 105.693 62.3958 105.376C62.346 105.343 62.2895 105.32 62.2303 105.311C62.171 105.301 62.1104 105.304 62.0526 105.32L61.9784 105.274Z" fill="black"/>
<path d="M46.2069 74.2181C47.5512 74.2156 48.8938 74.312 50.224 74.5066C50.3651 74.532 50.5046 74.5662 50.6414 74.6091C50.7568 74.6494 50.8522 74.733 50.9075 74.8424C50.9628 74.9517 50.9739 75.0782 50.9383 75.1956C50.9049 75.3109 50.8335 75.4114 50.7358 75.4808C50.638 75.5501 50.5197 75.5841 50.4002 75.5772H50.2611C48.0634 75.2359 45.8317 75.1733 43.6185 75.391H43.4794C43.4435 75.3932 43.4084 75.4029 43.3765 75.4194C43.3445 75.4359 43.3163 75.4588 43.2936 75.4868C43.2709 75.5148 43.2543 75.5473 43.2447 75.5821C43.2352 75.6169 43.233 75.6532 43.2382 75.6889C43.2845 76.0706 43.3402 76.4523 43.3866 76.8247C43.484 77.6597 43.484 78.5032 43.3866 79.3382C43.126 81.6374 42.2473 83.8224 40.8446 85.6592C40.2501 86.4728 39.5824 87.23 38.85 87.9213C37.674 89.0465 36.3692 90.0277 34.9628 90.8444L34.3969 91.1423C34.3091 91.1847 34.2152 91.213 34.1186 91.2261C34.0239 91.2346 33.9289 91.2153 33.8449 91.1707C33.761 91.1261 33.6917 91.058 33.6454 90.9747C33.5946 90.8787 33.5762 90.7688 33.5929 90.6613C33.6096 90.5539 33.6606 90.4548 33.7382 90.379C33.8774 90.2859 34.0165 90.1928 34.165 90.109C35.2529 89.5085 36.2785 88.8006 37.2265 87.9958C38.2692 87.1457 39.204 86.1702 40.0097 85.0913C40.8905 83.9238 41.5594 82.6097 41.9857 81.2093C42.3739 79.9227 42.5155 78.5739 42.4032 77.2343C42.3806 76.7546 42.3154 76.278 42.2084 75.81C42.1953 75.7517 42.1619 75.7001 42.1143 75.6643C42.0667 75.6284 42.008 75.6108 41.9486 75.6145C41.6146 75.661 41.2807 75.7076 40.9559 75.7727C39.3139 76.1006 37.7207 76.6388 36.2152 77.3739C33.1798 78.8435 30.6975 81.2561 29.1367 84.2534C29.0253 84.4676 28.9233 84.691 28.812 84.8958C28.7648 84.9791 28.7088 85.0572 28.645 85.1285C28.578 85.198 28.4919 85.2457 28.3976 85.2657C28.3034 85.2856 28.2054 85.2767 28.1162 85.2402C28.0164 85.1982 27.9333 85.1244 27.8796 85.0301C27.8259 84.9359 27.8047 84.8265 27.8193 84.7189C27.8641 84.5588 27.9231 84.403 27.9956 84.2534C28.7808 82.6321 29.8173 81.1459 31.0663 79.8502C32.8875 77.9812 35.1081 76.5519 37.5605 75.6703C39.107 75.0996 40.7129 74.7061 42.3475 74.4974C43.6256 74.3111 44.9154 74.2178 46.2069 74.2181Z" fill="black"/>
<path d="M38.0522 81.8796C38.0558 82.6253 37.9559 83.3678 37.7553 84.0859C37.5432 84.8629 37.171 85.5866 36.6629 86.2104C36.1547 86.8342 35.5219 87.3441 34.8052 87.7072C33.9751 88.1307 33.0822 88.4168 32.1611 88.5543C31.5924 88.6633 31.0145 88.7163 30.4356 88.7126C30.343 88.7217 30.2498 88.7217 30.1572 88.7126C30.1347 88.7043 30.1144 88.6907 30.0983 88.6728C30.0821 88.655 30.0705 88.6335 30.0645 88.6102C30.0462 88.518 30.0462 88.4231 30.0645 88.3309C30.0968 87.0687 30.2965 85.8165 30.6582 84.6072C30.804 84.0915 31.0095 83.5947 31.2705 83.127C31.61 82.5442 32.0881 82.0549 32.6621 81.7027C33.1544 81.409 33.681 81.1777 34.23 81.0138C35.0053 80.7713 35.8049 80.6152 36.6142 80.5484L37.6904 80.4739C37.7502 80.479 37.807 80.5023 37.8534 80.5405C37.8998 80.5787 37.9335 80.6301 37.9502 80.688C37.9591 80.7809 37.9591 80.8744 37.9502 80.9673L38.0522 81.8796Z" fill="black"/>
<path d="M106.704 45.5827C106.69 45.31 106.733 45.0372 106.83 44.7822C106.928 44.5272 107.077 44.2956 107.27 44.1026C107.716 43.5172 108.334 43.0878 109.037 42.8755C109.74 42.6633 110.492 42.6789 111.185 42.9203C112.154 43.2069 113.01 43.7893 113.634 44.5867C114.086 45.1717 114.449 45.8212 114.71 46.5137C115.086 47.4734 115.335 48.4778 115.453 49.5019C115.453 49.7812 115.518 50.0698 115.536 50.3584C115.536 50.4142 115.443 50.4887 115.388 50.4794H115.249C114.324 50.1579 113.375 49.915 112.41 49.7533L110.239 49.3344C109.7 49.2283 109.181 49.0399 108.699 48.7758C108.446 48.6436 108.204 48.4911 107.975 48.3196C107.555 48.0041 107.219 47.589 106.997 47.1115C106.775 46.6339 106.675 46.1088 106.704 45.5827Z" fill="black"/>
<path d="M59.2694 40.5558C59.2575 41.611 59.1046 42.6599 58.8148 43.6744C58.6963 44.0624 58.5442 44.4393 58.3602 44.8008C58.0609 45.3765 57.6242 45.869 57.0893 46.2344C56.6536 46.5274 56.1869 46.771 55.6977 46.9605C54.958 47.233 54.1936 47.4325 53.4154 47.5564C53.1649 47.5564 52.9052 47.6494 52.6454 47.6774C52.4789 47.696 52.3109 47.696 52.1445 47.6774C52.1114 47.6717 52.0804 47.6576 52.0544 47.6364C52.0284 47.6152 52.0083 47.5876 51.996 47.5564C51.9238 47.3259 51.8741 47.0889 51.8476 46.8488C51.7533 46.0173 51.7846 45.1762 51.9403 44.354C52.0805 43.5736 52.3846 42.8321 52.8325 42.1788C53.2804 41.5255 53.8618 40.9754 54.538 40.5651C55.1692 40.1798 55.8495 39.8823 56.5604 39.6807C57.2269 39.4973 57.906 39.3635 58.5922 39.2804C58.759 39.2711 58.9263 39.2711 59.0931 39.2804C59.1161 39.2872 59.1372 39.2991 59.1549 39.3152C59.1725 39.3313 59.1863 39.3512 59.1952 39.3735C59.2093 39.4692 59.2093 39.5664 59.1952 39.6621C59.2787 39.9786 59.2694 40.3044 59.2694 40.5558Z" fill="black"/>
<path d="M57.5902 106.745C57.6767 106.799 57.7603 106.858 57.8407 106.922C58.6112 107.566 59.3053 108.297 59.9095 109.1C60.2469 109.537 60.5332 110.012 60.763 110.515C61.1228 111.305 61.2109 112.192 61.0135 113.038C60.9123 113.483 60.7726 113.92 60.596 114.341C60.2273 115.219 59.7571 116.05 59.1952 116.817L59.1024 116.929C59.0726 116.965 59.0325 116.99 58.9876 117.002C58.9426 117.013 58.8952 117.011 58.8519 116.994C57.6252 116.324 56.6315 115.295 56.0038 114.043C55.6424 113.28 55.4736 112.439 55.5121 111.595C55.5444 110.877 55.6949 110.169 55.9574 109.5C56.2997 108.59 56.7649 107.732 57.3397 106.949C57.4182 106.875 57.5019 106.807 57.5902 106.745Z" fill="black"/>
<path d="M84.7449 46.8208C84.7589 45.936 84.8709 45.0555 85.0789 44.1956C85.1753 43.8244 85.3057 43.4629 85.4685 43.1157C85.7418 42.5266 86.164 42.0195 86.6931 41.6449C87.0397 41.3958 87.4132 41.1865 87.8064 41.0211C88.598 40.6836 89.4262 40.4399 90.2741 40.295C90.5525 40.2485 90.8401 40.2206 91.1276 40.1833C91.1745 40.1813 91.2208 40.1936 91.2606 40.2185C91.3003 40.2434 91.3316 40.2798 91.3503 40.323C91.3503 40.444 91.4245 40.5557 91.4431 40.6674C91.6407 41.7066 91.6154 42.7761 91.3689 43.8046C91.0825 44.9515 90.4108 45.9641 89.467 46.6719C88.9047 47.0976 88.2783 47.4307 87.6116 47.6587C86.8275 47.9434 86.0109 48.128 85.1809 48.2079H84.9675C84.8933 48.2079 84.7727 48.1055 84.7727 48.031C84.782 47.6028 84.7634 47.1932 84.7449 46.8208Z" fill="black"/>
<path d="M88.7062 26.3965C89.6106 26.4163 90.4913 26.6905 91.2482 27.1878C91.7739 27.5172 92.2516 27.9182 92.6676 28.3793C93.2503 29.0168 93.7578 29.7197 94.1798 30.4739C94.1798 30.4739 94.1798 30.5577 94.2262 30.6042C94.2394 30.6497 94.2385 30.6981 94.2236 30.743C94.2086 30.7879 94.1804 30.8272 94.1427 30.8556L94.0128 30.9208C92.8651 31.51 91.6312 31.9122 90.3575 32.1124C89.9538 32.1587 89.546 32.1587 89.1422 32.1124C88.6183 32.0607 88.1119 31.8955 87.6579 31.6283C87.2432 31.3883 86.8599 31.0975 86.5167 30.7625C85.7343 29.9897 85.0658 29.1089 84.5314 28.1466C84.5089 28.1018 84.4903 28.055 84.4757 28.007C84.4628 27.9624 84.4628 27.9149 84.476 27.8703C84.4892 27.8258 84.5148 27.7859 84.55 27.7556C85.2806 27.2124 86.1045 26.8084 86.9806 26.564C87.5453 26.4283 88.126 26.3719 88.7062 26.3965Z" fill="black"/>
<path d="M103.596 113.457C102.713 113.456 101.844 113.238 101.064 112.823C100.554 112.559 100.083 112.228 99.6627 111.837C98.9929 111.226 98.4036 110.531 97.9093 109.77C97.8909 109.746 97.8779 109.719 97.8711 109.69C97.8644 109.661 97.8641 109.631 97.8703 109.601C97.8765 109.572 97.889 109.544 97.9069 109.52C97.9249 109.497 97.9479 109.477 97.9742 109.463C99.2595 108.627 100.703 108.066 102.214 107.815C102.953 107.713 103.705 107.833 104.376 108.16C104.849 108.388 105.289 108.679 105.684 109.025C106.479 109.714 107.175 110.51 107.752 111.39C107.855 111.539 107.836 111.632 107.697 111.762C106.685 112.651 105.438 113.227 104.107 113.419C103.921 113.447 103.726 113.447 103.596 113.457Z" fill="black"/>
<path d="M99.3287 49.3345C100.074 49.341 100.81 49.5027 101.49 49.8092C101.839 49.9663 102.169 50.1631 102.474 50.3957C103.534 51.2196 104.399 52.2687 105.006 53.4678C105.026 53.5108 105.031 53.5593 105.019 53.6051C105.007 53.6509 104.98 53.6912 104.942 53.7191H104.886C103.654 54.3606 102.319 54.7796 100.943 54.9572C100.01 55.0763 99.0659 54.8478 98.2897 54.3149C97.9949 54.1096 97.7158 53.8824 97.4547 53.6353C96.6703 52.8666 96.0044 51.985 95.4787 51.0194C95.4554 50.991 95.4389 50.9576 95.4305 50.9218C95.422 50.886 95.4218 50.8487 95.4298 50.8128C95.4379 50.7769 95.454 50.7433 95.4769 50.7146C95.4998 50.6859 95.529 50.6628 95.5622 50.6471C96.6572 49.8386 97.9701 49.3811 99.3287 49.3345Z" fill="black"/>
<path d="M67.22 27.4577C67.22 27.0946 67.2757 26.6199 67.3128 26.1451C67.3162 26.1218 67.3251 26.0996 67.3387 26.0803C67.3523 26.0611 67.3702 26.0454 67.391 26.0345C67.4119 26.0236 67.435 26.0178 67.4585 26.0176C67.482 26.0174 67.5052 26.0228 67.5262 26.0334C68.633 26.6439 69.7872 27.1638 70.9773 27.588C71.4476 27.7595 71.9036 27.9681 72.3411 28.2117C72.7336 28.4365 73.0927 28.7154 73.408 29.0402C73.8603 29.5094 74.147 30.1143 74.2244 30.7625C74.2733 31.2646 74.1934 31.7709 73.9925 32.2333C73.9293 32.3593 73.848 32.4754 73.7513 32.5778C73.4861 32.8643 73.1719 33.1008 72.8235 33.276C72.4367 33.4945 72.0061 33.6238 71.5632 33.6544C71.1202 33.685 70.6761 33.6162 70.263 33.4529C69.3816 33.13 68.6358 32.5161 68.1478 31.712C67.8898 31.2812 67.6901 30.8179 67.554 30.3342C67.3107 29.3955 67.1983 28.4274 67.22 27.4577Z" fill="black"/>
<path d="M115.527 74.0132C116.22 74.0119 116.905 74.1546 117.54 74.4321C118.023 74.6425 118.481 74.908 118.904 75.2234C119.629 75.7743 120.275 76.4227 120.824 77.1504C120.936 77.2994 120.926 77.4297 120.824 77.5228C119.751 78.3286 118.536 78.9253 117.243 79.2822C116.642 79.4668 116.005 79.5019 115.388 79.3847C115.038 79.3121 114.698 79.1964 114.377 79.0402C113.992 78.8483 113.629 78.6174 113.291 78.3513C112.554 77.7776 111.89 77.1147 111.315 76.3778C111.284 76.3428 111.256 76.3055 111.232 76.266C111.205 76.2261 111.191 76.1791 111.191 76.131C111.191 76.083 111.205 76.036 111.232 75.9961L111.324 75.8844C112.144 75.0748 113.156 74.4884 114.265 74.1808C114.678 74.075 115.101 74.0188 115.527 74.0132Z" fill="black"/>
<path d="M56.7274 57.4334L55.5863 57.331C55.4448 57.3166 55.305 57.2885 55.1688 57.2472C55.1242 57.233 55.0846 57.2061 55.055 57.1698C55.0253 57.1334 55.0068 57.0891 55.0018 57.0424C55.0018 56.9866 55.0018 56.94 55.0018 56.8935C55.0661 55.9853 55.2923 55.0962 55.6698 54.2683C55.9954 53.5717 56.4744 52.9584 57.0706 52.4747C57.6668 51.9909 58.3647 51.6492 59.1117 51.4755C59.7188 51.3272 60.3424 51.2584 60.9671 51.2707C61.5145 51.2707 62.0619 51.3266 62.6092 51.3731C62.7115 51.3965 62.8111 51.4308 62.9061 51.4755C62.9438 51.5022 62.9703 51.542 62.9803 51.5872C62.9897 51.6583 62.9897 51.7303 62.9803 51.8013C62.74 52.9934 62.3142 54.14 61.7186 55.1992C61.7213 55.2177 61.7213 55.2365 61.7186 55.255C61.4269 55.7934 61.0144 56.2562 60.5136 56.6068C60.0128 56.9575 59.4375 57.1863 58.8334 57.2752C58.1405 57.4145 57.4332 57.4677 56.7274 57.4334Z" fill="black"/>
<path d="M54.5565 36.4783C54.5552 36.8906 54.4733 37.2986 54.3153 37.6792C54.1668 38.0842 53.9739 38.4714 53.7401 38.8336C53.2367 39.621 52.635 40.3405 51.9495 40.9747C51.7918 41.133 51.662 41.1423 51.5135 40.9747C50.691 40.2795 50.0535 39.3902 49.6581 38.3867C49.1988 37.2397 49.1988 35.959 49.6581 34.812C49.8345 34.3429 50.0649 33.8962 50.3446 33.4808C50.8096 32.7944 51.3581 32.169 51.9774 31.6189C51.9966 31.5881 52.0232 31.5628 52.0549 31.5452C52.0865 31.5276 52.1221 31.5183 52.1583 31.5183C52.1945 31.5183 52.23 31.5276 52.2617 31.5452C52.2933 31.5628 52.32 31.5881 52.3392 31.6189C53.1111 32.5276 53.7371 33.5515 54.1947 34.6537C54.4476 35.2278 54.5712 35.8508 54.5565 36.4783Z" fill="black"/>
<path d="M50.7065 109.118C50.0738 109.095 49.4483 108.975 48.851 108.765C47.8664 108.401 46.9504 107.872 46.142 107.201C46.1201 107.181 46.1026 107.156 46.0906 107.129C46.0786 107.102 46.0724 107.072 46.0724 107.042C46.0724 107.013 46.0786 106.983 46.0906 106.956C46.1026 106.929 46.1201 106.904 46.142 106.884L46.1884 106.828C46.8758 106.03 47.665 105.326 48.5356 104.734C49.0461 104.38 49.6144 104.118 50.2148 103.961C50.661 103.864 51.123 103.864 51.5693 103.961C52.0851 104.056 52.587 104.215 53.0629 104.436C53.866 104.804 54.6227 105.267 55.3173 105.814L55.4193 105.907C55.4495 105.943 55.466 105.989 55.466 106.037C55.466 106.085 55.4495 106.131 55.4193 106.167C54.6744 107.498 53.4544 108.496 52.0053 108.96C51.5797 109.062 51.144 109.115 50.7065 109.118Z" fill="black"/>
<path d="M82.509 88.7126C81.9222 88.7027 81.338 88.6341 80.7648 88.5078C80.3845 88.4427 80.0134 88.3682 79.6423 88.2658C78.9037 88.0748 78.149 87.9533 77.3879 87.9027C75.4822 87.7248 73.5603 87.8663 71.7009 88.3216C71.0898 88.4757 70.4703 88.5938 69.8454 88.6754C69.3012 88.7595 68.7455 88.731 68.2126 88.5916C67.9824 88.5321 67.7733 88.4089 67.6093 88.2361C67.4453 88.0633 67.3329 87.8478 67.2849 87.6141C67.2874 87.5777 67.3 87.5427 67.3213 87.5131C67.3427 87.4834 67.3718 87.4604 67.4055 87.4466H67.5447C67.9743 87.5011 68.4106 87.4367 68.8064 87.2604C70.1052 86.8042 71.4133 86.3295 72.74 85.9571C73.5396 85.7129 74.3548 85.5231 75.1799 85.3892C75.6291 85.324 76.0852 85.324 76.5344 85.3892C77.5222 85.5533 78.4961 85.7929 79.4475 86.1061C80.4494 86.4226 81.4421 86.767 82.444 87.0928L83.112 87.3349C83.4067 87.4506 83.7253 87.4921 84.0397 87.4559H84.2531C84.2815 87.4621 84.3083 87.4743 84.3316 87.4918C84.355 87.5092 84.3743 87.5315 84.3884 87.5571C84.4024 87.5826 84.4109 87.6109 84.4131 87.64C84.4154 87.6691 84.4115 87.6984 84.4015 87.7259C84.3386 87.9424 84.2197 88.1384 84.0567 88.2937C83.8937 88.4491 83.6926 88.5583 83.4738 88.6102C83.1599 88.6967 82.834 88.7313 82.509 88.7126Z" fill="black"/>
<path d="M63.7224 34.3837C63.7011 35.2458 63.5765 36.1022 63.3513 36.9345C63.3239 37.0282 63.2866 37.1187 63.24 37.2044C63.2245 37.2369 63.199 37.2635 63.1672 37.2802C63.1355 37.297 63.0992 37.303 63.0637 37.2975C61.7258 37.1272 60.4873 36.4992 59.5569 35.5194C58.9492 34.8662 58.5488 34.0464 58.4065 33.1642C58.2754 32.4577 58.2597 31.7346 58.3602 31.0231C58.4347 30.4532 58.5526 29.8899 58.7127 29.3381C58.7355 29.2816 58.7788 29.2358 58.8339 29.2099C58.8889 29.184 58.9517 29.1799 59.0096 29.1985C60.1209 29.5674 61.1668 30.1109 62.1082 30.809C62.2659 30.93 62.4051 31.0603 62.5442 31.1813C63.2246 31.8041 63.6343 32.6698 63.6853 33.5924C63.7039 33.8531 63.7132 34.1138 63.7224 34.3837Z" fill="black"/>
<path d="M100.219 115.365C100.207 115.757 100.142 116.145 100.025 116.519C99.824 117.134 99.5432 117.719 99.1896 118.26C98.9655 118.631 98.7077 118.98 98.4195 119.303C98.3854 119.335 98.3427 119.357 98.2966 119.365C98.2504 119.373 98.2029 119.368 98.1598 119.349L98.0392 119.284C97.479 118.911 96.989 118.441 96.5919 117.897C96.1624 117.347 95.8743 116.699 95.7529 116.011C95.6316 115.322 95.6808 114.615 95.8961 113.95C96.2168 112.969 96.7276 112.061 97.399 111.278C97.419 111.256 97.4434 111.239 97.4706 111.227C97.4977 111.214 97.5271 111.208 97.5568 111.208C97.5864 111.208 97.6158 111.214 97.643 111.227C97.6701 111.239 97.6945 111.256 97.7145 111.278C98.547 112.002 99.2444 112.869 99.774 113.838C100.025 114.311 100.176 114.831 100.219 115.365Z" fill="black"/>
<path d="M91.7399 37.5674C91.6918 37.6302 91.639 37.6894 91.5822 37.7443C91.0366 38.2239 90.4428 38.6451 89.8102 39.0011C89.415 39.2227 88.9985 39.4036 88.5671 39.541C87.9638 39.7354 87.3149 39.7354 86.7116 39.541C86.4889 39.4632 86.2719 39.3699 86.0622 39.2617C85.2566 38.8389 84.5262 38.2853 83.9006 37.6233C83.8798 37.6025 83.8633 37.5779 83.8521 37.5507C83.8409 37.5235 83.8351 37.4945 83.8351 37.4651C83.8351 37.4356 83.8409 37.4065 83.8521 37.3794C83.8633 37.3522 83.8798 37.3275 83.9006 37.3068C84.434 36.6273 85.1209 36.0848 85.9045 35.7242C86.8264 35.3041 87.8706 35.2411 88.8361 35.5473C89.201 35.6608 89.5525 35.8138 89.8844 36.0035C90.5247 36.3744 91.1089 36.8353 91.6193 37.372C91.6655 37.4332 91.7059 37.4986 91.7399 37.5674Z" fill="black"/>
<path d="M53.3226 112.237C53.3066 112.28 53.2848 112.321 53.2577 112.358C52.5408 113.028 51.8741 113.75 51.2631 114.518C50.9835 114.856 50.6729 115.168 50.3353 115.449C49.9519 115.776 49.4976 116.009 49.0087 116.128C48.6582 116.206 48.294 116.197 47.948 116.101C47.6019 116.005 47.2844 115.826 47.0233 115.579C46.952 115.515 46.8924 115.44 46.8471 115.356C46.5636 114.891 46.4409 114.345 46.4979 113.803C46.5549 113.261 46.7885 112.753 47.1625 112.358C47.6579 111.827 48.3069 111.466 49.018 111.325C49.7263 111.202 50.4522 111.224 51.1517 111.39C51.83 111.529 52.4878 111.754 53.1093 112.06C53.1706 112.092 53.2269 112.133 53.2762 112.181C53.2762 112.181 53.3133 112.218 53.3226 112.237Z" fill="black"/>
<path d="M39.8335 90.0623C40.4308 90.0757 41.0237 90.1696 41.5961 90.3416C42.1253 90.4823 42.6361 90.6854 43.1176 90.9467C43.13 90.9588 43.1398 90.9733 43.1465 90.9893C43.1531 91.0053 43.1566 91.0225 43.1566 91.0398C43.1566 91.0571 43.1531 91.0743 43.1465 91.0903C43.1398 91.1063 43.13 91.1208 43.1176 91.1329V91.1887C42.3991 91.8664 41.7295 92.5943 41.1137 93.3671C40.8378 93.7092 40.5269 94.0212 40.186 94.298C39.7826 94.6381 39.2956 94.8631 38.7758 94.9497C38.4425 94.9971 38.1029 94.9691 37.7818 94.8676C37.4607 94.7661 37.1664 94.5938 36.9204 94.3632C36.8545 94.2936 36.7983 94.2153 36.7534 94.1305C36.4493 93.5844 36.3443 92.9491 36.4565 92.3338C36.5446 91.9089 36.7467 91.5162 37.041 91.1981C37.6518 90.5114 38.5094 90.0962 39.4252 90.0437L39.8335 90.0623Z" fill="black"/>
<path d="M70.4949 109.947C70.5155 110.405 70.4844 110.864 70.4021 111.316C70.2937 112.01 69.9376 112.642 69.4001 113.094C69.1806 113.281 68.9481 113.452 68.7043 113.606C68.0083 114.017 67.2591 114.33 66.4778 114.536C66.4198 114.553 66.3579 114.548 66.3034 114.522C66.2489 114.497 66.2054 114.452 66.1809 114.397C65.7664 113.419 65.6596 112.337 65.8748 111.297C66.0247 110.639 66.3447 110.032 66.8025 109.537C67.1454 109.172 67.5391 108.859 67.9714 108.607C68.5033 108.286 69.0739 108.036 69.6692 107.862C70.0681 107.741 70.1887 107.666 70.2908 108.216C70.3928 108.765 70.4485 109.388 70.4949 109.947Z" fill="black"/>
<path d="M75.6809 82.4008C74.9141 82.4346 74.1475 82.3306 73.4172 82.0936C72.9593 81.9531 72.527 81.7393 72.137 81.4606C71.6204 81.1068 71.215 80.6128 70.968 80.0363C70.7851 79.6471 70.6481 79.2378 70.5598 78.8167C70.5458 78.7242 70.5458 78.63 70.5598 78.5375C70.5598 78.4723 70.6711 78.4165 70.7268 78.4444C70.8124 78.4851 70.8933 78.535 70.968 78.5933C71.6458 79.2794 72.5167 79.7407 73.4636 79.9152C75.0698 80.3096 76.75 80.284 78.3435 79.8408C79.0889 79.65 79.7808 79.2901 80.3659 78.7888C80.4909 78.6792 80.6243 78.5796 80.7648 78.4909C80.8322 78.4769 80.9016 78.4769 80.9689 78.4909C81.0246 78.4909 81.0617 78.6306 81.0524 78.7423C81.0621 78.8351 81.0621 78.9287 81.0524 79.0216C80.9342 79.4106 80.7948 79.7928 80.635 80.1666C80.3389 80.8024 79.8524 81.3297 79.2434 81.6747C78.7462 81.9607 78.2079 82.168 77.6477 82.2891C76.9991 82.4068 76.3386 82.4443 75.6809 82.4008Z" fill="black"/>
<path d="M91.6657 49.2507C91.6504 46.9529 92.2737 44.6963 93.4655 42.7342C94.0476 41.7726 94.7353 40.8796 95.5158 40.0717C96.8554 38.6645 98.397 37.4659 100.089 36.5156C100.275 36.4094 100.467 36.3161 100.665 36.2363C100.734 36.2155 100.806 36.2096 100.878 36.2189C100.949 36.2282 101.017 36.2525 101.079 36.2903C101.14 36.3282 101.193 36.3785 101.233 36.4382C101.274 36.4979 101.301 36.5655 101.314 36.6366C101.329 36.7202 101.32 36.8063 101.289 36.8852C101.258 36.9642 101.206 37.0328 101.138 37.0835C100.98 37.1906 100.816 37.287 100.646 37.3721C99.0615 38.2658 97.612 39.3818 96.3414 40.6862C95.5406 41.5094 94.8399 42.425 94.254 43.4138C93.4997 44.6707 93.0044 46.0667 92.7975 47.5192C92.6538 48.563 92.6538 49.6218 92.7975 50.6657C92.7975 50.9077 92.8624 51.1404 92.881 51.3825C92.8848 51.4424 92.8767 51.5025 92.8573 51.5593C92.8379 51.6161 92.8075 51.6685 92.7678 51.7135C92.7282 51.7584 92.6801 51.7951 92.6262 51.8214C92.5724 51.8477 92.514 51.863 92.4542 51.8666C92.3359 51.8819 92.2161 51.8535 92.1171 51.7867C92.0181 51.7199 91.9467 51.6192 91.9162 51.5035C91.8662 51.3164 91.8259 51.1269 91.7956 50.9357C91.7956 50.3026 91.6657 49.6696 91.6657 49.2507Z" fill="black"/>
<path d="M71.4319 39.271H70.7546C70.7078 39.2606 70.6652 39.2365 70.6321 39.2016C70.5991 39.1668 70.5771 39.1229 70.5691 39.0755C70.5195 38.6215 70.5445 38.1623 70.6433 37.7164C70.698 37.4616 70.7756 37.2124 70.8752 36.9717C71.0513 36.4863 71.3286 36.0442 71.6886 35.675C72.0486 35.3058 72.4829 35.0179 72.9626 34.8305C73.5531 34.5883 74.1808 34.4497 74.8181 34.4209C75.1428 34.4209 75.4768 34.4209 75.8107 34.4209C75.8585 34.4251 75.9033 34.4461 75.9373 34.4801C75.9712 34.5142 75.9921 34.5591 75.9963 34.6071C76.0056 34.7279 76.0056 34.8493 75.9963 34.9701C75.9032 35.6567 75.7255 36.329 75.4675 36.9717C75.3654 37.2137 75.2541 37.4557 75.1335 37.6791C74.806 38.2713 74.2701 38.7195 73.6306 38.9359C73.203 39.094 72.7573 39.1972 72.3039 39.2431C72.0534 39.2431 71.7937 39.2524 71.4319 39.271Z" fill="black"/>
<path d="M113.393 101.029C113.358 101.675 113.281 102.319 113.161 102.956C113.06 103.49 112.82 103.988 112.465 104.398C112.109 104.809 111.652 105.117 111.139 105.292C110.446 105.553 109.723 105.722 108.986 105.795C108.927 105.798 108.868 105.779 108.822 105.741C108.776 105.703 108.745 105.649 108.736 105.59C108.542 104.766 108.587 103.904 108.866 103.105C109.098 102.39 109.558 101.772 110.174 101.345C111.048 100.758 112.072 100.435 113.124 100.414C113.184 100.412 113.243 100.433 113.288 100.472C113.333 100.512 113.361 100.568 113.365 100.628C113.384 100.749 113.384 100.889 113.393 101.029Z" fill="black"/>
<path d="M71.636 117.031C71.6768 117.054 71.7143 117.082 71.7473 117.115C72.2907 117.902 72.6869 118.783 72.9162 119.712C73.0107 120.085 73.0272 120.474 72.965 120.853C72.9027 121.233 72.7629 121.596 72.5544 121.919C72.2317 122.428 71.8381 122.889 71.3855 123.287C71.1354 123.542 70.8513 123.762 70.5413 123.939C70.473 123.905 70.4104 123.861 70.3557 123.808C69.9639 123.383 69.6498 122.891 69.428 122.356C69.1879 121.803 69.0878 121.2 69.1363 120.599C69.1849 119.998 69.3807 119.418 69.7063 118.912C70.1644 118.173 70.7711 117.539 71.4875 117.05L71.636 117.031Z" fill="black"/>
<path d="M118.57 70.8666C118.196 70.8741 117.823 70.8207 117.466 70.7084C116.883 70.5749 116.319 70.3685 115.787 70.094L115.666 70.0195C115.631 69.9871 115.606 69.9456 115.593 69.8996C115.579 69.8536 115.579 69.8049 115.592 69.7588C115.891 68.948 116.412 68.2381 117.095 67.7108C117.629 67.2956 118.276 67.0522 118.95 67.0126C119.523 66.9797 120.097 67.0458 120.648 67.2081C121.152 67.3533 121.638 67.5563 122.095 67.8132C122.134 67.838 122.164 67.8755 122.179 67.9195C122.194 67.9635 122.194 68.0114 122.179 68.0552C121.731 68.8769 121.133 69.6064 120.416 70.2057C120.128 70.4568 119.794 70.6497 119.433 70.7735C119.154 70.8608 118.861 70.8924 118.57 70.8666Z" fill="black"/>
<path d="M66.9231 122.31C66.9686 120.24 67.6133 118.228 68.7786 116.519C69.3571 115.667 70.0293 114.884 70.7825 114.183C71.9782 113.072 73.3206 112.133 74.7717 111.39C74.9572 111.297 75.1613 111.213 75.3562 111.138C75.4471 111.103 75.5471 111.098 75.641 111.125C75.7349 111.152 75.8173 111.209 75.8757 111.287C75.9373 111.36 75.9762 111.449 75.9878 111.543C75.9993 111.637 75.9829 111.733 75.9406 111.818C75.9025 111.907 75.8376 111.982 75.7551 112.032C75.593 112.128 75.4258 112.215 75.2541 112.293C73.6515 113.105 72.1939 114.178 70.9402 115.467C69.9634 116.458 69.1799 117.623 68.6301 118.902C68.1574 120.008 67.9144 121.199 67.9158 122.403C67.9158 122.877 67.9158 123.334 67.9807 123.836C67.9807 123.957 67.9807 124.069 67.9807 124.19C67.9734 124.298 67.9315 124.401 67.8613 124.483C67.7911 124.565 67.6963 124.622 67.5911 124.646C67.4838 124.661 67.3748 124.64 67.2797 124.589C67.1847 124.537 67.1085 124.456 67.0623 124.358C67.0335 124.294 67.0087 124.229 66.9881 124.162C66.9287 123.547 66.907 122.928 66.9231 122.31Z" fill="black"/>
<path d="M49.7602 44.8473C49.7204 46.2721 49.4863 47.6848 49.0644 49.0458C48.7043 50.2122 48.2255 51.3384 47.6357 52.4064C47.5445 52.5745 47.4422 52.7362 47.3295 52.8905C47.2496 52.9801 47.1413 53.0392 47.023 53.0579C46.9046 53.0765 46.7835 53.0536 46.6801 52.9929C46.5903 52.9328 46.5232 52.8441 46.4896 52.7411C46.4559 52.6382 46.4577 52.5269 46.4945 52.425C46.5556 52.2668 46.6301 52.1142 46.7172 51.9689C47.3977 50.7318 47.9243 49.4156 48.2851 48.0497C48.6828 46.5674 48.8054 45.0243 48.6469 43.4975C48.5059 42.0223 48.0022 40.6053 47.1811 39.3735C46.9213 38.9732 46.6059 38.6101 46.3183 38.2284C46.2348 38.1167 46.142 38.005 46.0678 37.884C46.0134 37.7912 45.992 37.6826 46.0072 37.5761C46.0224 37.4695 46.0732 37.3713 46.1513 37.2975C46.2336 37.2271 46.3352 37.1832 46.4428 37.1716C46.5504 37.1599 46.6589 37.1811 46.7543 37.2324C46.8682 37.3219 46.9738 37.4216 47.0697 37.5302C48.1221 38.7142 48.8957 40.1205 49.3334 41.6449C49.6206 42.6879 49.7642 43.7653 49.7602 44.8473Z" fill="black"/>
<path d="M75.7737 93.8512L75.1614 93.7674C74.2647 93.6146 73.4033 93.2992 72.6194 92.8365C72.0088 92.4996 71.4994 92.0045 71.1443 91.4029C71.0961 91.3212 71.0587 91.2336 71.033 91.1422C71.0211 91.0966 71.027 91.0481 71.0494 91.0067C71.0718 90.9652 71.109 90.9338 71.1536 90.9188C71.2458 90.9048 71.3396 90.9048 71.4319 90.9188C72.0906 91.0398 72.7493 91.1236 73.3987 91.2912C74.5554 91.5887 75.7578 91.6645 76.9426 91.5146C77.487 91.4491 78.0264 91.3465 78.5568 91.2074C79.1042 91.0771 79.6794 91.0026 80.2453 90.9095C80.313 90.9003 80.3817 90.9003 80.4494 90.9095C80.4945 90.9245 80.5325 90.9554 80.5564 90.9966C80.5804 91.0377 80.5885 91.0862 80.5793 91.1329C80.5793 91.2167 80.5051 91.3098 80.4587 91.3936C80.1872 91.8459 79.8275 92.2386 79.4011 92.5479C79.0927 92.7693 78.7633 92.9595 78.4177 93.1158C77.6308 93.4662 76.7957 93.6953 75.9407 93.7954L75.7737 93.8512Z" fill="black"/>
<path d="M54.1761 73.8457L54.139 73.8643L54.1576 73.8364L54.1761 73.8457Z" fill="white"/>
<path d="M61.9784 105.274H61.9598L61.9691 105.292L61.9784 105.274Z" fill="white"/>
</g>
</g>
<defs>
<clipPath id="clip0_820_24797">
<rect width="100" height="100" fill="white" transform="translate(25.5 25)"/>
</clipPath>
</defs>
</svg>
