<svg width="32" height="32" viewBox="0 0 32 32" fill="none" xmlns="http://www.w3.org/2000/svg">
<path d="M21.8127 18.6665C21.9193 17.7865 21.9993 16.9065 21.9993 15.9998C21.9993 15.0932 21.9193 14.2132 21.8127 13.3332H26.3193C26.5327 14.1865 26.666 15.0798 26.666 15.9998C26.666 16.9198 26.5327 17.8132 26.3193 18.6665H21.8127ZM19.4527 26.0798C20.2527 24.5998 20.866 22.9998 21.2927 21.3332H25.226C23.9342 23.5575 21.8848 25.2425 19.4527 26.0798ZM19.1194 18.6665H12.8793C12.746 17.7865 12.666 16.9065 12.666 15.9998C12.666 15.0932 12.746 14.1998 12.8793 13.3332H19.1194C19.2393 14.1998 19.3327 15.0932 19.3327 15.9998C19.3327 16.9065 19.2393 17.7865 19.1194 18.6665ZM15.9993 26.6132C14.8927 25.0132 13.9993 23.2398 13.4527 21.3332H18.546C17.9993 23.2398 17.106 25.0132 15.9993 26.6132ZM10.666 10.6665H6.77268C8.05116 8.43612 10.0991 6.74849 12.5327 5.91984C11.7327 7.39984 11.1327 8.99984 10.666 10.6665ZM6.77268 21.3332H10.666C11.1327 22.9998 11.7327 24.5998 12.5327 26.0798C10.1042 25.2421 8.05914 23.5568 6.77268 21.3332ZM5.67935 18.6665C5.46602 17.8132 5.33268 16.9198 5.33268 15.9998C5.33268 15.0798 5.46602 14.1865 5.67935 13.3332H10.186C10.0793 14.2132 9.99935 15.0932 9.99935 15.9998C9.99935 16.9065 10.0793 17.7865 10.186 18.6665H5.67935ZM15.9993 5.37317C17.106 6.97317 17.9993 8.75984 18.546 10.6665H13.4527C13.9993 8.75984 14.8927 6.97317 15.9993 5.37317ZM25.226 10.6665H21.2927C20.8754 9.01511 20.2574 7.42103 19.4527 5.91984C21.906 6.75984 23.946 8.45317 25.226 10.6665ZM15.9993 2.6665C8.62602 2.6665 2.66602 8.6665 2.66602 15.9998C2.66602 19.5361 4.07077 22.9274 6.57126 25.4279C7.80937 26.666 9.27923 27.6482 10.8969 28.3182C12.5146 28.9883 14.2484 29.3332 15.9993 29.3332C19.5356 29.3332 22.927 27.9284 25.4274 25.4279C27.9279 22.9274 29.3327 19.5361 29.3327 15.9998C29.3327 14.2489 28.9878 12.5151 28.3177 10.8974C27.6477 9.27972 26.6656 7.80986 25.4274 6.57175C24.1893 5.33363 22.7195 4.35151 21.1018 3.68144C19.4841 3.01138 17.7503 2.6665 15.9993 2.6665Z" fill="white"/>
</svg>
