<svg width="528" height="106" viewBox="0 0 528 106" fill="none" xmlns="http://www.w3.org/2000/svg">
<g clip-path="url(#clip0_1_1560)">
<path d="M528 84.1642C528 88.483 526.723 92.7048 524.33 96.2957C521.937 99.8866 518.536 102.685 514.557 104.338C510.577 105.991 506.199 106.423 501.974 105.581C497.75 104.738 493.869 102.658 490.824 99.6047C487.778 96.5508 485.704 92.66 484.864 88.4242C484.023 84.1884 484.455 79.7979 486.103 75.8079C487.751 71.8179 490.543 68.4075 494.124 66.0082C497.705 63.6088 501.916 62.3281 506.223 62.3281V62.3281C511.998 62.3281 517.538 64.6287 521.622 68.7238C525.706 72.8188 528 78.3729 528 84.1642V84.1642Z" fill="#FFD200"/>
<path d="M45.3003 51.143H53.3897C62.586 51.143 68.1634 45.4438 69.1639 38.3359C70.0154 32.2098 65.7579 25.5288 57.0937 25.5288H49.3237L45.3003 51.143ZM454.6 36.3508L473.035 1.68627H515.419L451.556 103.204H408.235L428.735 74.2384L405.319 3.79943L389.353 103.161H355.463L334.643 56.2018L327.108 103.161H293.196L309.503 1.64357H344.308L364.489 47.066L371.791 1.64357H445.914L454.6 36.3508ZM296.113 1.68627L279.806 103.204H245.746L224.926 56.2445L217.39 103.204H183.522L199.828 1.68627H234.634L254.793 47.1087L262.095 1.68627H296.113ZM66.8435 0.149415C90.2601 0.149415 106.162 12.9565 106.311 33.3625L111.292 1.66492H188.077L183.947 27.2791H143.501L141.478 39.4458H178.157L174.07 64.8252H137.221L135.092 77.4402H176.39L172.26 103.054H95.0072L103.842 48.0906C97.9024 65.8924 81.7024 76.3729 60.4998 76.3729H41.0428L36.7852 103.054H0L16.5619 0L66.8435 0.149415Z" fill="white"/>
</g>
<defs>
<clipPath id="clip0_1_1560">
<rect width="528" height="106" fill="white"/>
</clipPath>
</defs>
</svg>
