<svg width="1369" height="916" viewBox="0 0 1369 916" fill="none" xmlns="http://www.w3.org/2000/svg">
<path d="M518 121H158C130.386 121 108 143.386 108 171V599C108 626.614 130.386 649 158 649H280C307.614 649 330 671.386 330 699V841C330 868.614 352.386 891 380 891H916C943.614 891 966 868.614 966 841V711C966 683.386 988.386 661 1016 661H1294C1321.61 661 1344 638.614 1344 611V231C1344 203.386 1321.61 181 1294 181H1170C1142.39 181 1120 158.614 1120 131V75C1120 47.3858 1097.61 25 1070 25H614C587.49 25 566 46.4903 566 73C566 99.5097 544.51 121 518 121Z" stroke="#59DC8E" stroke-width="50"/>
<rect x="440" y="1" width="36" height="36" fill="#222E27"/>
<rect x="1284" y="79" width="18" height="18" fill="#59DC8E"/>
<rect x="1002.5" y="411.5" width="17" height="17" stroke="#222E27"/>
<rect x="431" y="435" width="18" height="18" fill="#222E27"/>
<rect x="239" y="337" width="18" height="18" fill="#222E27"/>
<rect x="538.5" y="187.5" width="17" height="17" stroke="#59DC8E"/>
<rect x="378.5" y="319.5" width="17" height="17" stroke="#59DC8E"/>
<rect x="431" y="641" width="18" height="18" fill="#59DC8E"/>
<rect x="855.5" y="796.5" width="17" height="17" stroke="#59DC8E"/>
<rect x="1050" y="855" width="36" height="36" fill="#59DC8E"/>
<rect x="1203" y="399" width="36" height="36" fill="#59DC8E"/>
<rect x="131.5" y="837.5" width="35" height="35" stroke="#59DC8E"/>
<rect x="1075.5" y="337.5" width="35" height="35" stroke="#59DC8E"/>
<rect y="465" width="36" height="36" fill="#59DC8E"/>
</svg>
