<svg width="1646" height="977" viewBox="0 0 1646 977" fill="none" xmlns="http://www.w3.org/2000/svg">
<path d="M0 10.2822H729.08C756.694 10.2822 779.08 32.668 779.08 60.2822V268.011C779.08 288.125 795.385 304.43 815.499 304.43V304.43C835.613 304.43 851.918 320.735 851.918 340.849V502.555C851.918 530.169 829.532 552.555 801.918 552.555H768.053C740.439 552.555 718.053 574.941 718.053 602.555V873.137C718.053 887.271 729.511 898.729 743.645 898.729V898.729C757.779 898.729 769.237 910.187 769.237 924.321V932.505C769.237 951.16 784.359 966.282 803.014 966.282H1646" stroke="#59DC8E" stroke-width="20"/>
</svg>
