<svg width="1820" height="567" viewBox="0 0 1820 567" fill="none" xmlns="http://www.w3.org/2000/svg">
<g opacity="0.25">
<path d="M155.445 430.124C111.428 430.124 75.0362 419.907 46.2695 399.475C17.8493 378.696 2.42611 348.393 0 308.567H122.692C124.425 329.692 133.783 340.255 150.766 340.255C157.004 340.255 162.203 338.87 166.362 336.099C170.868 332.982 173.121 328.307 173.121 322.073C173.121 313.415 168.442 306.489 159.084 301.294C149.726 295.753 135.169 289.52 115.414 282.593C91.8458 274.282 72.2635 266.143 56.6671 258.178C41.4172 250.213 28.2469 238.611 17.1561 223.373C6.06529 208.135 0.693176 188.569 1.03976 164.673C1.03976 140.777 7.10505 120.518 19.2356 103.895C31.7128 86.9251 48.5223 74.1115 69.6641 65.4536C91.1526 56.7957 115.24 52.4668 141.928 52.4668C186.984 52.4668 222.683 62.8562 249.023 83.6351C275.711 104.414 289.747 133.678 291.134 171.426H166.882C166.535 161.037 163.936 153.591 159.084 149.089C154.232 144.587 148.34 142.336 141.408 142.336C136.556 142.336 132.57 144.067 129.451 147.53C126.331 150.647 124.772 155.149 124.772 161.037C124.772 169.348 129.277 176.274 138.289 181.816C147.646 187.01 162.376 193.417 182.478 201.036C205.7 209.694 224.762 218.005 239.665 225.971C254.915 233.936 268.086 245.018 279.176 259.217C290.267 273.416 295.813 291.251 295.813 312.723C295.813 335.233 290.267 355.493 279.176 373.501C268.086 391.163 251.969 405.016 230.827 415.059C209.686 425.102 184.558 430.124 155.445 430.124Z" fill="white"/>
<path d="M451.777 42.0773V426.487H336.363V42.0773H451.777Z" fill="white"/>
<path d="M814.273 133.505V426.487H698.859V381.813C689.848 395.665 677.717 406.92 662.467 415.578C647.564 424.236 629.715 428.565 608.919 428.565C575.3 428.565 548.96 417.31 529.897 394.799C511.182 372.289 501.824 341.813 501.824 303.372V133.505H616.718V288.827C616.718 302.68 620.357 313.762 627.635 322.073C635.26 330.038 645.311 334.021 657.788 334.021C670.612 334.021 680.663 330.038 687.941 322.073C695.22 313.762 698.859 302.68 698.859 288.827V133.505H814.273Z" fill="white"/>
<path d="M977.134 330.904H1099.31V426.487H850.803V336.099L962.577 229.088H852.362V133.505H1094.11V223.893L977.134 330.904ZM1064.47 74.8041L978.693 113.765L892.393 74.8041V0L978.693 45.7136L1064.47 0V74.8041Z" fill="white"/>
<path d="M1250.89 173.504C1258.17 159.998 1268.57 149.435 1282.08 141.816C1295.95 133.851 1312.41 129.868 1331.47 129.868C1354.35 129.868 1374.97 135.929 1393.34 148.05C1411.71 159.825 1426.09 177.14 1436.49 199.997C1447.23 222.508 1452.61 249.174 1452.61 279.996C1452.61 310.818 1447.23 337.657 1436.49 360.514C1426.09 383.025 1411.71 400.34 1393.34 412.462C1374.97 424.236 1354.35 430.124 1331.47 430.124C1312.41 430.124 1295.95 426.314 1282.08 418.695C1268.57 410.73 1258.17 399.994 1250.89 386.488V426.487H1135.48V42.0773H1250.89V173.504ZM1335.63 279.996C1335.63 264.412 1331.65 252.291 1323.68 243.633C1315.7 234.975 1305.48 230.646 1293 230.646C1280.53 230.646 1270.3 234.975 1262.33 243.633C1254.36 252.291 1250.37 264.412 1250.37 279.996C1250.37 295.58 1254.36 307.701 1262.33 316.359C1270.3 325.017 1280.53 329.346 1293 329.346C1305.48 329.346 1315.7 325.017 1323.68 316.359C1331.65 307.701 1335.63 295.58 1335.63 279.996Z" fill="white"/>
<path d="M1820 133.505L1632.32 566.745H1505.99L1579.81 411.942L1457.64 133.505H1586.05L1641.16 282.074L1692.63 133.505H1820Z" fill="white"/>
</g>
</svg>
